GeoramaExtraExtended-BoldItalic.ufo
<glyph name="exclam" format="2">
  <advance width="370.5"/>
  <unicode hex="0021"/>
  <outline>
    <contour>
      <point x="99.20000000000002" y="260.5" type="line"/>
      <point x="265.59999999999997" y="260.5" type="line"/>
      <point x="355.3" y="740.0" type="line"/>
      <point x="163.0" y="740.0" type="line"/>
    </contour>
    <contour>
      <point x="43.1" y="58.3" type="curve" smooth="yes"/>
      <point x="42.800000000000004" y="14.299999999999999"/>
      <point x="70.6" y="-7.0"/>
      <point x="140.8" y="-7.0" type="curve" smooth="yes"/>
      <point x="216.89999999999998" y="-7.0"/>
      <point x="265.5" y="18.5"/>
      <point x="266.4" y="98.2" type="curve" smooth="yes"/>
      <point x="266.7" y="142.2"/>
      <point x="238.89999999999998" y="163.5"/>
      <point x="169.4" y="163.5" type="curve" smooth="yes"/>
      <point x="89.8" y="163.5"/>
      <point x="44.00000000000001" y="134.5"/>
    </contour>
  </outline>
</glyph>
<glyph name="numbersign" format="2">
  <advance width="1045.2"/>
  <unicode hex="0023"/>
  <outline>
    <contour>
      <point x="187.8" y="435.40000000000003" type="line"/>
      <point x="293.6" y="435.40000000000003" type="line"/>
      <point x="228.00000000000003" y="266.09999999999997" type="line"/>
      <point x="127.3" y="266.09999999999997" type="line"/>
      <point x="107.80000000000001" y="147.6" type="line"/>
      <point x="185.3" y="147.6" type="line"/>
      <point x="129.3" y="0.0" type="line"/>
      <point x="332.0" y="0.0" type="line"/>
      <point x="387.7" y="147.6" type="line"/>
      <point x="526.7" y="147.6" type="line"/>
      <point x="471.0" y="0.0" type="line"/>
      <point x="673.7" y="0.0" type="line"/>
      <point x="729.4" y="147.6" type="line"/>
      <point x="862.4" y="147.6" type="line"/>
      <point x="881.1999999999999" y="266.09999999999997" type="line"/>
      <point x="773.8" y="266.09999999999997" type="line"/>
      <point x="837.7" y="435.40000000000003" type="line"/>
      <point x="941.7" y="435.40000000000003" type="line"/>
      <point x="961.5" y="552.5" type="line"/>
      <point x="880.6999999999999" y="552.5" type="line"/>
      <point x="937.4" y="700.0" type="line"/>
      <point x="734.7" y="700.0" type="line"/>
      <point x="678.0" y="552.5" type="line"/>
      <point x="539.0" y="552.5" type="line"/>
      <point x="595.7" y="700.0" type="line"/>
      <point x="393.0" y="700.0" type="line"/>
      <point x="336.3" y="552.5" type="line"/>
      <point x="206.90000000000003" y="552.5" type="line"/>
    </contour>
    <contour>
      <point x="496.3" y="435.40000000000003" type="line"/>
      <point x="635.3" y="435.40000000000003" type="line"/>
      <point x="569.7" y="266.09999999999997" type="line"/>
      <point x="430.7" y="266.09999999999997" type="line"/>
    </contour>
  </outline>
</glyph>
<glyph name="dollar" format="2">
  <advance width="1045.2"/>
  <unicode hex="0024"/>
  <outline>
    <contour>
      <point x="944.1999999999999" y="665.2" type="line"/>
      <point x="883.9" y="680.6000000000001"/>
      <point x="797.4" y="703.8"/>
      <point x="680.0" y="708.9" type="curve"/>
      <point x="696.0" y="805.0" type="line"/>
      <point x="560.8" y="805.0" type="line"/>
      <point x="545.1" y="707.9000000000001" type="line"/>
      <point x="357.3" y="701.3000000000001"/>
      <point x="164.8" y="649.4"/>
      <point x="164.8" y="459.00000000000006" type="curve" smooth="yes"/>
      <point x="164.8" y="198.00000000000003"/>
      <point x="711.8" y="306.0"/>
      <point x="711.8" y="202.29999999999998" type="curve" smooth="yes"/>
      <point x="711.8" y="141.0"/>
      <point x="611.8000000000001" y="129.7"/>
      <point x="518.7" y="129.7" type="curve" smooth="yes"/>
      <point x="378.3" y="129.7"/>
      <point x="219.89999999999998" y="164.49999999999997"/>
      <point x="127.8" y="198.0" type="curve"/>
      <point x="70.2" y="51.7" type="line"/>
      <point x="157.10000000000002" y="25.0"/>
      <point x="289.0" y="-5.500000000000001"/>
      <point x="429.5" y="-9.3" type="curve"/>
      <point x="414.5" y="-105.0" type="line"/>
      <point x="549.0" y="-105.0" type="line"/>
      <point x="564.0" y="-5.800000000000001" type="line"/>
      <point x="736.2" y="9.9"/>
      <point x="934.4" y="45.99999999999999"/>
      <point x="934.4" y="241.39999999999998" type="curve" smooth="yes"/>
      <point x="934.4" y="497.3"/>
      <point x="384.0" y="387.5"/>
      <point x="384.0" y="495.2" type="curve" smooth="yes"/>
      <point x="384.0" y="558.2"/>
      <point x="484.2" y="567.1"/>
      <point x="564.3" y="567.1" type="curve" smooth="yes"/>
      <point x="689.4" y="567.1"/>
      <point x="799.5000000000001" y="551.4000000000001"/>
      <point x="889.6" y="520.1999999999999" type="curve"/>
    </contour>
  </outline>
</glyph>
<glyph name="ampersand" format="2">
  <advance width="1089.2"/>
  <unicode hex="0026"/>
  <outline>
    <contour>
      <point x="446.4" y="-10.0" type="curve" smooth="yes"/>
      <point x="706.5999999999999" y="-10.0"/>
      <point x="880.0" y="81.19999999999997"/>
      <point x="962.2" y="310.8" type="curve"/>
      <point x="809.8" y="313.6" type="line"/>
      <point x="770.4000000000001" y="176.59999999999997"/>
      <point x="627.5999999999999" y="119.39999999999999"/>
      <point x="468.0" y="119.39999999999999" type="curve" smooth="yes"/>
      <point x="329.4" y="119.39999999999999"/>
      <point x="251.2" y="158.6"/>
      <point x="251.2" y="215.4" type="curve" smooth="yes"/>
      <point x="251.2" y="287.0"/>
      <point x="335.59999999999997" y="306.0"/>
      <point x="431.59999999999997" y="306.0" type="curve" smooth="yes"/>
      <point x="500.59999999999997" y="306.0" type="line"/>
      <point x="523.0000000000001" y="396.6" type="line"/>
      <point x="502.2" y="399.0" type="line" smooth="yes"/>
      <point x="410.19999999999993" y="409.40000000000003"/>
      <point x="354.2" y="437.40000000000003"/>
      <point x="354.2" y="493.8" type="curve" smooth="yes"/>
      <point x="354.2" y="541.8"/>
      <point x="404.79999999999995" y="585.8000000000001"/>
      <point x="493.6" y="585.8000000000001" type="curve" smooth="yes"/>
      <point x="552.6000000000001" y="585.8000000000001"/>
      <point x="611.5999999999999" y="563.8000000000001"/>
      <point x="661.2" y="527.0" type="curve"/>
      <point x="769.1999999999999" y="616.1999999999999" type="line"/>
      <point x="692.0" y="678.2"/>
      <point x="589.4" y="710.0"/>
      <point x="470.6" y="710.0" type="curve" smooth="yes"/>
      <point x="269.4" y="710.0"/>
      <point x="145.2" y="628.5999999999999"/>
      <point x="145.2" y="525.5999999999999" type="curve" smooth="yes"/>
      <point x="145.2" y="457.40000000000003"/>
      <point x="204.4" y="396.40000000000003"/>
      <point x="291.2" y="381.0" type="curve"/>
      <point x="138.79999999999998" y="373.8"/>
      <point x="38.0" y="317.59999999999997"/>
      <point x="38.0" y="205.6" type="curve" smooth="yes"/>
      <point x="38.0" y="71.2"/>
      <point x="173.20000000000002" y="-10.0"/>
    </contour>
    <contour>
      <point x="665.8000000000001" y="225.8" type="line"/>
      <point x="675.8000000000001" y="270.0"/>
      <point x="709.6" y="284.4"/>
      <point x="746.2" y="284.4" type="curve" smooth="yes"/>
      <point x="824.4000000000001" y="284.4"/>
      <point x="895.6" y="264.20000000000005"/>
      <point x="961.8000000000001" y="264.20000000000005" type="curve" smooth="yes"/>
      <point x="1053.0" y="264.20000000000005"/>
      <point x="1114.8000000000002" y="339.2"/>
      <point x="1114.8" y="450.0" type="curve"/>
      <point x="999.2" y="450.0" type="line"/>
      <point x="998.8000000000001" y="400.0"/>
      <point x="967.8000000000001" y="378.8"/>
      <point x="912.8000000000001" y="378.8" type="curve" smooth="yes"/>
      <point x="846.6" y="378.8"/>
      <point x="800.8000000000001" y="403.4"/>
      <point x="732.2" y="403.4" type="curve" smooth="yes"/>
      <point x="641.0" y="403.4"/>
      <point x="574.0" y="349.2"/>
      <point x="564.0" y="258.0" type="curve"/>
    </contour>
  </outline>
</glyph>
<glyph name="quotesingle" format="2">
  <advance width="257.3"/>
  <unicode hex="0027"/>
  <outline>
    <contour>
      <point x="75.80000000000001" y="427.0" type="line"/>
      <point x="228.10000000000002" y="427.0" type="line"/>
      <point x="279.3" y="700.0" type="line"/>
      <point x="112.0" y="700.0" type="line"/>
    </contour>
  </outline>
</glyph>
<glyph name="parenleft" format="2">
  <advance width="488.0"/>
  <unicode hex="0028"/>
  <outline>
    <contour>
      <point x="90.19999999999999" y="151.0" type="curve" smooth="yes"/>
      <point x="90.19999999999999" y="-34.2"/>
      <point x="168.6" y="-194.29999999999998"/>
      <point x="371.1" y="-220.0" type="curve"/>
      <point x="390.20000000000005" y="-102.60000000000001" type="line"/>
      <point x="290.09999999999997" y="-73.10000000000001"/>
      <point x="247.79999999999998" y="13.9"/>
      <point x="247.79999999999998" y="136.3" type="curve" smooth="yes"/>
      <point x="247.79999999999998" y="350.2"/>
      <point x="326.0" y="592.7"/>
      <point x="503.59999999999997" y="627.0" type="curve"/>
      <point x="522.7" y="750.0" type="line"/>
      <point x="223.3" y="735.1999999999999"/>
      <point x="90.19999999999999" y="434.5"/>
    </contour>
  </outline>
</glyph>
<glyph name="parenright" format="2">
  <advance width="488.0"/>
  <unicode hex="0029"/>
  <outline>
    <contour>
      <point x="394.1" y="378.4" type="curve" smooth="yes"/>
      <point x="394.1" y="568.9"/>
      <point x="315.1" y="724.3000000000001"/>
      <point x="112.3" y="750.0" type="curve"/>
      <point x="93.2" y="628.5" type="line"/>
      <point x="196.3" y="598.4"/>
      <point x="236.5" y="509.29999999999995"/>
      <point x="236.5" y="389.6" type="curve" smooth="yes"/>
      <point x="236.5" y="183.2"/>
      <point x="160.4" y="-60.30000000000001"/>
      <point x="-19.900000000000006" y="-96.4" type="curve"/>
      <point x="-39.0" y="-220.0" type="line"/>
      <point x="249.3" y="-201.70000000000002"/>
      <point x="394.1" y="87.19999999999997"/>
    </contour>
  </outline>
</glyph>
<glyph name="asterisk" format="2">
  <advance width="480.99999999999994"/>
  <unicode hex="002A"/>
  <outline>
    <contour>
      <point x="151.8" y="290.7" type="line"/>
      <point x="260.5" y="407.9" type="line"/>
      <point x="330.79999999999995" y="290.7" type="line"/>
      <point x="405.4" y="339.3" type="line"/>
      <point x="353.59999999999997" y="472.40000000000003" type="line"/>
      <point x="490.20000000000005" y="530.8" type="line"/>
      <point x="478.80000000000007" y="610.9000000000001" type="line"/>
      <point x="340.3" y="578.3000000000001" type="line"/>
      <point x="354.7" y="730.0" type="line"/>
      <point x="271.6" y="730.0" type="line"/>
      <point x="237.59999999999997" y="578.3" type="line"/>
      <point x="108.4" y="610.9" type="line"/>
      <point x="72.30000000000001" y="530.8000000000001" type="line"/>
      <point x="190.0" y="472.40000000000003" type="line"/>
      <point x="95.0" y="339.9" type="line"/>
    </contour>
  </outline>
</glyph>
<glyph name="plus" format="2">
  <advance width="673.0"/>
  <unicode hex="002B"/>
  <outline>
    <contour>
      <point x="221.6" y="82.5" type="line"/>
      <point x="388.7" y="82.5" type="line"/>
      <point x="412.29999999999995" y="235.2" type="line"/>
      <point x="604.7" y="235.2" type="line"/>
      <point x="629.4" y="384.1" type="line"/>
      <point x="437.0" y="384.1" type="line"/>
      <point x="461.6" y="536.1" type="line"/>
      <point x="295.9" y="536.1" type="line"/>
      <point x="269.9" y="384.1" type="line"/>
      <point x="79.60000000000001" y="384.1" type="line"/>
      <point x="54.9" y="235.2" type="line"/>
      <point x="246.6" y="235.2" type="line"/>
    </contour>
  </outline>
</glyph>
<glyph name="comma" format="2">
  <advance width="324.2"/>
  <unicode hex="002C"/>
  <outline>
    <contour>
      <point x="46.7" y="86.10000000000001" type="line"/>
      <point x="47.2" y="66.5"/>
      <point x="45.0" y="45.89999999999999"/>
      <point x="42.2" y="25.999999999999996" type="curve" smooth="yes"/>
      <point x="32.4" y="-45.1"/>
      <point x="-0.5999999999999985" y="-121.60000000000001"/>
      <point x="-64.6" y="-178.79999999999998" type="curve"/>
      <point x="84.19999999999999" y="-200.0" type="line"/>
      <point x="168.2" y="-138.0"/>
      <point x="231.89999999999998" y="-44.400000000000006"/>
      <point x="231.89999999999998" y="53.3" type="curve" smooth="yes"/>
      <point x="231.89999999999998" y="66.1"/>
      <point x="230.29999999999998" y="78.6"/>
      <point x="226.7" y="89.49999999999999" type="curve"/>
    </contour>
  </outline>
</glyph>
<glyph name="hyphen" format="2">
  <advance width="458.40000000000003"/>
  <unicode hex="002D"/>
  <outline>
    <contour>
      <point x="51.7" y="226.29999999999998" type="line"/>
      <point x="390.2" y="226.29999999999998" type="line"/>
      <point x="414.9" y="377.59999999999997" type="line"/>
      <point x="76.4" y="377.59999999999997" type="line"/>
    </contour>
  </outline>
</glyph>
<glyph name="period" format="2">
  <advance width="333.3"/>
  <unicode hex="002E"/>
  <outline>
    <contour>
      <point x="23.099999999999998" y="58.3" type="curve" smooth="yes"/>
      <point x="22.8" y="14.299999999999999"/>
      <point x="50.6" y="-6.999999999999999"/>
      <point x="120.79999999999998" y="-6.999999999999999" type="curve" smooth="yes"/>
      <point x="196.9" y="-6.999999999999999"/>
      <point x="245.5" y="18.5"/>
      <point x="246.39999999999998" y="98.2" type="curve" smooth="yes"/>
      <point x="246.7" y="142.2"/>
      <point x="218.89999999999998" y="163.49999999999997"/>
      <point x="149.39999999999998" y="163.49999999999997" type="curve" smooth="yes"/>
      <point x="69.8" y="163.49999999999997"/>
      <point x="24.000000000000004" y="134.5"/>
    </contour>
  </outline>
</glyph>
<glyph name="slash" format="2">
  <advance width="555.1"/>
  <unicode hex="002F"/>
  <outline>
    <contour>
      <point x="-67.0" y="-210.0" type="line"/>
      <point x="91.49999999999999" y="-210.0" type="line"/>
      <point x="619.0999999999999" y="740.0" type="line"/>
      <point x="459.9" y="740.0" type="line"/>
    </contour>
  </outline>
</glyph>
<glyph name="zero" format="2">
  <advance width="1045.2"/>
  <unicode hex="0030"/>
  <outline>
    <contour>
      <point x="521.8000000000001" y="-10.0" type="curve" smooth="yes"/>
      <point x="787.4" y="-10.0"/>
      <point x="989.0000000000001" y="107.59999999999998"/>
      <point x="989.0000000000001" y="375.0" type="curve" smooth="yes"/>
      <point x="989.0000000000001" y="596.6"/>
      <point x="818.1999999999999" y="710.0"/>
      <point x="546.4" y="710.0" type="curve" smooth="yes"/>
      <point x="279.8" y="710.0"/>
      <point x="79.8" y="595.4"/>
      <point x="79.8" y="327.6" type="curve" smooth="yes"/>
      <point x="79.8" y="106.39999999999999"/>
      <point x="251.2" y="-10.0"/>
    </contour>
    <contour>
      <point x="525.6" y="125.6" type="curve" smooth="yes"/>
      <point x="394.2" y="125.6"/>
      <point x="299.99999999999994" y="187.2"/>
      <point x="300.0" y="326.4" type="curve" smooth="yes"/>
      <point x="300.0" y="479.8000000000001"/>
      <point x="383.99999999999994" y="575.6"/>
      <point x="543.2" y="575.6" type="curve" smooth="yes"/>
      <point x="674.1999999999999" y="575.6"/>
      <point x="768.8000000000001" y="514.6"/>
      <point x="768.8000000000001" y="375.8" type="curve" smooth="yes"/>
      <point x="768.8" y="222.6"/>
      <point x="684.5999999999999" y="125.6"/>
    </contour>
  </outline>
</glyph>
<glyph name="one" format="2">
  <advance width="1045.2"/>
  <unicode hex="0031"/>
  <outline>
    <contour>
      <point x="146.4" y="0.0" type="line"/>
      <point x="893.7" y="0.0" type="line"/>
      <point x="917.7" y="145.7" type="line"/>
      <point x="666.1" y="145.7" type="line"/>
      <point x="756.5" y="703.0" type="line"/>
      <point x="653.1" y="703.0" type="line"/>
      <point x="196.6" y="528.4" type="line"/>
      <point x="225.8" y="380.90000000000003" type="line"/>
      <point x="509.1" y="492.50000000000006" type="line"/>
      <point x="455.59999999999997" y="145.7" type="line"/>
      <point x="170.4" y="145.7" type="line"/>
    </contour>
  </outline>
</glyph>
<glyph name="two" format="2">
  <advance width="1045.2"/>
  <unicode hex="0032"/>
  <outline>
    <contour>
      <point x="95.19999999999999" y="108.99999999999999" type="curve"/>
      <point x="80.80000000000001" y="0.0" type="line"/>
      <point x="901.0" y="0.0" type="line"/>
      <point x="925.8" y="145.99999999999997" type="line"/>
      <point x="477.5999999999999" y="145.99999999999997" type="line"/>
      <point x="758.0" y="279.79999999999995"/>
      <point x="867.4" y="364.79999999999995"/>
      <point x="867.4" y="498.79999999999995" type="curve" smooth="yes"/>
      <point x="867.4" y="630.7999999999998"/>
      <point x="735.5999999999999" y="710.0"/>
      <point x="541.2" y="710.0" type="curve" smooth="yes"/>
      <point x="414.99999999999994" y="710.0"/>
      <point x="267.0" y="675.6"/>
      <point x="170.20000000000005" y="627.8" type="curve"/>
      <point x="198.60000000000002" y="479.9999999999999" type="line"/>
      <point x="294.40000000000003" y="517.4"/>
      <point x="388.2" y="547.0"/>
      <point x="493.79999999999995" y="547.0" type="curve" smooth="yes"/>
      <point x="595.2" y="547.0"/>
      <point x="643.2" y="511.0"/>
      <point x="643.2" y="452.9999999999999" type="curve" smooth="yes"/>
      <point x="643.2" y="337.2"/>
      <point x="431.8" y="247.39999999999995"/>
    </contour>
  </outline>
</glyph>
<glyph name="three" format="2">
  <advance width="1045.2"/>
  <unicode hex="0033"/>
  <outline>
    <contour>
      <point x="44.6" y="56.2" type="line"/>
      <point x="158.6" y="8.600000000000001"/>
      <point x="295.8" y="-9.600000000000001"/>
      <point x="446.6" y="-9.600000000000001" type="curve" smooth="yes"/>
      <point x="657.2" y="-9.600000000000001"/>
      <point x="921.2" y="36.6"/>
      <point x="921.2" y="235.0" type="curve" smooth="yes"/>
      <point x="921.2" y="307.4"/>
      <point x="871.8000000000001" y="354.6"/>
      <point x="768.8" y="374.6" type="curve"/>
      <point x="861.6" y="391.79999999999995"/>
      <point x="936.6" y="454.6"/>
      <point x="936.6" y="548.0" type="curve" smooth="yes"/>
      <point x="936.6" y="648.4"/>
      <point x="818.8" y="710.0"/>
      <point x="557.2" y="710.0" type="curve" smooth="yes"/>
      <point x="410.40000000000003" y="710.0"/>
      <point x="256.20000000000005" y="689.2"/>
      <point x="171.8" y="662.4000000000001" type="curve"/>
      <point x="184.4" y="518.6" type="line"/>
      <point x="284.0" y="544.1999999999999"/>
      <point x="405.2" y="560.1999999999999"/>
      <point x="501.0" y="560.1999999999999" type="curve" smooth="yes"/>
      <point x="638.4" y="560.1999999999999"/>
      <point x="722.0000000000001" y="540.4"/>
      <point x="722.0000000000001" y="495.40000000000003" type="curve" smooth="yes"/>
      <point x="722.0000000000001" y="445.8"/>
      <point x="662.0" y="423.0"/>
      <point x="525.1999999999999" y="423.0" type="curve" smooth="yes"/>
      <point x="304.8" y="423.0" type="line"/>
      <point x="282.59999999999997" y="288.99999999999994" type="line"/>
      <point x="528.4" y="288.99999999999994" type="line" smooth="yes"/>
      <point x="660.2" y="288.99999999999994"/>
      <point x="708.3999999999999" y="266.40000000000003"/>
      <point x="708.3999999999999" y="223.4" type="curve" smooth="yes"/>
      <point x="708.3999999999999" y="165.79999999999998"/>
      <point x="630.1999999999999" y="139.20000000000002"/>
      <point x="463.99999999999994" y="139.20000000000002" type="curve" smooth="yes"/>
      <point x="323.2" y="139.20000000000002"/>
      <point x="188.8" y="161.40000000000003"/>
      <point x="101.39999999999999" y="195.2" type="curve"/>
    </contour>
  </outline>
</glyph>
<glyph name="four" format="2">
  <advance width="1045.2"/>
  <unicode hex="0034"/>
  <outline>
    <contour>
      <point x="40.400000000000006" y="123.4" type="line"/>
      <point x="579.0" y="123.4" type="line"/>
      <point x="558.9999999999999" y="-2.4000000000000004" type="line"/>
      <point x="770.6" y="-2.4000000000000004" type="line"/>
      <point x="790.6" y="123.4" type="line"/>
      <point x="946.3999999999999" y="123.4" type="line"/>
      <point x="967.5999999999999" y="254.39999999999998" type="line"/>
      <point x="811.8" y="254.39999999999998" type="line"/>
      <point x="884.4" y="698.2" type="line"/>
      <point x="761.0" y="701.2" type="line"/>
      <point x="55.80000000000001" y="227.20000000000002" type="line"/>
    </contour>
    <contour>
      <point x="296.6" y="254.39999999999998" type="line"/>
      <point x="636.2" y="474.79999999999995" type="line"/>
      <point x="600.6" y="254.39999999999998" type="line"/>
    </contour>
  </outline>
</glyph>
<glyph name="five" format="2">
  <advance width="1045.2"/>
  <unicode hex="0035"/>
  <outline>
    <contour>
      <point x="65.8" y="55.8" type="line"/>
      <point x="173.6" y="8.8"/>
      <point x="300.6" y="-10.0"/>
      <point x="453.2" y="-10.0" type="curve" smooth="yes"/>
      <point x="792.8" y="-10.0"/>
      <point x="925.8000000000001" y="88.2"/>
      <point x="925.8000000000001" y="254.8" type="curve" smooth="yes"/>
      <point x="925.8000000000001" y="379.2"/>
      <point x="840.0" y="434.0"/>
      <point x="618.8" y="434.0" type="curve" smooth="yes"/>
      <point x="357.4" y="434.0" type="line"/>
      <point x="393.2" y="547.5999999999999" type="line"/>
      <point x="912.0" y="547.5999999999999" type="line"/>
      <point x="938.4000000000001" y="700.0" type="line"/>
      <point x="283.40000000000003" y="700.0" type="line"/>
      <point x="158.2" y="311.8" type="line"/>
      <point x="166.6" y="304.20000000000005" type="line"/>
      <point x="539.4" y="304.20000000000005" type="line" smooth="yes"/>
      <point x="685.0" y="304.20000000000005"/>
      <point x="723.8" y="283.6"/>
      <point x="723.8" y="235.79999999999998" type="curve" smooth="yes"/>
      <point x="723.8" y="170.4"/>
      <point x="635.8" y="137.79999999999998"/>
      <point x="469.8" y="137.79999999999998" type="curve" smooth="yes"/>
      <point x="331.0" y="137.79999999999998"/>
      <point x="203.39999999999998" y="160.00000000000003"/>
      <point x="123.39999999999999" y="191.40000000000003" type="curve"/>
    </contour>
  </outline>
</glyph>
<glyph name="six" format="2">
  <advance width="1045.2"/>
  <unicode hex="0036"/>
  <note>
14
</note>
  <outline>
    <contour>
      <point x="498.99999999999994" y="-10.0" type="curve" smooth="yes"/>
      <point x="735.1999999999999" y="-10.0"/>
      <point x="964.4000000000001" y="32.6"/>
      <point x="964.4000000000001" y="244.0" type="curve" smooth="yes"/>
      <point x="964.4000000000001" y="368.59999999999997"/>
      <point x="850.6000000000001" y="447.6"/>
      <point x="627.4" y="447.6" type="curve" smooth="yes"/>
      <point x="507.40000000000003" y="447.6"/>
      <point x="371.59999999999997" y="426.6"/>
      <point x="275.6" y="382.99999999999994" type="curve"/>
      <point x="266.2" y="261.6" type="line"/>
      <point x="337.0" y="293.4"/>
      <point x="448.8" y="315.2"/>
      <point x="549.0" y="315.2" type="curve" smooth="yes"/>
      <point x="700.6" y="315.2"/>
      <point x="752.0" y="287.0"/>
      <point x="752.0" y="233.59999999999997" type="curve" smooth="yes"/>
      <point x="752.0" y="168.79999999999998"/>
      <point x="679.4000000000001" y="133.6"/>
      <point x="533.4" y="133.6" type="curve" smooth="yes"/>
      <point x="375.2" y="133.6"/>
      <point x="282.79999999999995" y="178.8"/>
      <point x="282.79999999999995" y="300.00000000000006" type="curve" smooth="yes"/>
      <point x="282.79999999999995" y="397.2"/>
      <point x="329.2" y="468.59999999999997"/>
      <point x="408.20000000000005" y="512.6" type="curve" smooth="yes"/>
      <point x="470.2" y="546.6000000000001"/>
      <point x="556.4" y="563.4000000000001"/>
      <point x="651.8000000000001" y="563.4000000000001" type="curve" smooth="yes"/>
      <point x="763.5999999999999" y="563.4000000000001"/>
      <point x="845.8" y="552.2"/>
      <point x="938.9999999999999" y="528.9999999999999" type="curve"/>
      <point x="990.3999999999999" y="667.8" type="line"/>
      <point x="911.8000000000001" y="692.2000000000002"/>
      <point x="792.4" y="710.0"/>
      <point x="655.8" y="710.0" type="curve" smooth="yes"/>
      <point x="323.4" y="710.0"/>
      <point x="82.4" y="564.4"/>
      <point x="82.4" y="289.0" type="curve" smooth="yes"/>
      <point x="82.4" y="77.39999999999999"/>
      <point x="239.20000000000002" y="-10.0"/>
    </contour>
  </outline>
</glyph>
<glyph name="seven" format="2">
  <advance width="1045.2"/>
  <unicode hex="0037"/>
  <note>
9
</note>
  <outline>
    <contour>
      <point x="252.40000000000003" y="0.0" type="curve"/>
      <point x="470.0" y="0.0" type="line"/>
      <point x="494.59999999999997" y="119.4"/>
      <point x="568.0" y="211.2"/>
      <point x="736.4000000000001" y="368.4" type="curve" smooth="yes"/>
      <point x="956.3999999999999" y="572.8" type="line"/>
      <point x="977.1999999999999" y="700.0" type="line"/>
      <point x="178.20000000000002" y="700.0" type="line"/>
      <point x="153.8" y="545.2" type="line"/>
      <point x="700.4" y="545.2" type="line"/>
      <point x="504.40000000000003" y="368.20000000000005" type="line" smooth="yes"/>
      <point x="346.2" y="224.6"/>
      <point x="274.8" y="135.0"/>
    </contour>
  </outline>
</glyph>
<glyph name="eight" format="2">
  <advance width="1045.2"/>
  <unicode hex="0038"/>
  <outline>
    <contour>
      <point x="489.6000000000001" y="-10.0" type="curve" smooth="yes"/>
      <point x="748.1999999999999" y="-10.0"/>
      <point x="969.4" y="27.000000000000014"/>
      <point x="969.4" y="227.20000000000002" type="curve" smooth="yes"/>
      <point x="969.4" y="483.20000000000005"/>
      <point x="347.99999999999994" y="377.4"/>
      <point x="347.99999999999994" y="500.79999999999995" type="curve" smooth="yes"/>
      <point x="347.99999999999994" y="551.7999999999998"/>
      <point x="411.8" y="577.5999999999999"/>
      <point x="557.4" y="577.5999999999999" type="curve" smooth="yes"/>
      <point x="696.5999999999999" y="577.5999999999999"/>
      <point x="761.0" y="552.1999999999999"/>
      <point x="761.0" y="503.8" type="curve" smooth="yes"/>
      <point x="761.0" y="457.40000000000003"/>
      <point x="730.3999999999999" y="430.8"/>
      <point x="645.8" y="400.8" type="curve"/>
      <point x="797.8" y="361.8" type="line"/>
      <point x="885.0" y="390.4"/>
      <point x="948.0" y="446.8"/>
      <point x="948.0" y="532.8" type="curve" smooth="yes"/>
      <point x="948.0" y="644.0"/>
      <point x="831.4000000000001" y="710.0"/>
      <point x="569.6" y="710.0" type="curve" smooth="yes"/>
      <point x="342.0" y="710.0"/>
      <point x="153.0" y="661.5999999999999"/>
      <point x="153.0" y="480.20000000000005" type="curve" smooth="yes"/>
      <point x="153.0" y="204.00000000000003"/>
      <point x="745.6" y="328.80000000000007"/>
      <point x="745.6" y="197.79999999999998" type="curve" smooth="yes"/>
      <point x="745.6" y="128.8"/>
      <point x="644.0" y="112.6"/>
      <point x="504.99999999999994" y="112.6" type="curve" smooth="yes"/>
      <point x="332.59999999999997" y="112.6"/>
      <point x="266.4" y="145.0"/>
      <point x="266.4" y="202.99999999999997" type="curve" smooth="yes"/>
      <point x="266.4" y="256.00000000000006"/>
      <point x="306.59999999999997" y="291.0"/>
      <point x="401.40000000000003" y="311.6" type="curve"/>
      <point x="250.60000000000002" y="368.0" type="line"/>
      <point x="134.39999999999998" y="349.2"/>
      <point x="56.00000000000001" y="281.6000000000001"/>
      <point x="56.00000000000001" y="187.8" type="curve" smooth="yes"/>
      <point x="56.00000000000001" y="59.6"/>
      <point x="184.6" y="-10.0"/>
    </contour>
  </outline>
</glyph>
<glyph name="nine" format="2">
  <advance width="1045.2"/>
  <unicode hex="0039"/>
  <outline>
    <contour>
      <point x="569.4" y="710.0" type="curve" smooth="yes"/>
      <point x="262.59999999999997" y="710.0"/>
      <point x="108.0" y="623.8"/>
      <point x="108.0" y="451.8" type="curve" smooth="yes"/>
      <point x="108.0" y="327.2"/>
      <point x="221.8" y="252.39999999999998"/>
      <point x="445.0" y="252.39999999999998" type="curve" smooth="yes"/>
      <point x="565.0" y="252.39999999999998"/>
      <point x="700.8000000000001" y="273.4"/>
      <point x="796.8" y="317.00000000000006" type="curve"/>
      <point x="806.2" y="438.4" type="line"/>
      <point x="735.4" y="406.6"/>
      <point x="623.5999999999999" y="384.8"/>
      <point x="523.4" y="384.8" type="curve" smooth="yes"/>
      <point x="371.79999999999995" y="384.8"/>
      <point x="320.4" y="413.0"/>
      <point x="320.4" y="466.40000000000003" type="curve" smooth="yes"/>
      <point x="320.4" y="531.2"/>
      <point x="393.0" y="566.4000000000001"/>
      <point x="539.0" y="566.4000000000001" type="curve" smooth="yes"/>
      <point x="697.2" y="566.4000000000001"/>
      <point x="789.6" y="521.2"/>
      <point x="789.6" y="399.99999999999994" type="curve" smooth="yes"/>
      <point x="789.6" y="302.79999999999995"/>
      <point x="743.2" y="231.4"/>
      <point x="664.2" y="187.39999999999998" type="curve" smooth="yes"/>
      <point x="602.1999999999999" y="153.4"/>
      <point x="516.0" y="136.6"/>
      <point x="420.6" y="136.6" type="curve" smooth="yes"/>
      <point x="308.8" y="136.6"/>
      <point x="226.60000000000002" y="147.8"/>
      <point x="133.39999999999998" y="171.0" type="curve"/>
      <point x="82.0" y="32.20000000000001" type="line"/>
      <point x="160.60000000000002" y="7.8"/>
      <point x="280.00000000000006" y="-10.0"/>
      <point x="416.59999999999997" y="-10.0" type="curve" smooth="yes"/>
      <point x="749.0" y="-10.0"/>
      <point x="990.0" y="135.59999999999997"/>
      <point x="990.0" y="407.00000000000006" type="curve" smooth="yes"/>
      <point x="990.0" y="606.5999999999999"/>
      <point x="845.7999999999998" y="710.0"/>
    </contour>
  </outline>
</glyph>
<glyph name="less" format="2">
  <advance width="673.3000000000001"/>
  <unicode hex="003C"/>
  <outline>
    <contour>
      <point x="572.4" y="35.4" type="line"/>
      <point x="597.0999999999999" y="190.8" type="line"/>
      <point x="234.1" y="309.3" type="line"/>
      <point x="636.3" y="427.09999999999997" type="line"/>
      <point x="661.0" y="584.1999999999999" type="line"/>
      <point x="79.6" y="393.5" type="line"/>
      <point x="54.2" y="233.5" type="line"/>
    </contour>
  </outline>
</glyph>
<glyph name="equal" format="2">
  <advance width="673.6999999999999"/>
  <unicode hex="003D"/>
  <outline>
    <contour>
      <point x="610.6" y="265.6" type="line"/>
      <point x="60.8" y="265.6" type="line"/>
      <point x="36.099999999999994" y="116.70000000000002" type="line"/>
      <point x="585.9" y="116.70000000000002" type="line"/>
    </contour>
    <contour>
      <point x="648.9" y="503.5" type="line"/>
      <point x="98.39999999999999" y="503.5" type="line"/>
      <point x="74.39999999999999" y="354.6" type="line"/>
      <point x="624.1999999999999" y="354.6" type="line"/>
    </contour>
  </outline>
</glyph>
<glyph name="greater" format="2">
  <advance width="673.3000000000001"/>
  <unicode hex="003E"/>
  <outline>
    <contour>
      <point x="605.4" y="233.5" type="line"/>
      <point x="629.4" y="383.0" type="line"/>
      <point x="112.6" y="577.2" type="line"/>
      <point x="86.5" y="427.4" type="line"/>
      <point x="450.2" y="309.29999999999995" type="line"/>
      <point x="48.699999999999996" y="191.1" type="line"/>
      <point x="23.3" y="35.400000000000006" type="line"/>
    </contour>
  </outline>
</glyph>
<glyph name="question" format="2">
  <advance width="679.0999999999999"/>
  <unicode hex="003F"/>
  <outline>
    <contour>
      <point x="227.3" y="259.90000000000003" type="line"/>
      <point x="393.4" y="259.90000000000003" type="line"/>
      <point x="403.7" y="310.2" type="line"/>
      <point x="572.4" y="353.8"/>
      <point x="696.1" y="410.29999999999995"/>
      <point x="696.1" y="562.8" type="curve" smooth="yes"/>
      <point x="696.1" y="697.3000000000001"/>
      <point x="559.2" y="750.0"/>
      <point x="415.70000000000005" y="750.0" type="curve" smooth="yes"/>
      <point x="305.1" y="750.0"/>
      <point x="167.6" y="720.3"/>
      <point x="75.0" y="669.1" type="curve"/>
      <point x="97.4" y="529.8000000000001" type="line"/>
      <point x="188.70000000000002" y="570.8000000000001"/>
      <point x="278.2" y="594.7"/>
      <point x="369.29999999999995" y="594.7" type="curve" smooth="yes"/>
      <point x="435.90000000000003" y="594.7"/>
      <point x="489.29999999999995" y="584.8000000000001"/>
      <point x="489.29999999999995" y="528.2" type="curve" smooth="yes"/>
      <point x="489.29999999999995" y="478.2"/>
      <point x="457.90000000000003" y="446.4"/>
      <point x="246.0" y="407.70000000000005" type="curve"/>
    </contour>
    <contour>
      <point x="171.89999999999998" y="57.699999999999996" type="curve" smooth="yes"/>
      <point x="172.2" y="14.0"/>
      <point x="199.70000000000005" y="-7.0"/>
      <point x="269.6" y="-7.0" type="curve" smooth="yes"/>
      <point x="345.40000000000003" y="-7.0"/>
      <point x="396.4" y="18.5"/>
      <point x="395.5" y="98.5" type="curve" smooth="yes"/>
      <point x="395.2" y="142.2"/>
      <point x="367.40000000000003" y="163.2"/>
      <point x="298.5" y="163.2" type="curve" smooth="yes"/>
      <point x="219.5" y="163.2"/>
      <point x="171.0" y="134.79999999999998"/>
    </contour>
  </outline>
</glyph>
<glyph name="at" format="2">
  <advance width="1044.2"/>
  <unicode hex="0040"/>
  <outline>
    <contour>
      <point x="434.3999999999999" y="-121.4" type="curve" smooth="yes"/>
      <point x="516.8" y="-121.4"/>
      <point x="589.6" y="-108.19999999999999"/>
      <point x="671.2" y="-80.8" type="curve"/>
      <point x="660.8000000000001" y="0.3999999999999986" type="line"/>
      <point x="582.0" y="-22.6"/>
      <point x="504.6" y="-32.600000000000016"/>
      <point x="443.6" y="-32.600000000000016" type="curve" smooth="yes"/>
      <point x="252.0" y="-32.600000000000016"/>
      <point x="139.20000000000002" y="67.2"/>
      <point x="139.20000000000002" y="225.8" type="curve" smooth="yes"/>
      <point x="139.20000000000002" y="454.19999999999993"/>
      <point x="332.40000000000003" y="629.8000000000001"/>
      <point x="585.6" y="629.8000000000001" type="curve" smooth="yes"/>
      <point x="800.2000000000003" y="629.8000000000001"/>
      <point x="915.8000000000001" y="535.8"/>
      <point x="915.8000000000001" y="363.79999999999995" type="curve" smooth="yes"/>
      <point x="915.8000000000001" y="245.2"/>
      <point x="868.2000000000002" y="156.0"/>
      <point x="797.4" y="156.0" type="curve" smooth="yes"/>
      <point x="758.6" y="156.0"/>
      <point x="744.6" y="186.8"/>
      <point x="757.0000000000001" y="244.8" type="curve" smooth="yes"/>
      <point x="809.6000000000001" y="484.6" type="line"/>
      <point x="742.4" y="508.99999999999994"/>
      <point x="647.9999999999999" y="525.8"/>
      <point x="584.4000000000001" y="525.8" type="curve" smooth="yes"/>
      <point x="385.4" y="525.8"/>
      <point x="243.2" y="400.2"/>
      <point x="243.2" y="238.00000000000003" type="curve" smooth="yes"/>
      <point x="243.2" y="124.79999999999998"/>
      <point x="307.4" y="67.39999999999999"/>
      <point x="416.19999999999993" y="67.39999999999999" type="curve" smooth="yes"/>
      <point x="500.79999999999995" y="67.39999999999999"/>
      <point x="579.4" y="111.79999999999998"/>
      <point x="621.0" y="167.2" type="curve"/>
      <point x="631.8" y="91.39999999999999"/>
      <point x="693.0" y="58.2"/>
      <point x="765.4000000000001" y="58.2" type="curve" smooth="yes"/>
      <point x="923.1999999999999" y="58.2"/>
      <point x="1014.2" y="193.60000000000002"/>
      <point x="1014.2" y="369.00000000000006" type="curve" smooth="yes"/>
      <point x="1014.2" y="584.5999999999999"/>
      <point x="858.5999999999999" y="717.1999999999999"/>
      <point x="605.8" y="717.1999999999999" type="curve" smooth="yes"/>
      <point x="277.2" y="717.1999999999999"/>
      <point x="39.0" y="507.3999999999999"/>
      <point x="39.0" y="218.40000000000003" type="curve" smooth="yes"/>
      <point x="39.0" y="10.599999999999994"/>
      <point x="193.20000000000002" y="-121.4"/>
    </contour>
    <contour>
      <point x="489.8" y="183.8" type="curve" smooth="yes"/>
      <point x="432.8" y="183.8"/>
      <point x="404.2" y="213.2"/>
      <point x="404.2" y="265.79999999999995" type="curve" smooth="yes"/>
      <point x="404.2" y="351.20000000000005"/>
      <point x="469.19999999999993" y="413.4"/>
      <point x="555.8" y="413.4" type="curve" smooth="yes"/>
      <point x="594.6000000000001" y="413.4"/>
      <point x="617.5999999999999" y="409.80000000000007"/>
      <point x="647.2" y="399.0" type="curve"/>
      <point x="615.4" y="262.8" type="line" smooth="yes"/>
      <point x="594.4000000000001" y="217.8"/>
      <point x="541.6" y="183.8"/>
    </contour>
  </outline>
</glyph>
<glyph name="A" format="2">
  <advance width="995.0999999999999"/>
  <unicode hex="0041"/>
  <anchor x="454.144" y="0.0" name="bottom"/>
  <anchor x="945.5" y="0.0" name="ogonek"/>
  <anchor x="569.9000000000001" y="700.0" name="top"/>
  <outline>
    <contour>
      <point x="-38.400000000000006" y="0.0" type="line"/>
      <point x="204.0" y="0.0" type="line"/>
      <point x="289.8" y="137.3" type="line"/>
      <point x="661.6" y="137.3" type="line"/>
      <point x="706.2" y="0.0" type="line"/>
      <point x="945.5" y="0.0" type="line"/>
      <point x="677.1" y="710.0" type="line"/>
      <point x="457.8" y="710.0" type="line"/>
    </contour>
    <contour>
      <point x="371.0" y="276.0" type="line"/>
      <point x="542.7" y="536.7" type="line"/>
      <point x="628.4000000000001" y="276.0" type="line"/>
    </contour>
  </outline>
</glyph>
<glyph name="B" format="2">
  <advance width="1002.4000000000001"/>
  <unicode hex="0042"/>
  <outline>
    <contour>
      <point x="48.8" y="5.0" type="line"/>
      <point x="246.40000000000003" y="-5.200000000000001"/>
      <point x="344.40000000000003" y="-10.0"/>
      <point x="487.59999999999997" y="-10.0" type="curve" smooth="yes"/>
      <point x="687.4" y="-10.0"/>
      <point x="964.4" y="-7.200000000000003"/>
      <point x="964.4" y="231.4" type="curve" smooth="yes"/>
      <point x="964.4" y="313.0"/>
      <point x="901.8000000000001" y="372.6"/>
      <point x="799.2" y="384.79999999999995" type="curve"/>
      <point x="878.2" y="412.2"/>
      <point x="961.0" y="454.0"/>
      <point x="961.0" y="562.1999999999999" type="curve" smooth="yes"/>
      <point x="961.0" y="665.4"/>
      <point x="856.8000000000001" y="710.0"/>
      <point x="583.0" y="710.0" type="curve" smooth="yes"/>
      <point x="485.0" y="710.0"/>
      <point x="360.40000000000003" y="706.0"/>
      <point x="161.60000000000002" y="695.0" type="curve"/>
    </contour>
    <contour>
      <point x="332.2" y="417.2" type="line"/>
      <point x="353.0" y="552.4" type="line"/>
      <point x="434.2" y="556.5999999999999"/>
      <point x="473.6" y="560.0"/>
      <point x="546.2" y="560.0" type="curve" smooth="yes"/>
      <point x="690.0" y="560.0"/>
      <point x="737.9999999999999" y="542.8"/>
      <point x="737.9999999999999" y="494.0" type="curve" smooth="yes"/>
      <point x="737.9999999999999" y="430.6"/>
      <point x="653.6000000000001" y="417.2"/>
      <point x="608.2" y="417.2" type="curve" smooth="yes"/>
    </contour>
    <contour>
      <point x="310.0" y="291.19999999999993" type="line"/>
      <point x="582.8000000000001" y="291.19999999999993" type="line" smooth="yes"/>
      <point x="677.4000000000001" y="291.19999999999993"/>
      <point x="736.8" y="276.8"/>
      <point x="736.8" y="226.60000000000002" type="curve" smooth="yes"/>
      <point x="736.8" y="139.79999999999998"/>
      <point x="635.2" y="134.6"/>
      <point x="481.19999999999993" y="134.6" type="curve" smooth="yes"/>
      <point x="420.8" y="134.6"/>
      <point x="353.2" y="138.4"/>
      <point x="286.4" y="141.6" type="curve"/>
    </contour>
  </outline>
</glyph>
<glyph name="C" format="2">
  <advance width="993.8000000000001"/>
  <unicode hex="0043"/>
  <anchor x="528.2" y="0.0" name="bottom"/>
  <anchor x="621.4000000000001" y="700.0" name="top"/>
  <outline>
    <contour>
      <point x="569.4000000000001" y="-10.0" type="curve" smooth="yes"/>
      <point x="689.5999999999999" y="-10.0"/>
      <point x="797.1999999999999" y="4.2"/>
      <point x="915.2" y="32.2" type="curve"/>
      <point x="896.6" y="184.0" type="line"/>
      <point x="799.2" y="164.20000000000002"/>
      <point x="707.9999999999999" y="147.6"/>
      <point x="597.6" y="147.6" type="curve" smooth="yes"/>
      <point x="398.00000000000006" y="147.6"/>
      <point x="286.6" y="196.4"/>
      <point x="286.6" y="327.8" type="curve" smooth="yes"/>
      <point x="286.6" y="476.40000000000003"/>
      <point x="401.8" y="552.4000000000001"/>
      <point x="605.8000000000001" y="552.4000000000001" type="curve" smooth="yes"/>
      <point x="717.6" y="552.4000000000001"/>
      <point x="838.6" y="529.6"/>
      <point x="927.4" y="505.99999999999994" type="curve"/>
      <point x="972.2" y="655.6" type="line"/>
      <point x="842.0" y="697.9999999999999"/>
      <point x="719.2" y="710.0"/>
      <point x="589.2" y="710.0" type="curve" smooth="yes"/>
      <point x="259.0" y="710.0"/>
      <point x="62.2" y="564.0"/>
      <point x="62.2" y="308.20000000000005" type="curve" smooth="yes"/>
      <point x="62.2" y="85.80000000000001"/>
      <point x="234.2" y="-10.0"/>
    </contour>
  </outline>
</glyph>
<glyph name="D" format="2">
  <advance width="1079.6000000000001"/>
  <unicode hex="0044"/>
  <anchor x="482.2" y="0.0" name="bottom"/>
  <anchor x="544.5516" y="350.0" name="center"/>
  <anchor x="540.4" y="700.0" name="top"/>
  <outline>
    <contour>
      <point x="478.8" y="-10.0" type="curve" smooth="yes"/>
      <point x="826.0" y="-10.0"/>
      <point x="1039.3999999999999" y="113.8"/>
      <point x="1039.3999999999999" y="380.0" type="curve" smooth="yes"/>
      <point x="1039.3999999999999" y="616.1999999999999"/>
      <point x="859.8" y="710.0"/>
      <point x="536.8" y="710.0" type="curve" smooth="yes"/>
      <point x="423.20000000000005" y="710.0"/>
      <point x="302.59999999999997" y="707.0"/>
      <point x="161.60000000000002" y="700.0" type="curve"/>
      <point x="47.800000000000004" y="0.0" type="line"/>
      <point x="181.20000000000002" y="-7.2"/>
      <point x="293.0" y="-10.0"/>
    </contour>
    <contour>
      <point x="496.59999999999997" y="131.8" type="curve" smooth="yes"/>
      <point x="407.2" y="131.8"/>
      <point x="359.59999999999997" y="134.2"/>
      <point x="285.79999999999995" y="138.0" type="curve"/>
      <point x="354.4" y="563.3999999999999" type="line"/>
      <point x="398.59999999999997" y="567.0"/>
      <point x="465.8" y="569.2"/>
      <point x="547.0" y="569.2" type="curve" smooth="yes"/>
      <point x="701.0" y="569.2"/>
      <point x="817.8" y="514.1999999999999"/>
      <point x="817.8" y="369.2" type="curve" smooth="yes"/>
      <point x="817.8" y="209.60000000000002"/>
      <point x="692.8" y="131.8"/>
    </contour>
  </outline>
</glyph>
<glyph name="E" format="2">
  <advance width="948.2"/>
  <unicode hex="0045"/>
  <anchor x="452.8" y="0.0" name="bottom"/>
  <anchor x="857.8000000000001" y="0.0" name="ogonek"/>
  <anchor x="547.9999999999999" y="700.0" name="top"/>
  <anchor x="96.12519999999999" y="700.0" name="topleft"/>
  <outline>
    <contour>
      <point x="47.8" y="0.0" type="line"/>
      <point x="857.8000000000001" y="0.0" type="line"/>
      <point x="884.0" y="157.0" type="line"/>
      <point x="283.6" y="157.0" type="line"/>
      <point x="304.0" y="286.2" type="line"/>
      <point x="846.8" y="286.2" type="line"/>
      <point x="870.8" y="430.8" type="line"/>
      <point x="327.4" y="430.8" type="line"/>
      <point x="345.40000000000003" y="543.0000000000001" type="line"/>
      <point x="918.4" y="543.0000000000001" type="line"/>
      <point x="944.6" y="700.0" type="line"/>
      <point x="161.60000000000002" y="700.0" type="line"/>
    </contour>
  </outline>
</glyph>
<glyph name="F" format="2">
  <advance width="900.1999999999999"/>
  <unicode hex="0046"/>
  <outline>
    <contour>
      <point x="47.8" y="0.0" type="line"/>
      <point x="263.2" y="0.0" type="line"/>
      <point x="297.8" y="211.40000000000003" type="line"/>
      <point x="791.3999999999999" y="211.40000000000003" type="line"/>
      <point x="816.8" y="370.4" type="line"/>
      <point x="323.8" y="370.4" type="line"/>
      <point x="349.59999999999997" y="537.0000000000001" type="line"/>
      <point x="911.2" y="537.0000000000001" type="line"/>
      <point x="938.5999999999999" y="700.0" type="line"/>
      <point x="161.60000000000002" y="700.0" type="line"/>
    </contour>
  </outline>
</glyph>
<glyph name="G" format="2">
  <advance width="1023.3"/>
  <unicode hex="0047"/>
  <anchor x="510.6" y="0.0" name="bottom"/>
  <anchor x="624.6999999999999" y="700.0" name="top"/>
  <outline>
    <contour>
      <point x="517.0" y="-10.0" type="curve" smooth="yes"/>
      <point x="705.0" y="-10.0"/>
      <point x="833.2" y="23.2"/>
      <point x="920.5999999999999" y="56.199999999999996" type="curve"/>
      <point x="976.3000000000001" y="392.3" type="line"/>
      <point x="572.6" y="392.3" type="line"/>
      <point x="550.7" y="257.8" type="line"/>
      <point x="765.3000000000001" y="257.8" type="line"/>
      <point x="750.3000000000001" y="163.7" type="line"/>
      <point x="707.7" y="146.5"/>
      <point x="644.5" y="133.6"/>
      <point x="563.0" y="133.6" type="curve" smooth="yes"/>
      <point x="388.8" y="133.6"/>
      <point x="281.5" y="192.5"/>
      <point x="281.5" y="319.8" type="curve" smooth="yes"/>
      <point x="281.5" y="478.59999999999997"/>
      <point x="408.20000000000005" y="554.5"/>
      <point x="627.1" y="554.5" type="curve" smooth="yes"/>
      <point x="740.9" y="554.5"/>
      <point x="828.1" y="541.5"/>
      <point x="925.0" y="519.0" type="curve"/>
      <point x="987.7" y="666.9000000000001" type="line"/>
      <point x="870.5" y="697.9"/>
      <point x="755.3" y="710.0"/>
      <point x="617.8" y="710.0" type="curve" smooth="yes"/>
      <point x="260.8" y="710.0"/>
      <point x="61.6" y="571.6999999999999"/>
      <point x="61.6" y="301.5" type="curve" smooth="yes"/>
      <point x="61.6" y="97.5"/>
      <point x="236.5" y="-10.0"/>
    </contour>
  </outline>
</glyph>
<glyph name="H" format="2">
  <advance width="1088.1000000000001"/>
  <unicode hex="0048"/>
  <anchor x="500.6439999999999" y="0.0" name="bottom"/>
  <anchor x="556.079" y="350.0" name="center"/>
  <anchor x="611.513" y="700.0" name="top"/>
  <anchor x="87.313" y="700.0" name="topleft"/>
  <outline>
    <contour>
      <point x="47.5" y="0.0" type="line"/>
      <point x="263.2" y="0.0" type="line"/>
      <point x="300.8" y="237.79999999999998" type="line"/>
      <point x="779.4" y="237.79999999999998" type="line"/>
      <point x="740.4" y="0.0" type="line"/>
      <point x="949.8000000000001" y="0.0" type="line"/>
      <point x="1063.6000000000001" y="700.0" type="line"/>
      <point x="854.9000000000001" y="700.0" type="line"/>
      <point x="806.2" y="405.20000000000005" type="line"/>
      <point x="327.59999999999997" y="405.20000000000005" type="line"/>
      <point x="377.0" y="700.0" type="line"/>
      <point x="161.3" y="700.0" type="line"/>
    </contour>
  </outline>
</glyph>
<glyph name="I" format="2">
  <advance width="401.5"/>
  <unicode hex="0049"/>
  <anchor x="157.0332" y="0.0" name="bottom"/>
  <anchor x="263.2" y="0.0" name="ogonek"/>
  <anchor x="267.9939" y="700.0" name="top"/>
  <anchor x="96.0" y="700.0" name="topleft"/>
  <outline>
    <contour>
      <point x="47.5" y="0.0" type="line"/>
      <point x="263.2" y="0.0" type="line"/>
      <point x="377.0" y="700.0" type="line"/>
      <point x="161.3" y="700.0" type="line"/>
    </contour>
  </outline>
</glyph>
<glyph name="J" format="2">
  <advance width="824.0"/>
  <unicode hex="004A"/>
  <anchor x="364.79999999999995" y="0.0" name="bottom"/>
  <anchor x="482.79999999999995" y="700.0" name="top"/>
  <outline>
    <contour>
      <point x="-14.1" y="38.9" type="line"/>
      <point x="98.6" y="7.799999999999997"/>
      <point x="218.1" y="-10.0"/>
      <point x="343.40000000000003" y="-10.0" type="curve" smooth="yes"/>
      <point x="584.3" y="-10.0"/>
      <point x="708.0" y="83.30000000000001"/>
      <point x="744.1" y="296.7" type="curve" smooth="yes"/>
      <point x="811.1" y="700.0" type="line"/>
      <point x="160.5" y="700.0" type="line"/>
      <point x="132.3" y="531.1999999999999" type="line"/>
      <point x="567.1999999999999" y="531.1999999999999" type="line"/>
      <point x="533.6999999999999" y="319.8" type="line" smooth="yes"/>
      <point x="514.9000000000001" y="199.5"/>
      <point x="440.5" y="152.5"/>
      <point x="324.7" y="152.5" type="curve" smooth="yes"/>
      <point x="233.5" y="152.5"/>
      <point x="148.3" y="172.70000000000002"/>
      <point x="42.0" y="199.60000000000002" type="curve"/>
    </contour>
  </outline>
</glyph>
<glyph name="K" format="2">
  <advance width="999.1999999999998"/>
  <unicode hex="004B"/>
  <anchor x="472.20000000000005" y="0.0" name="bottom"/>
  <anchor x="569.6" y="700.0" name="top"/>
  <outline>
    <contour>
      <point x="47.80000000000001" y="0.0" type="line"/>
      <point x="263.20000000000005" y="0.0" type="line"/>
      <point x="376.99999999999994" y="700.0" type="line"/>
      <point x="163.0" y="700.0" type="line"/>
    </contour>
    <contour>
      <point x="882.8" y="-10.0" type="curve" smooth="yes"/>
      <point x="891.4" y="-10.0"/>
      <point x="921.1999999999999" y="-8.6"/>
      <point x="930.4" y="-6.2" type="curve"/>
      <point x="956.5999999999999" y="162.99999999999997" type="line"/>
      <point x="947.0" y="162.60000000000002"/>
      <point x="938.4000000000001" y="162.60000000000002"/>
      <point x="930.2" y="162.60000000000002" type="curve" smooth="yes"/>
      <point x="869.0" y="162.60000000000002"/>
      <point x="818.3999999999999" y="181.79999999999998"/>
      <point x="729.2" y="231.0" type="curve" smooth="yes"/>
      <point x="302.79999999999995" y="466.0" type="line"/>
      <point x="277.6" y="289.99999999999994" type="line"/>
      <point x="616.2" y="82.4" type="line" smooth="yes"/>
      <point x="718.6" y="19.400000000000006"/>
      <point x="809.9999999999999" y="-10.0"/>
    </contour>
    <contour>
      <point x="514.8" y="305.40000000000003" type="line"/>
      <point x="691.2" y="354.0"/>
      <point x="895.4" y="468.79999999999995"/>
      <point x="1009.5999999999999" y="595.8" type="curve"/>
      <point x="876.1999999999999" y="716.6" type="line"/>
      <point x="726.0" y="565.1999999999999"/>
      <point x="528.1999999999999" y="453.3999999999999"/>
      <point x="371.4" y="389.59999999999997" type="curve"/>
    </contour>
  </outline>
</glyph>
<glyph name="L" format="2">
  <advance width="874.6999999999999"/>
  <unicode hex="004C"/>
  <anchor x="424.1" y="0.0" name="bottom"/>
  <anchor x="449.379" y="350.0" name="center"/>
  <anchor x="269.0" y="700.0" name="top"/>
  <anchor x="592.5" y="700.0" name="topright"/>
  <outline>
    <contour>
      <point x="47.5" y="0.0" type="line"/>
      <point x="800.4" y="0.0" type="line"/>
      <point x="829.3" y="163.2" type="line"/>
      <point x="290.7" y="163.2" type="line"/>
      <point x="377.0" y="700.0" type="line"/>
      <point x="161.3" y="700.0" type="line"/>
    </contour>
  </outline>
</glyph>
<glyph name="M" format="2">
  <advance width="1192.3"/>
  <unicode hex="004D"/>
  <outline>
    <contour>
      <point x="47.5" y="0.0" type="line"/>
      <point x="250.5" y="0.0" type="line"/>
      <point x="321.1" y="453.40000000000003" type="line"/>
      <point x="527.8" y="150.90000000000003" type="line"/>
      <point x="621.2" y="150.90000000000003" type="line"/>
      <point x="929.9000000000001" y="462.9" type="line"/>
      <point x="854.4000000000001" y="0.0" type="line"/>
      <point x="1054.0" y="0.0" type="line"/>
      <point x="1167.8" y="700.0" type="line"/>
      <point x="946.9" y="700.0" type="line"/>
      <point x="599.3" y="332.20000000000005" type="line"/>
      <point x="369.0" y="700.0" type="line"/>
      <point x="161.3" y="700.0" type="line"/>
    </contour>
  </outline>
</glyph>
<glyph name="N" format="2">
  <advance width="1036.2"/>
  <unicode hex="004E"/>
  <anchor x="471.61080000000004" y="0.0" name="bottom"/>
  <anchor x="586.4191000000001" y="700.0" name="top"/>
  <outline>
    <contour>
      <point x="47.5" y="0.0" type="line"/>
      <point x="243.2" y="0.0" type="line"/>
      <point x="314.1" y="440.40000000000003" type="line"/>
      <point x="711.3" y="-3.0" type="line"/>
      <point x="896.6" y="-3.0" type="line"/>
      <point x="1011.7" y="700.0" type="line"/>
      <point x="816.0" y="700.0" type="line"/>
      <point x="742.3" y="245.3" type="line"/>
      <point x="347.9" y="703.0" type="line"/>
      <point x="162.6" y="703.0" type="line"/>
    </contour>
  </outline>
</glyph>
<glyph name="O" format="2">
  <advance width="1100.9999999999998"/>
  <unicode hex="004F"/>
  <note>
8
</note>
  <anchor x="506.20000000000005" y="0.0" name="bottom"/>
  <anchor x="562.2" y="350.0" name="center"/>
  <anchor x="631.0" y="-1.0" name="ogonek"/>
  <anchor x="605.6" y="700.0" name="top"/>
  <anchor x="87.39999999999999" y="700.0" name="topleft"/>
  <anchor x="919.2" y="676.8000000000001" name="topright"/>
  <outline>
    <contour>
      <point x="542.4" y="-10.0" type="curve" smooth="yes"/>
      <point x="872.9999999999999" y="-10.0"/>
      <point x="1061.6" y="131.8"/>
      <point x="1061.6" y="391.0" type="curve" smooth="yes"/>
      <point x="1061.6" y="599.4000000000001"/>
      <point x="911.4" y="710.6"/>
      <point x="581.6" y="710.6" type="curve" smooth="yes"/>
      <point x="251.0" y="710.6"/>
      <point x="62.39999999999999" y="568.8000000000001"/>
      <point x="62.39999999999999" y="309.59999999999997" type="curve" smooth="yes"/>
      <point x="62.39999999999999" y="101.19999999999999"/>
      <point x="212.60000000000002" y="-10.0"/>
    </contour>
    <contour>
      <point x="552.1999999999999" y="133.2" type="curve" smooth="yes"/>
      <point x="363.6" y="133.2"/>
      <point x="280.6" y="198.4"/>
      <point x="280.6" y="324.4" type="curve" smooth="yes"/>
      <point x="280.6" y="479.6"/>
      <point x="388.2" y="567.4"/>
      <point x="571.8" y="567.4" type="curve" smooth="yes"/>
      <point x="760.4000000000001" y="567.4"/>
      <point x="843.4" y="502.20000000000005"/>
      <point x="843.4" y="376.2" type="curve" smooth="yes"/>
      <point x="843.4" y="220.99999999999994"/>
      <point x="735.8" y="133.2"/>
    </contour>
  </outline>
</glyph>
<glyph name="P" format="2">
  <advance width="1035.9"/>
  <unicode hex="0050"/>
  <outline>
    <contour>
      <point x="47.5" y="0.0" type="line"/>
      <point x="262.5" y="0.0" type="line"/>
      <point x="294.79999999999995" y="191.9" type="line"/>
      <point x="401.4" y="187.9"/>
      <point x="446.4" y="186.60000000000002"/>
      <point x="510.8" y="186.60000000000002" type="curve" smooth="yes"/>
      <point x="898.9" y="186.60000000000002"/>
      <point x="1030.2" y="262.6"/>
      <point x="1030.8" y="476.9" type="curve" smooth="yes"/>
      <point x="1031.1000000000001" y="655.1"/>
      <point x="901.0" y="710.0"/>
      <point x="568.8" y="710.0" type="curve" smooth="yes"/>
      <point x="510.99999999999994" y="710.0"/>
      <point x="395.7" y="707.3"/>
      <point x="162.0" y="700.0" type="curve"/>
    </contour>
    <contour>
      <point x="353.7" y="555.0" type="line"/>
      <point x="477.0" y="559.9"/>
      <point x="510.5" y="560.8"/>
      <point x="582.6" y="560.8" type="curve" smooth="yes"/>
      <point x="751.5" y="560.8"/>
      <point x="806.7" y="535.1"/>
      <point x="806.7" y="464.20000000000005" type="curve" smooth="yes"/>
      <point x="806.7" y="374.0"/>
      <point x="748.7" y="338.6"/>
      <point x="502.5" y="338.6" type="curve" smooth="yes"/>
      <point x="446.09999999999997" y="338.6"/>
      <point x="407.0" y="340.2"/>
      <point x="320.2" y="343.9" type="curve"/>
    </contour>
  </outline>
</glyph>
<glyph name="Q" format="2">
  <advance width="1098.6000000000001"/>
  <unicode hex="0051"/>
  <note>
14
</note>
  <outline>
    <contour>
      <point x="788.6999999999999" y="-214.39999999999998" type="curve" smooth="yes"/>
      <point x="839.4000000000001" y="-214.39999999999998"/>
      <point x="887.1" y="-204.7"/>
      <point x="937.5" y="-186.4" type="curve"/>
      <point x="935.1" y="-36.400000000000006" type="line"/>
      <point x="910.6" y="-48.300000000000004"/>
      <point x="885.2" y="-53.300000000000004"/>
      <point x="855.6" y="-53.300000000000004" type="curve" smooth="yes"/>
      <point x="796.5" y="-53.300000000000004"/>
      <point x="735.4" y="-18.800000000000004"/>
      <point x="707.8000000000001" y="33.5" type="curve"/>
      <point x="508.6" y="4.3999999999999995" type="line"/>
      <point x="558.8" y="-142.4"/>
      <point x="658.3" y="-214.39999999999998"/>
    </contour>
    <component base="O"/>
  </outline>
</glyph>
<glyph name="R" format="2">
  <advance width="1071.8"/>
  <unicode hex="0052"/>
  <anchor x="518.5999999999999" y="0.0" name="bottom"/>
  <anchor x="561.1999999999999" y="700.0" name="top"/>
  <outline>
    <contour>
      <point x="47.8" y="0.0" type="line"/>
      <point x="263.8" y="0.0" type="line"/>
      <point x="301.6" y="232.00000000000003" type="line"/>
      <point x="403.0" y="229.80000000000004"/>
      <point x="498.59999999999997" y="228.8"/>
      <point x="607.8" y="228.4" type="curve"/>
      <point x="686.6" y="254.4" type="line"/>
      <point x="892.6" y="255.0"/>
      <point x="1017.2" y="350.6"/>
      <point x="1017.2" y="502.79999999999995" type="curve" smooth="yes"/>
      <point x="1017.2" y="640.0000000000001"/>
      <point x="906.4000000000001" y="710.0"/>
      <point x="576.6" y="710.0" type="curve" smooth="yes"/>
      <point x="499.2" y="710.0"/>
      <point x="363.6" y="707.5999999999999"/>
      <point x="161.6" y="700.6" type="curve"/>
    </contour>
    <contour>
      <point x="957.8000000000001" y="-10.0" type="curve" smooth="yes"/>
      <point x="966.4000000000001" y="-10.0"/>
      <point x="993.4" y="-9.600000000000001"/>
      <point x="1001.1999999999999" y="-8.600000000000001" type="curve"/>
      <point x="1027.2" y="159.79999999999998" type="line"/>
      <point x="1020.8" y="158.8"/>
      <point x="1006.8000000000001" y="158.8"/>
      <point x="999.6" y="158.8" type="curve" smooth="yes"/>
      <point x="925.2" y="158.79999999999995"/>
      <point x="804.8" y="228.2"/>
      <point x="710.0" y="296.2" type="curve"/>
      <point x="474.20000000000005" y="247.59999999999997" type="line"/>
      <point x="648.6" y="125.2"/>
      <point x="794.1999999999999" y="-10.0"/>
    </contour>
    <contour>
      <point x="584.0" y="364.2" type="curve" smooth="yes"/>
      <point x="477.20000000000005" y="364.2"/>
      <point x="399.6" y="366.6"/>
      <point x="324.2" y="371.20000000000005" type="curve"/>
      <point x="354.0" y="564.0" type="line"/>
      <point x="459.4" y="568.6"/>
      <point x="480.79999999999995" y="569.1999999999999"/>
      <point x="567.6000000000001" y="569.1999999999999" type="curve" smooth="yes"/>
      <point x="743.0" y="569.1999999999999"/>
      <point x="789.6" y="542.6"/>
      <point x="789.6" y="477.99999999999994" type="curve" smooth="yes"/>
      <point x="789.6" y="396.59999999999997"/>
      <point x="711.0" y="364.2"/>
    </contour>
  </outline>
</glyph>
<glyph name="S" format="2">
  <advance width="959.0"/>
  <unicode hex="0053"/>
  <anchor x="471.0" y="0.0" name="bottom"/>
  <anchor x="544.4000000000001" y="700.0" name="top"/>
  <outline>
    <contour>
      <point x="924.8" y="662.4000000000001" type="line"/>
      <point x="800.8" y="695.0"/>
      <point x="691.4" y="710.0"/>
      <point x="565.6" y="710.0" type="curve" smooth="yes"/>
      <point x="227.60000000000002" y="710.0"/>
      <point x="83.4" y="626.4"/>
      <point x="83.4" y="473.20000000000005" type="curve" smooth="yes"/>
      <point x="83.4" y="187.00000000000003"/>
      <point x="678.1999999999999" y="316.40000000000003"/>
      <point x="678.1999999999999" y="201.8" type="curve" smooth="yes"/>
      <point x="678.1999999999999" y="161.0"/>
      <point x="622.6" y="132.79999999999998"/>
      <point x="492.8" y="132.79999999999998" type="curve" smooth="yes"/>
      <point x="335.6" y="132.79999999999998"/>
      <point x="180.79999999999998" y="161.79999999999998"/>
      <point x="46.4" y="203.99999999999997" type="curve"/>
      <point x="-12.599999999999998" y="56.60000000000001" type="line"/>
      <point x="118.8" y="18.200000000000003"/>
      <point x="276.2" y="-10.0"/>
      <point x="443.2" y="-10.0" type="curve" smooth="yes"/>
      <point x="789.2" y="-10.0"/>
      <point x="918.4000000000001" y="80.60000000000001"/>
      <point x="918.4000000000001" y="235.8" type="curve" smooth="yes"/>
      <point x="918.4000000000001" y="503.0"/>
      <point x="320.59999999999997" y="385.8"/>
      <point x="320.59999999999997" y="496.8" type="curve" smooth="yes"/>
      <point x="320.59999999999997" y="544.8000000000001"/>
      <point x="378.59999999999997" y="564.6"/>
      <point x="514.9999999999999" y="564.6" type="curve" smooth="yes"/>
      <point x="650.5999999999999" y="564.6"/>
      <point x="767.8" y="549.4"/>
      <point x="870.8000000000001" y="517.4" type="curve"/>
    </contour>
  </outline>
</glyph>
<glyph name="T" format="2">
  <advance width="935.0"/>
  <unicode hex="0054"/>
  <anchor x="423.5" y="0.0" name="bottom"/>
  <anchor x="479.46369999999996" y="350.0" name="center"/>
  <anchor x="534.5939" y="700.0" name="top"/>
  <outline>
    <contour>
      <point x="954.5999999999999" y="547.3" type="line"/>
      <point x="982.8000000000001" y="700.0" type="line"/>
      <point x="91.1" y="700.0" type="line"/>
      <point x="62.2" y="547.3" type="line"/>
      <point x="401.4" y="547.3" type="line"/>
      <point x="315.1" y="0.0" type="line"/>
      <point x="530.8" y="0.0" type="line"/>
      <point x="616.4" y="547.3" type="line"/>
    </contour>
  </outline>
</glyph>
<glyph name="U" format="2">
  <advance width="1064.8"/>
  <unicode hex="0055"/>
  <anchor x="489.21079999999995" y="0.0" name="bottom"/>
  <anchor x="610.1999999999999" y="0.0" name="ogonek"/>
  <anchor x="598.9191" y="700.0" name="top"/>
  <anchor x="1050.5" y="700.0" name="topright"/>
  <outline>
    <contour>
      <point x="484.8" y="-10.0" type="curve" smooth="yes"/>
      <point x="789.7" y="-10.0"/>
      <point x="952.1" y="87.3"/>
      <point x="985.2" y="289.0" type="curve" smooth="yes"/>
      <point x="1051.8999999999999" y="700.0" type="line"/>
      <point x="841.1" y="700.0" type="line"/>
      <point x="777.6" y="311.4" type="line" smooth="yes"/>
      <point x="760.5" y="202.89999999999998"/>
      <point x="670.6" y="147.6"/>
      <point x="512.3" y="147.6" type="curve" smooth="yes"/>
      <point x="356.79999999999995" y="147.6"/>
      <point x="278.3" y="205.39999999999998"/>
      <point x="295.79999999999995" y="312.3" type="curve" smooth="yes"/>
      <point x="360.1" y="700.0" type="line"/>
      <point x="149.3" y="700.0" type="line"/>
      <point x="82.9" y="292.0" type="line" smooth="yes"/>
      <point x="78.9" y="263.0"/>
      <point x="77.9" y="247.6"/>
      <point x="77.9" y="233.20000000000002" type="curve" smooth="yes"/>
      <point x="77.9" y="70.69999999999999"/>
      <point x="213.29999999999998" y="-10.0"/>
    </contour>
  </outline>
</glyph>
<glyph name="V" format="2">
  <advance width="924.4"/>
  <unicode hex="0056"/>
  <outline>
    <contour>
      <point x="521.9999999999999" y="0.0" type="line"/>
      <point x="885.0" y="475.2"/>
      <point x="960.8000000000001" y="597.0"/>
      <point x="977.5999999999999" y="677.6" type="curve" smooth="yes"/>
      <point x="979.0" y="685.6"/>
      <point x="979.4000000000001" y="693.1999999999999"/>
      <point x="979.8" y="700.0" type="curve"/>
      <point x="740.2" y="700.0" type="line"/>
      <point x="740.8" y="695.1999999999999"/>
      <point x="741.8" y="689.9999999999999"/>
      <point x="741.8" y="679.4" type="curve" smooth="yes"/>
      <point x="741.8" y="574.4000000000001"/>
      <point x="634.6" y="417.4"/>
      <point x="446.6" y="176.59999999999997" type="curve"/>
      <point x="296.0" y="703.5999999999999" type="line"/>
      <point x="66.2" y="700.6" type="line"/>
      <point x="307.40000000000003" y="0.0" type="line"/>
    </contour>
  </outline>
</glyph>
<glyph name="W" format="2">
  <advance width="1220.3999999999999"/>
  <unicode hex="0057"/>
  <anchor x="556.2" y="0.0" name="bottom"/>
  <anchor x="680.2" y="700.0" name="top"/>
  <outline>
    <contour>
      <point x="949.8000000000001" y="0.0" type="line"/>
      <point x="1173.3999999999999" y="342.59999999999997"/>
      <point x="1266.3999999999999" y="594.2000000000002"/>
      <point x="1266.4" y="682.4000000000001" type="curve" smooth="yes"/>
      <point x="1266.4" y="688.5999999999999"/>
      <point x="1265.4" y="697.4"/>
      <point x="1264.7999999999997" y="700.0" type="curve"/>
      <point x="1065.2" y="700.0" type="line"/>
      <point x="1064.8" y="692.8"/>
      <point x="1064.4" y="685.1999999999999"/>
      <point x="1063.4" y="676.1999999999999" type="curve" smooth="yes"/>
      <point x="1051.8" y="554.8000000000001"/>
      <point x="997.8" y="414.19999999999993"/>
      <point x="849.8" y="164.0" type="curve"/>
      <point x="801.7999999999998" y="659.6000000000001" type="line"/>
      <point x="553.1999999999999" y="659.6000000000001" type="line"/>
      <point x="490.59999999999997" y="495.8"/>
      <point x="421.4" y="344.59999999999997"/>
      <point x="335.8" y="164.39999999999995" type="curve"/>
      <point x="284.59999999999997" y="700.0" type="line"/>
      <point x="69.39999999999999" y="700.0" type="line"/>
      <point x="180.60000000000002" y="0.0" type="line"/>
      <point x="403.2" y="0.0" type="line"/>
      <point x="488.20000000000005" y="146.60000000000002"/>
      <point x="576.8000000000001" y="297.4"/>
      <point x="649.2" y="451.4000000000001" type="curve"/>
      <point x="706.6000000000001" y="0.0" type="line"/>
    </contour>
  </outline>
</glyph>
<glyph name="X" format="2">
  <advance width="922.6"/>
  <unicode hex="0058"/>
  <outline>
    <contour>
      <point x="613.0" y="-2.4" type="line"/>
      <point x="873.0" y="1.8000000000000007" type="line"/>
      <point x="615.5999999999999" y="348.2" type="line"/>
      <point x="786.3999999999999" y="481.79999999999995"/>
      <point x="913.0" y="582.9999999999999"/>
      <point x="953.3999999999999" y="700.6" type="curve"/>
      <point x="697.6" y="703.0" type="line"/>
      <point x="674.6" y="606.6"/>
      <point x="605.5999999999999" y="545.8000000000001"/>
      <point x="495.00000000000006" y="449.5999999999999" type="curve"/>
      <point x="346.6" y="702.4" type="line"/>
      <point x="92.6" y="698.2" type="line"/>
      <point x="329.6" y="371.8" type="line"/>
      <point x="158.0" y="242.6"/>
      <point x="20.400000000000006" y="110.80000000000004"/>
      <point x="-7.799999999999995" y="0.0" type="curve"/>
      <point x="242.79999999999998" y="0.0" type="line"/>
      <point x="262.79999999999995" y="91.60000000000001"/>
      <point x="342.8" y="178.2"/>
      <point x="448.6" y="268.8" type="curve"/>
    </contour>
  </outline>
</glyph>
<glyph name="Y" format="2">
  <advance width="896.0"/>
  <unicode hex="0059"/>
  <anchor x="399.6" y="0.0" name="bottom"/>
  <anchor x="521.4000000000001" y="700.0" name="top"/>
  <anchor x="76.0" y="700.0" name="topleft"/>
  <outline>
    <contour>
      <point x="310.8" y="0.0" type="line"/>
      <point x="523.4" y="0.0" type="line"/>
      <point x="565.6" y="248.20000000000002" type="line"/>
      <point x="850.8" y="516.8"/>
      <point x="916.8000000000001" y="588.1999999999999"/>
      <point x="946.0" y="668.0" type="curve" smooth="yes"/>
      <point x="950.2" y="678.1999999999999"/>
      <point x="953.4" y="688.8"/>
      <point x="956.6" y="700.0" type="curve"/>
      <point x="725.4" y="703.0" type="line"/>
      <point x="722.5999999999999" y="691.1999999999999"/>
      <point x="719.4" y="681.3999999999999"/>
      <point x="715.6" y="671.0" type="curve" smooth="yes"/>
      <point x="683.2" y="576.1999999999999"/>
      <point x="638.4000000000001" y="532.2"/>
      <point x="475.8" y="378.59999999999997" type="curve"/>
      <point x="295.4" y="703.0" type="line"/>
      <point x="61.0" y="699.3999999999999" type="line"/>
      <point x="351.0" y="248.20000000000002" type="line"/>
    </contour>
  </outline>
</glyph>
<glyph name="Z" format="2">
  <advance width="935.8000000000001"/>
  <unicode hex="005A"/>
  <anchor x="426.8" y="0.0" name="bottom"/>
  <anchor x="478.59999999999997" y="350.0" name="center"/>
  <anchor x="526.6" y="700.0" name="top"/>
  <outline>
    <contour>
      <point x="-7.199999999999998" y="0.0" type="line"/>
      <point x="858.6" y="0.0" type="line"/>
      <point x="882.6" y="147.39999999999998" type="line"/>
      <point x="328.2" y="147.39999999999998" type="line"/>
      <point x="914.3999999999999" y="567.4" type="line"/>
      <point x="936.0" y="700.0" type="line"/>
      <point x="144.79999999999998" y="700.0" type="line"/>
      <point x="120.8" y="552.6000000000001" type="line"/>
      <point x="614.0" y="552.6000000000001" type="line"/>
      <point x="14.399999999999999" y="132.2" type="line"/>
    </contour>
  </outline>
</glyph>
<glyph name="bracketleft" format="2">
  <advance width="488.0"/>
  <unicode hex="005B"/>
  <outline>
    <contour>
      <point x="200.0" y="-94.0" type="line"/>
      <point x="314.2" y="624.3" type="line"/>
      <point x="510.49999999999994" y="624.3" type="line"/>
      <point x="528.9000000000001" y="740.0" type="line"/>
      <point x="182.0" y="740.0" type="line"/>
      <point x="31.70000000000001" y="-210.0" type="line"/>
      <point x="377.90000000000003" y="-210.0" type="line"/>
      <point x="396.29999999999995" y="-94.0" type="line"/>
    </contour>
  </outline>
</glyph>
<glyph name="backslash" format="2">
  <advance width="500.8"/>
  <unicode hex="005C"/>
  <outline>
    <contour>
      <point x="222.7" y="740.0" type="line"/>
      <point x="80.2" y="740.0" type="line"/>
      <point x="301.6" y="-210.0" type="line"/>
      <point x="444.09999999999997" y="-210.0" type="line"/>
    </contour>
  </outline>
</glyph>
<glyph name="bracketright" format="2">
  <advance width="488.0"/>
  <unicode hex="005D"/>
  <outline>
    <contour>
      <point x="-25.200000000000003" y="-94.0" type="line"/>
      <point x="-42.9" y="-210.0" type="line"/>
      <point x="303.0" y="-210.0" type="line"/>
      <point x="454.0" y="740.0" type="line"/>
      <point x="107.10000000000001" y="740.0" type="line"/>
      <point x="88.7" y="624.0" type="line"/>
      <point x="285.0" y="624.0" type="line"/>
      <point x="170.8" y="-94.0" type="line"/>
    </contour>
  </outline>
</glyph>
<glyph name="asciicircum" format="2">
  <advance width="669.9"/>
  <unicode hex="005E"/>
  <outline>
    <contour>
      <point x="38.7" y="224.2" type="line"/>
      <point x="198.3" y="224.2" type="line"/>
      <point x="371.40000000000003" y="526.8000000000001" type="line"/>
      <point x="455.40000000000003" y="224.2" type="line"/>
      <point x="614.4" y="224.2" type="line"/>
      <point x="484.9" y="703.0" type="line"/>
      <point x="322.7" y="703.0" type="line"/>
    </contour>
  </outline>
</glyph>
<glyph name="underscore" format="2">
  <advance width="978.4"/>
  <unicode hex="005F"/>
  <outline>
    <contour>
      <point x="-52.50000000000001" y="-187.79999999999998" type="line"/>
      <point x="884.1" y="-187.79999999999998" type="line"/>
      <point x="903.9000000000001" y="-64.8" type="line"/>
      <point x="-32.7" y="-64.8" type="line"/>
    </contour>
  </outline>
</glyph>
<glyph name="a" format="2">
  <advance width="864.9"/>
  <unicode hex="0061"/>
  <note>
15
</note>
  <anchor x="384.0108" y="0.0" name="bottom"/>
  <anchor x="819.0" y="2.799999999999999" name="ogonek"/>
  <anchor x="470.9" y="544.0" name="top"/>
  <outline>
    <contour>
      <point x="716.4" y="-10.0" type="curve" smooth="yes"/>
      <point x="751.7" y="-10.0"/>
      <point x="794.4" y="-4.500000000000001"/>
      <point x="819.3" y="1.8999999999999995" type="curve"/>
      <point x="818.7" y="137.9" type="line"/>
      <point x="811.5" y="136.0"/>
      <point x="800.9" y="134.7"/>
      <point x="793.2" y="134.7" type="curve" smooth="yes"/>
      <point x="770.4" y="134.7"/>
      <point x="761.6" y="147.79999999999998"/>
      <point x="761.6" y="171.1" type="curve" smooth="yes"/>
      <point x="761.6" y="181.6"/>
      <point x="779.0" y="290.4"/>
      <point x="814.6999999999999" y="510.7" type="curve"/>
      <point x="744.1999999999999" y="534.5"/>
      <point x="591.9000000000001" y="554.0"/>
      <point x="460.80000000000007" y="554.0" type="curve" smooth="yes"/>
      <point x="198.70000000000002" y="554.0"/>
      <point x="35.1" y="448.6"/>
      <point x="35.1" y="222.1" type="curve" smooth="yes"/>
      <point x="35.1" y="61.5"/>
      <point x="147.1" y="-10.0"/>
      <point x="300.09999999999997" y="-10.0" type="curve" smooth="yes"/>
      <point x="395.2" y="-10.0"/>
      <point x="490.30000000000007" y="21.400000000000002"/>
      <point x="561.9000000000001" y="66.9" type="curve"/>
      <point x="588.5" y="21.2"/>
      <point x="655.4" y="-10.0"/>
    </contour>
    <contour>
      <point x="556.4" y="180.7" type="line"/>
      <point x="506.20000000000005" y="154.1"/>
      <point x="437.40000000000003" y="132.89999999999998"/>
      <point x="378.59999999999997" y="132.89999999999998" type="curve" smooth="yes"/>
      <point x="296.59999999999997" y="132.89999999999998"/>
      <point x="239.89999999999998" y="174.6"/>
      <point x="239.89999999999998" y="252.4" type="curve" smooth="yes"/>
      <point x="239.89999999999998" y="356.2"/>
      <point x="329.40000000000003" y="420.5"/>
      <point x="461.0" y="420.5" type="curve" smooth="yes"/>
      <point x="509.6" y="420.5"/>
      <point x="555.6" y="414.5"/>
      <point x="591.5" y="400.7" type="curve"/>
    </contour>
  </outline>
</glyph>
<glyph name="b" format="2">
  <advance width="852.8000000000001"/>
  <unicode hex="0062"/>
  <note>
12
</note>
  <outline>
    <contour>
      <point x="357.0" y="740.0" type="line"/>
      <point x="151.8" y="740.0" type="line"/>
      <point x="37.8" y="22.4" type="line"/>
      <point x="125.00000000000001" y="7.799999999999999"/>
      <point x="246.8" y="-10.0"/>
      <point x="376.0" y="-10.0" type="curve" smooth="yes"/>
      <point x="622.3" y="-10.0"/>
      <point x="818.5" y="80.50000000000001"/>
      <point x="818.5" y="333.0" type="curve" smooth="yes"/>
      <point x="818.5" y="461.70000000000005"/>
      <point x="744.8" y="554.0"/>
      <point x="590.9" y="554.0" type="curve" smooth="yes"/>
      <point x="492.8" y="554.0"/>
      <point x="406.9" y="522.1"/>
      <point x="312.0" y="465.9" type="curve"/>
    </contour>
    <contour>
      <point x="488.59999999999997" y="404.8" type="curve" smooth="yes"/>
      <point x="566.1999999999999" y="404.8"/>
      <point x="612.6" y="366.8"/>
      <point x="612.6" y="292.9" type="curve" smooth="yes"/>
      <point x="612.6" y="178.2"/>
      <point x="509.0" y="117.5"/>
      <point x="399.7" y="117.5" type="curve" smooth="yes"/>
      <point x="346.40000000000003" y="117.5"/>
      <point x="297.4" y="126.49999999999999"/>
      <point x="260.7" y="136.1" type="curve"/>
      <point x="293.59999999999997" y="345.3" type="line"/>
      <point x="361.0" y="382.3"/>
      <point x="426.2" y="404.8"/>
    </contour>
  </outline>
</glyph>
<glyph name="c" format="2">
  <advance width="776.6000000000001"/>
  <unicode hex="0063"/>
  <note>
10
</note>
  <anchor x="415.40000000000003" y="0.0" name="bottom"/>
  <anchor x="480.79999999999995" y="544.0" name="top"/>
  <outline>
    <contour>
      <point x="382.8" y="-10.0" type="curve" smooth="yes"/>
      <point x="490.79999999999995" y="-10.0"/>
      <point x="606.4000000000001" y="-0.7999999999999998"/>
      <point x="704.1999999999999" y="27.8" type="curve"/>
      <point x="701.0" y="157.79999999999998" type="line"/>
      <point x="601.4" y="138.59999999999997"/>
      <point x="529.9999999999999" y="128.0"/>
      <point x="439.79999999999995" y="128.0" type="curve" smooth="yes"/>
      <point x="317.2" y="128.0"/>
      <point x="248.2" y="174.0"/>
      <point x="248.2" y="260.6" type="curve" smooth="yes"/>
      <point x="248.2" y="357.2"/>
      <point x="325.0" y="418.8"/>
      <point x="472.0" y="418.8" type="curve" smooth="yes"/>
      <point x="541.5999999999999" y="418.8"/>
      <point x="625.4000000000001" y="410.99999999999994"/>
      <point x="724.8" y="390.20000000000005" type="curve"/>
      <point x="770.0" y="522.1999999999999" type="line"/>
      <point x="687.8" y="542.9999999999999"/>
      <point x="577.1999999999999" y="554.0"/>
      <point x="478.8" y="554.0" type="curve" smooth="yes"/>
      <point x="188.00000000000003" y="554.0"/>
      <point x="38.8" y="442.6"/>
      <point x="38.8" y="241.20000000000002" type="curve" smooth="yes"/>
      <point x="38.8" y="79.80000000000001"/>
      <point x="146.2" y="-10.0"/>
    </contour>
  </outline>
</glyph>
<glyph name="d" format="2">
  <advance width="869.1999999999999"/>
  <unicode hex="0064"/>
  <note>
17
</note>
  <anchor x="396.8" y="0.0" name="bottom"/>
  <anchor x="432.8" y="275.0" name="center"/>
  <anchor x="496.8" y="740.0" name="top"/>
  <anchor x="905.6" y="740.0" name="topright"/>
  <outline>
    <contour>
      <point x="717.6" y="-10.0" type="curve" smooth="yes"/>
      <point x="751.3999999999999" y="-10.0"/>
      <point x="793.8" y="-4.800000000000001"/>
      <point x="819.0" y="2.1999999999999993" type="curve"/>
      <point x="817.8" y="138.20000000000002" type="line"/>
      <point x="810.6" y="136.0"/>
      <point x="800.4" y="135.0"/>
      <point x="792.0" y="135.0" type="curve" smooth="yes"/>
      <point x="771.1999999999999" y="135.0"/>
      <point x="760.4" y="146.4"/>
      <point x="760.4" y="168.0" type="curve" smooth="yes"/>
      <point x="760.4" y="181.39999999999998"/>
      <point x="848.6" y="740.0"/>
      <point x="848.6" y="740.0" type="curve"/>
      <point x="645.8" y="740.0" type="line"/>
      <point x="613.0" y="537.4" type="line"/>
      <point x="571.2" y="545.6"/>
      <point x="513.2" y="554.0"/>
      <point x="445.0" y="554.0" type="curve" smooth="yes"/>
      <point x="218.4" y="554.0"/>
      <point x="35.4" y="458.4"/>
      <point x="35.4" y="220.0" type="curve" smooth="yes"/>
      <point x="35.4" y="61.8"/>
      <point x="152.20000000000002" y="-10.0"/>
      <point x="298.0" y="-10.0" type="curve" smooth="yes"/>
      <point x="393.40000000000003" y="-10.0"/>
      <point x="491.8" y="21.4"/>
      <point x="560.4" y="63.599999999999994" type="curve"/>
      <point x="587.5999999999999" y="20.000000000000004"/>
      <point x="654.8" y="-10.0"/>
    </contour>
    <contour>
      <point x="376.2" y="133.2" type="curve" smooth="yes"/>
      <point x="299.6" y="133.2"/>
      <point x="240.2" y="173.4"/>
      <point x="240.2" y="253.0" type="curve" smooth="yes"/>
      <point x="240.2" y="357.4"/>
      <point x="332.4" y="420.8"/>
      <point x="459.2" y="420.8" type="curve" smooth="yes"/>
      <point x="512.0" y="420.8"/>
      <point x="556.2" y="413.6"/>
      <point x="591.8" y="404.0" type="curve"/>
      <point x="555.8" y="177.4" type="line"/>
      <point x="504.99999999999994" y="153.20000000000002"/>
      <point x="435.6" y="133.2"/>
    </contour>
  </outline>
</glyph>
<glyph name="e" format="2">
  <advance width="802.8000000000001"/>
  <unicode hex="0065"/>
  <note>
14 points
</note>
  <anchor x="369.4" y="0.0" name="bottom"/>
  <anchor x="650.2" y="13.999999999999998" name="ogonek"/>
  <anchor x="461.00000000000006" y="544.0" name="top"/>
  <outline>
    <contour>
      <point x="213.6" y="320.79999999999995" type="curve"/>
      <point x="225.0" y="222.20000000000002" type="line"/>
      <point x="276.6" y="215.39999999999998"/>
      <point x="341.8" y="210.60000000000002"/>
      <point x="423.79999999999995" y="211.60000000000002" type="curve" smooth="yes"/>
      <point x="653.8000000000001" y="214.40000000000003"/>
      <point x="775.0" y="274.8"/>
      <point x="775.0" y="383.8" type="curve" smooth="yes"/>
      <point x="775.0" y="492.2"/>
      <point x="654.8000000000001" y="554.0"/>
      <point x="467.8" y="554.0" type="curve" smooth="yes"/>
      <point x="184.0" y="554.0"/>
      <point x="38.0" y="429.6"/>
      <point x="38.0" y="242.20000000000002" type="curve" smooth="yes"/>
      <point x="38.0" y="82.19999999999999"/>
      <point x="173.8" y="-10.0"/>
      <point x="398.3999999999999" y="-10.0" type="curve" smooth="yes"/>
      <point x="510.4" y="-10.0"/>
      <point x="617.8000000000001" y="4.600000000000001"/>
      <point x="718.4" y="30.6" type="curve"/>
      <point x="702.6" y="161.6" type="line"/>
      <point x="599.1999999999999" y="133.2"/>
      <point x="500.19999999999993" y="121.0"/>
      <point x="443.2" y="121.0" type="curve" smooth="yes"/>
      <point x="290.8" y="121.0"/>
      <point x="243.6" y="161.79999999999998"/>
      <point x="243.59999999999997" y="249.20000000000005" type="curve" smooth="yes"/>
      <point x="243.6" y="357.79999999999995"/>
      <point x="329.59999999999997" y="428.2"/>
      <point x="450.40000000000003" y="428.2" type="curve" smooth="yes"/>
      <point x="521.6" y="428.2"/>
      <point x="560.4" y="407.4"/>
      <point x="560.4" y="369.6" type="curve" smooth="yes"/>
      <point x="560.4" y="331.4"/>
      <point x="485.6000000000001" y="315.6"/>
      <point x="352.4" y="314.2" type="curve" smooth="yes"/>
      <point x="299.2" y="313.20000000000005"/>
      <point x="252.2" y="314.6"/>
    </contour>
  </outline>
</glyph>
<glyph name="f" format="2">
  <advance width="578.9"/>
  <unicode hex="0066"/>
  <outline>
    <contour>
      <point x="72.29999999999998" y="-220.0" type="curve" smooth="yes"/>
      <point x="187.7" y="-220.0"/>
      <point x="264.5" y="-141.60000000000002"/>
      <point x="288.59999999999997" y="8.099999999999994" type="curve" smooth="yes"/>
      <point x="342.59999999999997" y="353.0" type="line"/>
      <point x="565.6999999999999" y="353.0" type="line"/>
      <point x="586.9" y="484.0" type="line"/>
      <point x="363.1" y="484.0" type="line"/>
      <point x="375.5" y="561.4"/>
      <point x="423.40000000000003" y="599.4"/>
      <point x="506.5" y="599.4" type="curve" smooth="yes"/>
      <point x="561.1" y="599.4"/>
      <point x="618.5" y="588.9"/>
      <point x="660.0" y="576.0" type="curve"/>
      <point x="705.1999999999999" y="715.1" type="line"/>
      <point x="640.8" y="737.5999999999999"/>
      <point x="563.0" y="750.0"/>
      <point x="489.8" y="750.0" type="curve" smooth="yes"/>
      <point x="299.9" y="750.0"/>
      <point x="183.29999999999998" y="657.6999999999999"/>
      <point x="159.0" y="484.0" type="curve"/>
      <point x="52.3" y="468.5" type="line"/>
      <point x="33.5" y="353.0" type="line"/>
      <point x="137.8" y="353.0" type="line"/>
      <point x="87.4" y="32.5" type="line" smooth="yes"/>
      <point x="76.1" y="-40.20000000000001"/>
      <point x="54.9" y="-71.4"/>
      <point x="13.900000000000002" y="-71.4" type="curve" smooth="yes"/>
      <point x="0.9999999999999942" y="-71.4"/>
      <point x="-13.300000000000002" y="-69.10000000000001"/>
      <point x="-26.00000000000001" y="-64.9" type="curve"/>
      <point x="-58.60000000000001" y="-198.10000000000002" type="line"/>
      <point x="-19.400000000000002" y="-213.5"/>
      <point x="19.599999999999994" y="-220.0"/>
    </contour>
  </outline>
</glyph>
<glyph name="g" format="2">
  <advance width="853.4"/>
  <unicode hex="0067"/>
  <note>
16
</note>
  <anchor x="335.6" y="-213.0" name="bottom"/>
  <anchor x="476.80000000000007" y="544.0" name="top"/>
  <outline>
    <contour>
      <point x="2.200000000000001" y="-164.4" type="line"/>
      <point x="89.0" y="-195.39999999999998"/>
      <point x="206.0" y="-220.0"/>
      <point x="352.2" y="-220.0" type="curve" smooth="yes"/>
      <point x="589.4" y="-220.0"/>
      <point x="714.4" y="-109.00000000000001"/>
      <point x="746.2" y="92.39999999999999" type="curve" smooth="yes"/>
      <point x="812.4" y="512.4" type="line"/>
      <point x="750.1999999999999" y="532.4000000000001"/>
      <point x="585.0000000000001" y="554.0"/>
      <point x="485.6" y="554.0" type="curve" smooth="yes"/>
      <point x="155.4" y="554.0"/>
      <point x="35.8" y="414.2"/>
      <point x="35.8" y="228.0" type="curve" smooth="yes"/>
      <point x="35.8" y="86.60000000000001"/>
      <point x="136.60000000000002" y="18.999999999999996"/>
      <point x="293.6" y="18.999999999999996" type="curve" smooth="yes"/>
      <point x="356.0" y="18.999999999999996"/>
      <point x="468.8" y="44.8"/>
      <point x="541.2" y="89.4" type="curve"/>
      <point x="537.8" y="71.2" type="line" smooth="yes"/>
      <point x="519.8000000000001" y="-44.59999999999999"/>
      <point x="451.4" y="-82.6"/>
      <point x="323.0" y="-82.6" type="curve" smooth="yes"/>
      <point x="227.8" y="-82.6"/>
      <point x="132.4" y="-61.599999999999994"/>
      <point x="47.199999999999996" y="-33.79999999999999" type="curve"/>
    </contour>
    <contour>
      <point x="591.2" y="408.00000000000006" type="curve"/>
      <point x="557.6" y="195.2" type="line"/>
      <point x="500.6000000000001" y="169.2"/>
      <point x="432.6" y="150.0"/>
      <point x="383.2" y="150.0" type="curve" smooth="yes"/>
      <point x="293.0" y="150.0"/>
      <point x="241.59999999999997" y="188.20000000000002"/>
      <point x="241.59999999999997" y="259.8" type="curve" smooth="yes"/>
      <point x="241.59999999999997" y="356.40000000000003"/>
      <point x="318.0" y="426.8"/>
      <point x="460.0" y="426.8" type="curve" smooth="yes"/>
      <point x="522.4" y="426.8"/>
      <point x="563.4" y="415.6"/>
    </contour>
  </outline>
</glyph>
<glyph name="h" format="2">
  <advance width="846.1999999999999"/>
  <unicode hex="0068"/>
  <note>
16
</note>
  <anchor x="396.59999999999997" y="0.0" name="bottom"/>
  <anchor x="445.6024" y="387.8" name="center"/>
  <anchor x="488.2" y="740.0" name="top"/>
  <outline>
    <contour>
      <point x="750.1999999999999" y="166.99999999999997" type="curve" smooth="yes"/>
      <point x="750.1999999999999" y="208.20000000000002"/>
      <point x="780.4" y="339.0"/>
      <point x="780.4" y="391.8" type="curve" smooth="yes"/>
      <point x="780.4" y="482.0"/>
      <point x="720.4" y="554.0"/>
      <point x="577.9999999999999" y="554.0" type="curve" smooth="yes"/>
      <point x="484.59999999999997" y="554.0"/>
      <point x="415.4" y="527.8"/>
      <point x="315.4" y="480.20000000000005" type="curve"/>
      <point x="356.4" y="740.0" type="line"/>
      <point x="152.2" y="740.0" type="line"/>
      <point x="33.80000000000001" y="0.0" type="line"/>
      <point x="239.0" y="0.0" type="line"/>
      <point x="295.59999999999997" y="356.4" type="line"/>
      <point x="360.2" y="385.8"/>
      <point x="418.59999999999997" y="407.6"/>
      <point x="478.4" y="407.6" type="curve" smooth="yes"/>
      <point x="541.6" y="407.6"/>
      <point x="568.2" y="378.8"/>
      <point x="568.2" y="332.59999999999997" type="curve" smooth="yes"/>
      <point x="568.2" y="284.59999999999997"/>
      <point x="539.0000000000001" y="145.20000000000002"/>
      <point x="539.0000000000001" y="110.8" type="curve" smooth="yes"/>
      <point x="539.0000000000001" y="29.0"/>
      <point x="607.1999999999999" y="-10.0"/>
      <point x="696.6" y="-10.0" type="curve" smooth="yes"/>
      <point x="733.8" y="-10.0"/>
      <point x="781.0000000000001" y="-6.6"/>
      <point x="810.0" y="-0.6000000000000008" type="curve"/>
      <point x="808.8000000000001" y="138.79999999999998" type="line"/>
      <point x="801.0" y="136.6"/>
      <point x="788.6000000000001" y="135.0"/>
      <point x="779.6" y="135.0" type="curve" smooth="yes"/>
      <point x="760.5999999999999" y="135.0"/>
      <point x="750.1999999999999" y="147.60000000000002"/>
    </contour>
  </outline>
</glyph>
<glyph name="i" format="2">
  <advance width="361.5"/>
  <unicode hex="0069"/>
  <note>
Ajuster pts sur points
8
</note>
  <anchor x="136.9108" y="0.0" name="bottom"/>
  <anchor x="239.7" y="0.0" name="ogonek"/>
  <anchor x="223.38920000000002" y="544.0" name="top"/>
  <outline>
    <contour>
      <point x="34.5" y="0.0" type="line"/>
      <point x="239.7" y="0.0" type="line"/>
      <point x="325.1" y="544.0" type="line"/>
      <point x="121.3" y="544.0" type="line"/>
    </contour>
    <contour>
      <point x="256.6" y="766.0" type="curve" smooth="yes"/>
      <point x="163.79999999999998" y="766.0"/>
      <point x="118.9" y="737.3"/>
      <point x="118.6" y="669.3" type="curve" smooth="yes"/>
      <point x="118.60000000000002" y="626.5999999999999"/>
      <point x="151.9" y="601.8000000000001"/>
      <point x="228.29999999999998" y="601.8000000000001" type="curve" smooth="yes"/>
      <point x="303.0" y="601.8000000000001"/>
      <point x="365.6" y="620.7"/>
      <point x="366.2" y="699.5" type="curve" smooth="yes"/>
      <point x="366.2" y="741.2"/>
      <point x="333.8" y="766.0"/>
    </contour>
  </outline>
</glyph>
<glyph name="j" format="2">
  <advance width="383.70000000000005"/>
  <unicode hex="006A"/>
  <note>
idem /i
12
</note>
  <outline>
    <contour>
      <point x="279.5" y="766.0" type="curve" smooth="yes"/>
      <point x="186.0" y="766.0"/>
      <point x="142.4" y="737.3"/>
      <point x="142.1" y="669.3" type="curve" smooth="yes"/>
      <point x="142.1" y="626.5999999999999"/>
      <point x="175.5" y="601.8000000000001"/>
      <point x="251.89999999999998" y="601.8000000000001" type="curve" smooth="yes"/>
      <point x="325.7" y="601.8000000000001"/>
      <point x="387.9" y="620.7"/>
      <point x="388.5" y="699.5" type="curve" smooth="yes"/>
      <point x="388.5" y="741.2"/>
      <point x="356.7" y="766.0"/>
    </contour>
    <contour>
      <point x="348.7" y="544.0" type="line"/>
      <point x="144.20000000000002" y="544.0" type="line"/>
      <point x="60.699999999999996" y="12.399999999999995" type="line" smooth="yes"/>
      <point x="52.3" y="-42.7"/>
      <point x="35.9" y="-71.4"/>
      <point x="-7.599999999999994" y="-71.4" type="curve" smooth="yes"/>
      <point x="-17.700000000000003" y="-71.4"/>
      <point x="-34.1" y="-70.10000000000001"/>
      <point x="-47.50000000000001" y="-65.4" type="curve"/>
      <point x="-84.7" y="-208.39999999999998" type="line"/>
      <point x="-45.39999999999999" y="-216.29999999999998"/>
      <point x="1.999999999999993" y="-220.0"/>
      <point x="24.9" y="-220.0" type="curve" smooth="yes"/>
      <point x="177.79999999999998" y="-220.0"/>
      <point x="242.2" y="-128.9"/>
      <point x="267.7" y="33.29999999999999" type="curve" smooth="yes"/>
    </contour>
  </outline>
</glyph>
<glyph name="l" format="2">
  <advance width="453.9"/>
  <unicode hex="006C"/>
  <anchor x="223.20000000000002" y="0.0" name="bottom"/>
  <anchor x="236.5042" y="387.5" name="center"/>
  <anchor x="254.20000000000002" y="740.0" name="top"/>
  <anchor x="413.6" y="740.0" name="topright"/>
  <outline>
    <contour>
      <point x="151.8" y="740.0" type="line"/>
      <point x="68.89999999999999" y="219.1" type="line" smooth="yes"/>
      <point x="64.80000000000001" y="191.4"/>
      <point x="60.80000000000001" y="162.29999999999998"/>
      <point x="60.80000000000001" y="136.2" type="curve" smooth="yes"/>
      <point x="60.80000000000001" y="35.8"/>
      <point x="111.79999999999998" y="-10.0"/>
      <point x="222.29999999999998" y="-10.0" type="curve" smooth="yes"/>
      <point x="292.2" y="-10.0"/>
      <point x="358.2" y="1.5999999999999994"/>
      <point x="418.79999999999995" y="18.4" type="curve"/>
      <point x="417.29999999999995" y="165.5" type="line"/>
      <point x="379.1" y="157.1"/>
      <point x="354.2" y="151.79999999999998"/>
      <point x="326.79999999999995" y="151.79999999999998" type="curve" smooth="yes"/>
      <point x="287.5" y="151.79999999999998"/>
      <point x="272.6" y="171.4"/>
      <point x="272.6" y="198.4" type="curve" smooth="yes"/>
      <point x="272.6" y="210.3"/>
      <point x="273.79999999999995" y="221.7"/>
      <point x="275.8" y="231.7" type="curve" smooth="yes"/>
      <point x="356.6" y="740.0" type="line"/>
    </contour>
  </outline>
</glyph>
<glyph name="m" format="2">
  <advance width="1243.0"/>
  <unicode hex="006D"/>
  <note>
24&gt;23 points
un point de trop dans la jointure avec 2e jambage
</note>
  <outline>
    <contour>
      <point x="1093.1" y="-10.0" type="curve" smooth="yes"/>
      <point x="1130.6000000000001" y="-10.0"/>
      <point x="1177.5" y="-6.6"/>
      <point x="1206.8" y="-0.3000000000000007" type="curve"/>
      <point x="1205.6000000000001" y="138.79999999999998" type="line"/>
      <point x="1197.5" y="136.6"/>
      <point x="1185.1" y="135.0"/>
      <point x="1176.1000000000001" y="135.0" type="curve" smooth="yes"/>
      <point x="1157.4" y="135.0"/>
      <point x="1147.3" y="146.99999999999997"/>
      <point x="1147.3" y="166.7" type="curve" smooth="yes"/>
      <point x="1147.3" y="207.9"/>
      <point x="1177.5" y="339.0"/>
      <point x="1177.5" y="391.5" type="curve" smooth="yes"/>
      <point x="1177.5" y="482.00000000000006"/>
      <point x="1113.4" y="554.0"/>
      <point x="971.3" y="554.0" type="curve" smooth="yes"/>
      <point x="868.4000000000001" y="554.0"/>
      <point x="806.1" y="518.0999999999999"/>
      <point x="714.0999999999999" y="462.1" type="curve"/>
      <point x="694.0" y="515.2"/>
      <point x="648.0" y="554.0"/>
      <point x="548.6" y="554.0" type="curve" smooth="yes"/>
      <point x="468.6" y="554.0"/>
      <point x="391.09999999999997" y="523.4"/>
      <point x="293.9" y="471.0" type="curve"/>
      <point x="304.8" y="544.0" type="line"/>
      <point x="120.6" y="544.0" type="line"/>
      <point x="34.800000000000004" y="0.0" type="line"/>
      <point x="239.29999999999998" y="0.0" type="line"/>
      <point x="296.2" y="363.0" type="line"/>
      <point x="349.6" y="390.8"/>
      <point x="392.3" y="407.6"/>
      <point x="434.70000000000005" y="407.6" type="curve" smooth="yes"/>
      <point x="498.59999999999997" y="407.6"/>
      <point x="523.9" y="373.0"/>
      <point x="523.9" y="322.40000000000003" type="curve" smooth="yes"/>
      <point x="523.9" y="303.9"/>
      <point x="505.09999999999997" y="183.7"/>
      <point x="477.09999999999997" y="0.0" type="curve"/>
      <point x="678.8000000000001" y="0.0" type="line"/>
      <point x="704.7" y="169.5"/>
      <point x="716.5" y="246.4"/>
      <point x="727.6999999999999" y="320.5" type="curve" smooth="yes"/>
      <point x="728.4" y="327.9"/>
      <point x="730.9" y="351.4"/>
      <point x="731.0" y="357.40000000000003" type="curve"/>
      <point x="783.2" y="387.90000000000003"/>
      <point x="825.8" y="405.5"/>
      <point x="874.1" y="405.5" type="curve" smooth="yes"/>
      <point x="939.0" y="405.5"/>
      <point x="964.0" y="375.40000000000003"/>
      <point x="964.0" y="327.0" type="curve" smooth="yes"/>
      <point x="964.0" y="281.5"/>
      <point x="935.8000000000001" y="146.6"/>
      <point x="935.8000000000001" y="110.79999999999998" type="curve" smooth="yes"/>
      <point x="935.8000000000001" y="28.999999999999996"/>
      <point x="1004.0" y="-10.0"/>
    </contour>
  </outline>
</glyph>
<glyph name="n" format="2">
  <advance width="846.8000000000001"/>
  <unicode hex="006E"/>
  <note>
16
</note>
  <anchor x="395.1" y="0.0" name="bottom"/>
  <anchor x="457.40000000000003" y="544.0" name="top"/>
  <outline>
    <contour>
      <point x="120.6" y="544.0" type="line"/>
      <point x="34.800000000000004" y="0.0" type="line"/>
      <point x="238.6" y="0.0" type="line"/>
      <point x="295.9" y="356.4" type="line"/>
      <point x="355.59999999999997" y="384.29999999999995"/>
      <point x="417.5" y="407.59999999999997"/>
      <point x="478.3" y="407.59999999999997" type="curve" smooth="yes"/>
      <point x="540.2" y="407.59999999999997"/>
      <point x="568.2" y="380.3"/>
      <point x="568.2" y="330.5" type="curve" smooth="yes"/>
      <point x="568.2" y="281.5"/>
      <point x="539.3000000000001" y="153.6"/>
      <point x="539.3000000000001" y="110.8" type="curve" smooth="yes"/>
      <point x="539.3000000000001" y="29.000000000000004"/>
      <point x="607.8000000000001" y="-10.0"/>
      <point x="696.9000000000001" y="-10.0" type="curve" smooth="yes"/>
      <point x="734.4000000000001" y="-10.0"/>
      <point x="781.3000000000001" y="-6.6"/>
      <point x="810.6" y="-0.3000000000000007" type="curve"/>
      <point x="809.4000000000001" y="138.79999999999998" type="line"/>
      <point x="801.3" y="136.6"/>
      <point x="788.9" y="135.0"/>
      <point x="779.9" y="135.0" type="curve" smooth="yes"/>
      <point x="761.2" y="135.0"/>
      <point x="750.8000000000001" y="147.3"/>
      <point x="750.8000000000001" y="166.99999999999997" type="curve" smooth="yes"/>
      <point x="750.8000000000001" y="208.20000000000002"/>
      <point x="781.0" y="339.0"/>
      <point x="781.0" y="391.5" type="curve" smooth="yes"/>
      <point x="781.0" y="491.8"/>
      <point x="704.6" y="554.0"/>
      <point x="575.1" y="554.0" type="curve" smooth="yes"/>
      <point x="475.1" y="554.0"/>
      <point x="383.4" y="521.6"/>
      <point x="297.5" y="470.09999999999997" type="curve"/>
      <point x="309.0" y="544.0" type="line"/>
    </contour>
  </outline>
</glyph>
<glyph name="o" format="2">
  <advance width="839.4000000000001"/>
  <unicode hex="006F"/>
  <note>
8
</note>
  <anchor x="384.40000000000003" y="0.0" name="bottom"/>
  <anchor x="420.0" y="275.0" name="center"/>
  <anchor x="511.4" y="0.0" name="ogonek"/>
  <anchor x="448.40000000000003" y="544.0" name="top"/>
  <anchor x="666.6" y="537.0" name="topright"/>
  <outline>
    <contour>
      <point x="413.0" y="-9.6" type="curve" smooth="yes"/>
      <point x="650.6" y="-9.6"/>
      <point x="796.2" y="87.00000000000003"/>
      <point x="797.8000000000001" y="291.2" type="curve" smooth="yes"/>
      <point x="798.6" y="468.59999999999997"/>
      <point x="660.1999999999999" y="555.6"/>
      <point x="425.20000000000005" y="555.6" type="curve" smooth="yes"/>
      <point x="187.6" y="555.6"/>
      <point x="42.0" y="458.9999999999999"/>
      <point x="40.4" y="254.79999999999998" type="curve" smooth="yes"/>
      <point x="39.6" y="77.4"/>
      <point x="178.0" y="-9.6"/>
    </contour>
    <contour>
      <point x="414.0" y="115.0" type="curve" smooth="yes"/>
      <point x="304.20000000000005" y="115.0"/>
      <point x="245.6" y="161.20000000000002"/>
      <point x="245.6" y="261.4" type="curve" smooth="yes"/>
      <point x="245.6" y="369.20000000000005"/>
      <point x="305.6" y="431.00000000000006"/>
      <point x="424.2" y="431.00000000000006" type="curve" smooth="yes"/>
      <point x="533.6" y="431.00000000000006"/>
      <point x="592.6" y="385.00000000000006"/>
      <point x="592.6" y="284.8" type="curve" smooth="yes"/>
      <point x="592.6" y="177.0"/>
      <point x="532.6" y="115.0"/>
    </contour>
  </outline>
</glyph>
<glyph name="p" format="2">
  <advance width="853.8"/>
  <unicode hex="0070"/>
  <note>
14 point
</note>
  <outline>
    <contour>
      <point x="1.8000000000000078" y="-210.0" type="line"/>
      <point x="204.9" y="-210.0" type="line"/>
      <point x="240.2" y="5.5" type="line"/>
      <point x="278.09999999999997" y="-2.299999999999999"/>
      <point x="332.40000000000003" y="-10.0"/>
      <point x="390.7" y="-10.0" type="curve" smooth="yes"/>
      <point x="673.1999999999999" y="-10.0"/>
      <point x="818.5" y="109.39999999999999"/>
      <point x="818.5" y="333.5" type="curve" smooth="yes"/>
      <point x="818.5" y="464.8"/>
      <point x="742.6999999999999" y="554.0"/>
      <point x="590.8000000000001" y="554.0" type="curve" smooth="yes"/>
      <point x="479.5" y="554.0"/>
      <point x="394.5" y="521.6999999999999"/>
      <point x="293.09999999999997" y="463.4" type="curve"/>
      <point x="306.90000000000003" y="544.0" type="line"/>
      <point x="120.60000000000001" y="544.0" type="line"/>
    </contour>
    <contour>
      <point x="397.29999999999995" y="117.5" type="curve" smooth="yes"/>
      <point x="344.0" y="117.5"/>
      <point x="297.4" y="126.79999999999998"/>
      <point x="260.7" y="136.39999999999998" type="curve"/>
      <point x="293.3" y="345.0" type="line"/>
      <point x="358.3" y="380.8"/>
      <point x="425.3" y="404.8"/>
      <point x="488.59999999999997" y="404.8" type="curve" smooth="yes"/>
      <point x="564.1" y="404.8"/>
      <point x="612.6" y="369.5"/>
      <point x="612.6" y="291.7" type="curve" smooth="yes"/>
      <point x="612.6" y="182.39999999999998"/>
      <point x="515.3" y="117.5"/>
    </contour>
  </outline>
</glyph>
<glyph name="q" format="2">
  <advance width="854.5"/>
  <unicode hex="0071"/>
  <note>
12
</note>
  <outline>
    <contour>
      <point x="814.4" y="515.3" type="line"/>
      <point x="725.1" y="536.9"/>
      <point x="589.0" y="554.0"/>
      <point x="459.8" y="554.0" type="curve" smooth="yes"/>
      <point x="177.3" y="554.0"/>
      <point x="35.1" y="436.50000000000006"/>
      <point x="35.1" y="220.79999999999998" type="curve" smooth="yes"/>
      <point x="35.1" y="85.39999999999999"/>
      <point x="124.5" y="-10.0"/>
      <point x="293.7" y="-10.0" type="curve" smooth="yes"/>
      <point x="378.7" y="-10.0"/>
      <point x="450.29999999999995" y="17.1"/>
      <point x="539.9" y="74.8" type="curve"/>
      <point x="494.5" y="-210.0" type="line"/>
      <point x="698.3000000000001" y="-210.0" type="line"/>
    </contour>
    <contour>
      <point x="591.8" y="403.40000000000003" type="curve"/>
      <point x="557.6" y="188.5" type="line"/>
      <point x="494.79999999999995" y="152.0"/>
      <point x="432.3" y="132.89999999999998"/>
      <point x="372.0" y="132.89999999999998" type="curve" smooth="yes"/>
      <point x="297.5" y="132.89999999999998"/>
      <point x="239.9" y="174.6"/>
      <point x="239.9" y="250.29999999999998" type="curve" smooth="yes"/>
      <point x="239.9" y="358.0"/>
      <point x="326.1" y="420.2"/>
      <point x="458.90000000000003" y="420.2" type="curve" smooth="yes"/>
      <point x="508.7" y="420.2"/>
      <point x="556.2" y="413.0"/>
    </contour>
  </outline>
</glyph>
<glyph name="r" format="2">
  <advance width="608.1"/>
  <unicode hex="0072"/>
  <anchor x="132.0" y="0.0" name="bottom"/>
  <anchor x="370.5" y="544.0" name="top"/>
  <outline>
    <contour>
      <point x="303.09999999999997" y="544.0" type="line"/>
      <point x="121.99999999999999" y="544.0" type="line"/>
      <point x="34.1" y="0.0" type="line"/>
      <point x="239.0" y="0.0" type="line"/>
      <point x="292.0" y="328.59999999999997" type="line"/>
      <point x="366.9" y="374.90000000000003"/>
      <point x="425.8" y="390.8"/>
      <point x="478.4" y="390.8" type="curve" smooth="yes"/>
      <point x="514.6" y="390.8"/>
      <point x="549.7" y="384.5"/>
      <point x="587.5999999999999" y="375.2" type="curve"/>
      <point x="641.2" y="539.5" type="line"/>
      <point x="611.0" y="547.8000000000001"/>
      <point x="573.5" y="554.0"/>
      <point x="536.9" y="554.0" type="curve" smooth="yes"/>
      <point x="456.40000000000003" y="554.0"/>
      <point x="394.5" y="526.0"/>
      <point x="288.29999999999995" y="447.90000000000003" type="curve"/>
    </contour>
  </outline>
</glyph>
<glyph name="s" format="2">
  <advance width="675.3999999999999"/>
  <unicode hex="0073"/>
  <anchor x="328.40000000000003" y="0.0" name="bottom"/>
  <anchor x="382.40000000000003" y="544.0" name="top"/>
  <outline>
    <contour>
      <point x="-7.799999999999998" y="33.199999999999996" type="line"/>
      <point x="82.0" y="8.600000000000005"/>
      <point x="180.8" y="-10.0"/>
      <point x="296.2" y="-10.0" type="curve" smooth="yes"/>
      <point x="458.6" y="-10.0"/>
      <point x="631.4" y="19.200000000000003"/>
      <point x="631.4" y="184.00000000000003" type="curve" smooth="yes"/>
      <point x="631.4" y="377.0"/>
      <point x="252.19999999999996" y="307.59999999999997"/>
      <point x="252.19999999999996" y="383.0" type="curve" smooth="yes"/>
      <point x="252.19999999999996" y="411.8"/>
      <point x="291.8" y="432.0"/>
      <point x="369.3999999999999" y="432.0" type="curve" smooth="yes"/>
      <point x="440.20000000000005" y="432.0"/>
      <point x="537.0" y="420.20000000000005"/>
      <point x="600.4000000000001" y="399.6" type="curve"/>
      <point x="640.0000000000001" y="519.4000000000001" type="line"/>
      <point x="568.4" y="539.9999999999999"/>
      <point x="490.99999999999994" y="554.0"/>
      <point x="393.6" y="554.0" type="curve" smooth="yes"/>
      <point x="202.79999999999998" y="554.0"/>
      <point x="58.80000000000001" y="505.4"/>
      <point x="58.80000000000001" y="360.8" type="curve" smooth="yes"/>
      <point x="58.80000000000001" y="157.79999999999998"/>
      <point x="435.20000000000005" y="241.80000000000004"/>
      <point x="435.20000000000005" y="155.20000000000002" type="curve" smooth="yes"/>
      <point x="435.20000000000005" y="123.99999999999999"/>
      <point x="385.99999999999994" y="110.2"/>
      <point x="312.59999999999997" y="110.2" type="curve" smooth="yes"/>
      <point x="223.6" y="110.2"/>
      <point x="102.6" y="129.99999999999997"/>
      <point x="31.4" y="153.8" type="curve"/>
    </contour>
  </outline>
</glyph>
<glyph name="t" format="2">
  <advance width="588.2"/>
  <unicode hex="0074"/>
  <anchor x="289.2" y="0.0" name="bottom"/>
  <anchor x="291.2" y="275.0" name="center"/>
  <anchor x="295.7" y="665.0" name="top"/>
  <anchor x="510.9" y="791.5" name="topright"/>
  <outline>
    <contour>
      <point x="528.1" y="170.1" type="line"/>
      <point x="469.6" y="156.2"/>
      <point x="427.2" y="146.2"/>
      <point x="387.8" y="146.2" type="curve" smooth="yes"/>
      <point x="334.20000000000005" y="146.2"/>
      <point x="313.1" y="167.9"/>
      <point x="313.1" y="206.39999999999998" type="curve" smooth="yes"/>
      <point x="313.1" y="214.39999999999998"/>
      <point x="313.4" y="222.7"/>
      <point x="315.0" y="231.70000000000002" type="curve" smooth="yes"/>
      <point x="344.9" y="413.6" type="line"/>
      <point x="563.1" y="413.6" type="line"/>
      <point x="585.7" y="544.0" type="line"/>
      <point x="365.40000000000003" y="544.0" type="line"/>
      <point x="385.3" y="665.0" type="line"/>
      <point x="206.3" y="665.0" type="line"/>
      <point x="164.39999999999998" y="544.0" type="line"/>
      <point x="40.5" y="528.2" type="line"/>
      <point x="20.0" y="413.6" type="line"/>
      <point x="139.7" y="413.6" type="line"/>
      <point x="110.5" y="225.4" type="line" smooth="yes"/>
      <point x="106.1" y="199.0"/>
      <point x="104.10000000000001" y="174.2"/>
      <point x="104.10000000000001" y="154.1" type="curve" smooth="yes"/>
      <point x="104.10000000000001" y="30.799999999999997"/>
      <point x="178.2" y="-10.0"/>
      <point x="294.0" y="-10.0" type="curve" smooth="yes"/>
      <point x="370.4" y="-10.0"/>
      <point x="440.4" y="2.3999999999999995"/>
      <point x="525.0" y="24.700000000000003" type="curve"/>
    </contour>
  </outline>
</glyph>
<glyph name="u" format="2">
  <advance width="841.8"/>
  <unicode hex="0075"/>
  <note>
15
</note>
  <anchor x="373.90000000000003" y="0.0" name="bottom"/>
  <anchor x="796.2" y="18.2" name="ogonek"/>
  <anchor x="451.2" y="544.0" name="top"/>
  <anchor x="793.4" y="544.0" name="topright"/>
  <outline>
    <contour>
      <point x="263.5" y="-10.0" type="curve" smooth="yes"/>
      <point x="353.1" y="-10.0"/>
      <point x="447.8" y="20.4"/>
      <point x="538.6" y="74.30000000000001" type="curve"/>
      <point x="556.1" y="23.3"/>
      <point x="604.1" y="-10.0"/>
      <point x="670.9000000000001" y="-10.0" type="curve" smooth="yes"/>
      <point x="712.5" y="-10.0"/>
      <point x="760.5" y="2.0999999999999988"/>
      <point x="796.2" y="25.9" type="curve"/>
      <point x="793.9" y="138.8" type="line"/>
      <point x="780.6" y="134.5"/>
      <point x="771.3" y="133.6"/>
      <point x="767.1" y="133.6" type="curve" smooth="yes"/>
      <point x="748.7" y="133.6"/>
      <point x="735.4000000000001" y="143.5"/>
      <point x="735.4000000000001" y="172.79999999999998" type="curve" smooth="yes"/>
      <point x="735.4000000000001" y="179.8"/>
      <point x="736.4" y="194.39999999999998"/>
      <point x="793.4" y="544.0" type="curve"/>
      <point x="587.9000000000001" y="544.0" type="line"/>
      <point x="532.6" y="182.2" type="line"/>
      <point x="476.9" y="154.9"/>
      <point x="417.0" y="135.0"/>
      <point x="357.79999999999995" y="135.0" type="curve" smooth="yes"/>
      <point x="300.20000000000005" y="135.0"/>
      <point x="269.9" y="158.7"/>
      <point x="269.9" y="209.3" type="curve" smooth="yes"/>
      <point x="269.9" y="233.1"/>
      <point x="274.4" y="256.19999999999993"/>
      <point x="323.1" y="544.0" type="curve"/>
      <point x="117.9" y="544.0" type="line"/>
      <point x="59.400000000000006" y="181.2"/>
      <point x="58.400000000000006" y="167.79999999999998"/>
      <point x="58.400000000000006" y="148.8" type="curve" smooth="yes"/>
      <point x="58.400000000000006" y="50.0"/>
      <point x="129.1" y="-10.0"/>
    </contour>
  </outline>
</glyph>
<glyph name="v" format="2">
  <advance width="741.6999999999999"/>
  <unicode hex="0076"/>
  <outline>
    <contour>
      <point x="407.8" y="0.0" type="line"/>
      <point x="633.3" y="247.10000000000002"/>
      <point x="740.4" y="378.1"/>
      <point x="767.5" y="544.0" type="curve"/>
      <point x="550.7" y="544.0" type="line"/>
      <point x="540.1999999999999" y="445.5"/>
      <point x="480.3" y="339.0"/>
      <point x="335.0" y="150.6" type="curve"/>
      <point x="244.49999999999997" y="547.0" type="line"/>
      <point x="28.699999999999996" y="544.9" type="line"/>
      <point x="184.0" y="0.0" type="line"/>
    </contour>
  </outline>
</glyph>
<glyph name="w" format="2">
  <advance width="1018.0"/>
  <unicode hex="0077"/>
  <note>
15
</note>
  <anchor x="463.6" y="0.0" name="bottom"/>
  <anchor x="534.0" y="544.0" name="top"/>
  <outline>
    <contour>
      <point x="797.1999999999999" y="0.0" type="line"/>
      <point x="940.2" y="240.4"/>
      <point x="1029.8" y="415.4"/>
      <point x="1029.8000000000002" y="544.0" type="curve"/>
      <point x="850.4" y="544.0" type="line"/>
      <point x="847.6" y="450.40000000000003"/>
      <point x="812.4" y="342.6"/>
      <point x="705.2" y="130.99999999999997" type="curve"/>
      <point x="654.2" y="544.0" type="line"/>
      <point x="430.8" y="544.0" type="line"/>
      <point x="381.8" y="379.00000000000006"/>
      <point x="329.79999999999995" y="267.8"/>
      <point x="272.79999999999995" y="132.6" type="curve"/>
      <point x="222.60000000000002" y="547.0" type="line"/>
      <point x="39.8" y="545.1999999999999" type="line"/>
      <point x="123.8" y="0.0" type="line"/>
      <point x="361.6" y="0.0" type="line"/>
      <point x="414.8" y="104.0"/>
      <point x="479.8" y="251.6"/>
      <point x="515.4000000000001" y="342.0" type="curve"/>
      <point x="579.4" y="0.0" type="line"/>
    </contour>
  </outline>
</glyph>
<glyph name="x" format="2">
  <advance width="756.8000000000001"/>
  <unicode hex="0078"/>
  <outline>
    <contour>
      <point x="563.8" y="544.0" type="line"/>
      <point x="530.4000000000001" y="466.4"/>
      <point x="509.0" y="429.20000000000005"/>
      <point x="409.8" y="350.6" type="curve"/>
      <point x="291.4" y="551.2" type="line"/>
      <point x="72.8" y="543.4" type="line"/>
      <point x="237.60000000000002" y="287.6" type="line"/>
      <point x="97.19999999999999" y="172.4"/>
      <point x="37.400000000000006" y="94.6"/>
      <point x="-7.800000000000001" y="0.0" type="curve"/>
      <point x="212.4" y="0.0" type="line"/>
      <point x="243.0" y="70.0"/>
      <point x="271.20000000000005" y="129.2"/>
      <point x="360.0" y="203.39999999999998" type="curve"/>
      <point x="485.2" y="-2.4" type="line"/>
      <point x="704.8" y="2.4000000000000004" type="line"/>
      <point x="530.2" y="266.4" type="line"/>
      <point x="658.2" y="363.40000000000003"/>
      <point x="727.0" y="435.59999999999997"/>
      <point x="779.2" y="544.0" type="curve"/>
    </contour>
  </outline>
</glyph>
<glyph name="y" format="2">
  <advance width="739.8"/>
  <unicode hex="0079"/>
  <anchor x="448.2" y="-126.00000000000001" name="bottom"/>
  <anchor x="401.6" y="544.0" name="top"/>
  <outline>
    <contour>
      <point x="556.0" y="544.0" type="line"/>
      <point x="534.0" y="431.40000000000003"/>
      <point x="450.4" y="256.20000000000005"/>
      <point x="350.00000000000006" y="111.79999999999998" type="curve"/>
      <point x="238.99999999999997" y="547.0" type="line"/>
      <point x="30.800000000000004" y="545.1999999999999" type="line"/>
      <point x="182.20000000000002" y="-3.000000000000001" type="line"/>
      <point x="266.2" y="-3.000000000000001" type="line"/>
      <point x="206.20000000000002" y="-77.8"/>
      <point x="137.20000000000002" y="-148.39999999999998"/>
      <point x="69.80000000000001" y="-208.79999999999998" type="curve"/>
      <point x="292.4" y="-213.6" type="line"/>
      <point x="492.8" y="-18.40000000000001"/>
      <point x="743.4" y="371.80000000000007"/>
      <point x="761.6" y="544.0" type="curve"/>
    </contour>
  </outline>
</glyph>
<glyph name="z" format="2">
  <advance width="770.0"/>
  <unicode hex="007A"/>
  <anchor x="352.3" y="0.0" name="bottom"/>
  <anchor x="389.09999999999997" y="275.0" name="center"/>
  <anchor x="429.20000000000005" y="544.0" name="top"/>
  <outline>
    <contour>
      <point x="14.0" y="0.0" type="line"/>
      <point x="688.2" y="0.0" type="line"/>
      <point x="710.0999999999999" y="132.39999999999998" type="line"/>
      <point x="322.29999999999995" y="132.39999999999998" type="line"/>
      <point x="730.0" y="425.9" type="line"/>
      <point x="749.1" y="544.0" type="line"/>
      <point x="118.1" y="544.0" type="line"/>
      <point x="95.5" y="411.59999999999997" type="line"/>
      <point x="447.09999999999997" y="411.59999999999997" type="line"/>
      <point x="31.4" y="113.89999999999999" type="line"/>
    </contour>
  </outline>
</glyph>
<glyph name="braceleft" format="2">
  <advance width="488.0"/>
  <unicode hex="007B"/>
  <outline>
    <contour>
      <point x="77.8" y="-76.9" type="curve" smooth="yes"/>
      <point x="77.8" y="-167.4"/>
      <point x="147.6" y="-210.0"/>
      <point x="255.7" y="-210.0" type="curve" smooth="yes"/>
      <point x="373.40000000000003" y="-210.0" type="line"/>
      <point x="391.8" y="-93.4" type="line"/>
      <point x="326.59999999999997" y="-93.4" type="line" smooth="yes"/>
      <point x="274.5" y="-93.4"/>
      <point x="255.29999999999998" y="-71.10000000000001"/>
      <point x="255.29999999999998" y="-38.6" type="curve" smooth="yes"/>
      <point x="255.29999999999998" y="32.8"/>
      <point x="321.7" y="89.5"/>
      <point x="321.7" y="174.6" type="curve" smooth="yes"/>
      <point x="321.7" y="210.0"/>
      <point x="306.0" y="240.8"/>
      <point x="254.0" y="264.7" type="curve"/>
      <point x="324.3" y="290.79999999999995"/>
      <point x="360.1" y="340.7"/>
      <point x="360.1" y="416.7" type="curve" smooth="yes"/>
      <point x="360.1" y="456.3"/>
      <point x="345.59999999999997" y="480.9"/>
      <point x="345.59999999999997" y="528.0" type="curve" smooth="yes"/>
      <point x="345.59999999999997" y="576.0"/>
      <point x="369.2" y="623.4"/>
      <point x="440.8" y="623.4" type="curve" smooth="yes"/>
      <point x="506.0" y="623.4" type="line"/>
      <point x="524.4000000000001" y="740.0" type="line"/>
      <point x="406.7" y="740.0" type="line" smooth="yes"/>
      <point x="256.4" y="740.0"/>
      <point x="175.5" y="652.8"/>
      <point x="175.5" y="530.0999999999999" type="curve" smooth="yes"/>
      <point x="175.5" y="483.6"/>
      <point x="189.3" y="445.3"/>
      <point x="189.3" y="409.8" type="curve" smooth="yes"/>
      <point x="189.3" y="355.4"/>
      <point x="167.5" y="322.3"/>
      <point x="121.79999999999998" y="322.3" type="curve" smooth="yes"/>
      <point x="105.2" y="322.3" type="line"/>
      <point x="86.8" y="207.4" type="line"/>
      <point x="103.69999999999999" y="207.4" type="line" smooth="yes"/>
      <point x="138.4" y="207.4"/>
      <point x="151.5" y="191.0"/>
      <point x="151.5" y="165.4" type="curve" smooth="yes"/>
      <point x="151.5" y="93.2"/>
      <point x="77.8" y="20.4"/>
    </contour>
  </outline>
</glyph>
<glyph name="bar" format="2">
  <advance width="331.4"/>
  <unicode hex="007C"/>
  <outline>
    <contour>
      <point x="325.3" y="790.0" type="line"/>
      <point x="172.2" y="790.0" type="line"/>
      <point x="11.100000000000005" y="-210.0" type="line"/>
      <point x="163.5" y="-210.0" type="line"/>
    </contour>
  </outline>
</glyph>
<glyph name="braceright" format="2">
  <advance width="488.0"/>
  <unicode hex="007D"/>
  <outline>
    <contour>
      <point x="406.9" y="606.9" type="curve" smooth="yes"/>
      <point x="406.9" y="697.4"/>
      <point x="337.1" y="740.0"/>
      <point x="229.0" y="740.0" type="curve" smooth="yes"/>
      <point x="111.3" y="740.0" type="line"/>
      <point x="92.9" y="623.4" type="line"/>
      <point x="158.1" y="623.4" type="line" smooth="yes"/>
      <point x="210.20000000000002" y="623.4"/>
      <point x="229.40000000000003" y="601.1"/>
      <point x="229.40000000000003" y="568.6" type="curve" smooth="yes"/>
      <point x="229.40000000000003" y="497.2"/>
      <point x="163.0" y="440.5"/>
      <point x="163.0" y="355.4" type="curve" smooth="yes"/>
      <point x="163.0" y="320.0"/>
      <point x="178.70000000000002" y="289.2"/>
      <point x="230.70000000000002" y="265.3" type="curve"/>
      <point x="160.4" y="239.20000000000002"/>
      <point x="124.60000000000001" y="189.29999999999998"/>
      <point x="124.60000000000001" y="113.3" type="curve" smooth="yes"/>
      <point x="124.60000000000001" y="73.69999999999999"/>
      <point x="139.1" y="49.099999999999994"/>
      <point x="139.1" y="1.9999999999999947" type="curve" smooth="yes"/>
      <point x="139.1" y="-46.00000000000001"/>
      <point x="115.5" y="-93.4"/>
      <point x="43.9" y="-93.4" type="curve" smooth="yes"/>
      <point x="-21.300000000000004" y="-93.4" type="line"/>
      <point x="-39.7" y="-210.0" type="line"/>
      <point x="78.0" y="-210.0" type="line" smooth="yes"/>
      <point x="228.29999999999998" y="-210.0"/>
      <point x="309.20000000000005" y="-122.80000000000001"/>
      <point x="309.20000000000005" y="-0.10000000000000142" type="curve" smooth="yes"/>
      <point x="309.20000000000005" y="46.39999999999999"/>
      <point x="295.40000000000003" y="84.7"/>
      <point x="295.40000000000003" y="120.2" type="curve" smooth="yes"/>
      <point x="295.40000000000003" y="174.6"/>
      <point x="317.2" y="207.70000000000002"/>
      <point x="362.9" y="207.70000000000002" type="curve" smooth="yes"/>
      <point x="379.5" y="207.70000000000002" type="line"/>
      <point x="397.9" y="322.59999999999997" type="line"/>
      <point x="381.0" y="322.59999999999997" type="line" smooth="yes"/>
      <point x="346.3" y="322.59999999999997"/>
      <point x="333.2" y="339.0"/>
      <point x="333.2" y="364.6" type="curve" smooth="yes"/>
      <point x="333.2" y="436.79999999999995"/>
      <point x="406.9" y="509.59999999999997"/>
    </contour>
  </outline>
</glyph>
<glyph name="asciitilde" format="2">
  <advance width="676.6999999999999"/>
  <unicode hex="007E"/>
  <outline>
    <contour>
      <point x="605.6" y="232.5" type="curve"/>
      <point x="627.8" y="383.9" type="line"/>
      <point x="594.8" y="357.6"/>
      <point x="553.9" y="341.8"/>
      <point x="503.3" y="341.8" type="curve" smooth="yes"/>
      <point x="370.8" y="341.8"/>
      <point x="292.7" y="429.8"/>
      <point x="201.2" y="429.8" type="curve" smooth="yes"/>
      <point x="139.7" y="429.8"/>
      <point x="102.2" y="402.90000000000003"/>
      <point x="85.60000000000001" y="392.3" type="curve"/>
      <point x="59.900000000000006" y="240.60000000000002" type="line"/>
      <point x="96.2" y="261.8"/>
      <point x="123.00000000000001" y="276.8"/>
      <point x="176.4" y="276.8" type="curve" smooth="yes"/>
      <point x="295.2" y="276.8"/>
      <point x="368.8" y="188.8"/>
      <point x="491.1" y="188.8" type="curve" smooth="yes"/>
      <point x="529.4" y="188.8"/>
      <point x="578.1" y="209.0"/>
    </contour>
  </outline>
</glyph>
<glyph name="cent" format="2">
  <advance width="1045.2"/>
  <unicode hex="00A2"/>
  <outline>
    <contour>
      <point x="408.9" y="-104.3" type="line"/>
      <point x="545.1999999999999" y="-104.3" type="line"/>
      <point x="560.9" y="-9.0" type="line"/>
      <point x="660.3" y="-6.1"/>
      <point x="748.9" y="5.700000000000003"/>
      <point x="821.2" y="24.000000000000004" type="curve"/>
      <point x="819.7" y="155.7" type="line"/>
      <point x="724.6" y="139.20000000000002"/>
      <point x="653.0" y="130.1"/>
      <point x="586.9" y="130.1" type="curve" smooth="yes"/>
      <point x="459.6" y="130.1"/>
      <point x="393.0" y="169.0"/>
      <point x="393.0" y="245.89999999999998" type="curve" smooth="yes"/>
      <point x="393.0" y="360.40000000000003"/>
      <point x="496.2" y="410.4"/>
      <point x="620.9" y="410.4" type="curve" smooth="yes"/>
      <point x="698.7" y="410.4"/>
      <point x="751.2" y="400.2"/>
      <point x="844.1999999999999" y="379.4" type="curve"/>
      <point x="889.4000000000001" y="519.8000000000001" type="line"/>
      <point x="812.6" y="539.0"/>
      <point x="748.1" y="552.5999999999999"/>
      <point x="651.4" y="554.0" type="curve"/>
      <point x="667.8000000000001" y="649.0" type="line"/>
      <point x="531.5" y="649.0" type="line"/>
      <point x="513.0" y="540.4" type="line"/>
      <point x="311.9" y="510.0"/>
      <point x="183.60000000000002" y="395.5"/>
      <point x="183.60000000000002" y="211.5" type="curve" smooth="yes"/>
      <point x="183.60000000000002" y="81.19999999999999"/>
      <point x="270.1" y="13.399999999999999"/>
      <point x="425.70000000000005" y="-2.7" type="curve"/>
    </contour>
  </outline>
</glyph>
<glyph name="sterling" format="2">
  <advance width="1045.2"/>
  <unicode hex="00A3"/>
  <outline>
    <contour>
      <point x="115.60000000000001" y="0.0" type="line"/>
      <point x="860.4" y="0.0" type="line"/>
      <point x="882.6" y="139.0" type="line"/>
      <point x="374.59999999999997" y="139.0" type="line"/>
      <point x="438.4" y="179.20000000000002"/>
      <point x="474.0" y="219.0"/>
      <point x="474.0" y="278.40000000000003" type="curve" smooth="yes"/>
      <point x="474.0" y="323.4"/>
      <point x="430.4" y="390.00000000000006"/>
      <point x="430.4" y="447.4" type="curve" smooth="yes"/>
      <point x="430.4" y="524.8"/>
      <point x="514.6" y="565.6"/>
      <point x="641.8" y="565.6" type="curve" smooth="yes"/>
      <point x="737.2" y="565.6"/>
      <point x="813.6" y="555.6"/>
      <point x="903.1999999999998" y="527.4" type="curve"/>
      <point x="950.8" y="664.8000000000001" type="line"/>
      <point x="848.2" y="696.3999999999999"/>
      <point x="767.9999999999999" y="710.0"/>
      <point x="646.0" y="710.0" type="curve" smooth="yes"/>
      <point x="471.20000000000005" y="710.0"/>
      <point x="236.39999999999998" y="660.0"/>
      <point x="236.39999999999998" y="478.4" type="curve" smooth="yes"/>
      <point x="236.39999999999998" y="400.6"/>
      <point x="284.20000000000005" y="338.2"/>
      <point x="284.20000000000005" y="278.8" type="curve" smooth="yes"/>
      <point x="284.20000000000005" y="213.39999999999998"/>
      <point x="232.4" y="172.00000000000003"/>
      <point x="134.0" y="116.6" type="curve"/>
    </contour>
    <contour>
      <point x="143.79999999999998" y="304.6" type="line"/>
      <point x="767.8" y="305.20000000000005" type="line"/>
      <point x="784.6" y="407.2" type="line"/>
      <point x="159.6" y="407.2" type="line"/>
    </contour>
  </outline>
</glyph>
<glyph name="currency" format="2">
  <advance width="531.5"/>
  <unicode hex="00A4"/>
  <outline>
    <contour>
      <point x="113.19999999999999" y="89.2" type="line"/>
      <point x="196.8" y="167.0" type="line"/>
      <point x="209.89999999999998" y="159.6"/>
      <point x="226.2" y="155.6"/>
      <point x="244.3" y="155.6" type="curve" smooth="yes"/>
      <point x="263.5" y="155.6"/>
      <point x="282.0" y="159.9"/>
      <point x="299.0" y="167.7" type="curve"/>
      <point x="359.2" y="89.2" type="line"/>
      <point x="450.9" y="174.60000000000002" type="line"/>
      <point x="400.1" y="241.9" type="line"/>
      <point x="417.7" y="270.2"/>
      <point x="428.70000000000005" y="303.6"/>
      <point x="428.7" y="341.3" type="curve" smooth="yes"/>
      <point x="428.7" y="354.5"/>
      <point x="426.20000000000005" y="367.4"/>
      <point x="422.20000000000005" y="378.1" type="curve"/>
      <point x="493.5" y="445.4" type="line"/>
      <point x="430.3" y="530.8" type="line"/>
      <point x="345.0" y="452.3" type="line"/>
      <point x="330.79999999999995" y="460.4"/>
      <point x="313.2" y="464.7"/>
      <point x="293.3" y="464.7" type="curve" smooth="yes"/>
      <point x="275.2" y="464.7"/>
      <point x="257.7" y="460.4"/>
      <point x="242.1" y="453.0" type="curve"/>
      <point x="183.6" y="530.8" type="line"/>
      <point x="91.9" y="445.4" type="line"/>
      <point x="138.9" y="381.6" type="line"/>
      <point x="119.6" y="353.59999999999997"/>
      <point x="108.9" y="318.8"/>
      <point x="108.89999999999999" y="281.4" type="curve" smooth="yes"/>
      <point x="108.9" y="265.5"/>
      <point x="111.4" y="250.5"/>
      <point x="116.1" y="238.1" type="curve"/>
      <point x="48.599999999999994" y="174.60000000000002" type="line"/>
    </contour>
    <contour>
      <point x="259.5" y="252.6" type="curve" smooth="yes"/>
      <point x="233.29999999999998" y="252.6"/>
      <point x="215.39999999999998" y="272.3"/>
      <point x="215.4" y="299.70000000000005" type="curve" smooth="yes"/>
      <point x="215.4" y="337.1"/>
      <point x="245.7" y="367.7"/>
      <point x="277.7" y="367.7" type="curve" smooth="yes"/>
      <point x="304.6" y="367.7"/>
      <point x="322.5" y="346.9"/>
      <point x="322.5" y="320.5" type="curve" smooth="yes"/>
      <point x="322.5" y="281.0"/>
      <point x="290.7" y="252.6"/>
    </contour>
  </outline>
</glyph>
<glyph name="yen" format="2">
  <advance width="1045.2"/>
  <unicode hex="00A5"/>
  <outline>
    <contour>
      <point x="171.8" y="312.8" type="line"/>
      <point x="415.6" y="312.8" type="line"/>
      <point x="406.4" y="256.2" type="line"/>
      <point x="162.60000000000002" y="256.2" type="line"/>
      <point x="149.79999999999998" y="173.6" type="line"/>
      <point x="393.6" y="173.6" type="line"/>
      <point x="366.0" y="0.0" type="line"/>
      <point x="589.4" y="0.0" type="line"/>
      <point x="616.9999999999999" y="173.6" type="line"/>
      <point x="869.2" y="173.6" type="line"/>
      <point x="881.9999999999999" y="256.2" type="line"/>
      <point x="629.8" y="256.2" type="line"/>
      <point x="639.0" y="312.8" type="line"/>
      <point x="891.1999999999999" y="312.8" type="line"/>
      <point x="904.0" y="395.40000000000003" type="line"/>
      <point x="651.8000000000001" y="395.40000000000003" type="line"/>
      <point x="997.1999999999998" y="697.6" type="line"/>
      <point x="775.4000000000001" y="702.4" type="line"/>
      <point x="558.4" y="503.99999999999994" type="line"/>
      <point x="398.4" y="702.4000000000001" type="line"/>
      <point x="177.4" y="697.6" type="line"/>
      <point x="428.40000000000003" y="395.40000000000003" type="line"/>
      <point x="185.60000000000002" y="395.40000000000003" type="line"/>
    </contour>
  </outline>
</glyph>
<glyph name="brokenbar" format="2">
  <advance width="331.4"/>
  <unicode hex="00A6"/>
  <outline>
    <contour>
      <point x="260.6" y="391.0" type="line"/>
      <point x="325.3" y="790.0" type="line"/>
      <point x="172.20000000000002" y="790.0" type="line"/>
      <point x="107.5" y="391.0" type="line"/>
    </contour>
    <contour>
      <point x="75.80000000000001" y="190.0" type="line"/>
      <point x="11.100000000000001" y="-210.0" type="line"/>
      <point x="163.5" y="-210.0" type="line"/>
      <point x="228.2" y="190.0" type="line"/>
    </contour>
  </outline>
</glyph>
<glyph name="section" format="2">
  <advance width="695.5"/>
  <unicode hex="00A7"/>
  <outline>
    <contour>
      <point x="32.0" y="-22.200000000000003" type="curve"/>
      <point x="-30.3" y="-173.3" type="line"/>
      <point x="43.9" y="-201.7"/>
      <point x="117.99999999999999" y="-220.0"/>
      <point x="199.2" y="-220.0" type="curve" smooth="yes"/>
      <point x="430.1" y="-220.0"/>
      <point x="634.5" y="-98.8"/>
      <point x="634.5" y="145.6" type="curve" smooth="yes"/>
      <point x="634.5" y="323.6"/>
      <point x="493.90000000000003" y="416.9"/>
      <point x="493.90000000000003" y="507.30000000000007" type="curve" smooth="yes"/>
      <point x="493.90000000000003" y="561.4"/>
      <point x="528.7" y="583.3000000000001"/>
      <point x="577.2" y="583.3000000000001" type="curve" smooth="yes"/>
      <point x="600.0" y="583.3000000000001"/>
      <point x="620.0" y="577.0"/>
      <point x="640.1" y="570.2" type="curve"/>
      <point x="686.6" y="732.3" type="line"/>
      <point x="629.4000000000001" y="743.2"/>
      <point x="566.5" y="750.0"/>
      <point x="503.7" y="750.0" type="curve" smooth="yes"/>
      <point x="263.0" y="750.0"/>
      <point x="69.4" y="618.9"/>
      <point x="69.4" y="399.0" type="curve" smooth="yes"/>
      <point x="69.4" y="205.6"/>
      <point x="213.5" y="110.69999999999999"/>
      <point x="213.5" y="13.799999999999992" type="curve" smooth="yes"/>
      <point x="213.5" y="-29.000000000000004"/>
      <point x="186.0" y="-55.50000000000001"/>
      <point x="143.4" y="-55.50000000000001" type="curve" smooth="yes"/>
      <point x="109.1" y="-55.50000000000001"/>
      <point x="71.6" y="-40.30000000000001"/>
    </contour>
    <contour>
      <point x="438.5" y="641.5" type="curve"/>
      <point x="364.7" y="611.5999999999999"/>
      <point x="340.09999999999997" y="553.3"/>
      <point x="340.09999999999997" y="487.5" type="curve" smooth="yes"/>
      <point x="340.09999999999997" y="366.90000000000003"/>
      <point x="470.9" y="220.3"/>
      <point x="470.9" y="97.1" type="curve" smooth="yes"/>
      <point x="470.9" y="-39.600000000000016"/>
      <point x="358.20000000000005" y="-128.7"/>
      <point x="224.2" y="-125.10000000000001" type="curve"/>
      <point x="310.2" y="-105.0"/>
      <point x="368.29999999999995" y="-37.300000000000004"/>
      <point x="368.29999999999995" y="41.89999999999999" type="curve" smooth="yes"/>
      <point x="368.29999999999995" y="154.79999999999998"/>
      <point x="240.2" y="288.5"/>
      <point x="240.2" y="421.7" type="curve" smooth="yes"/>
      <point x="240.2" y="544.0"/>
      <point x="308.0" y="627.4"/>
    </contour>
  </outline>
</glyph>
<glyph name="copyright" format="2">
  <advance width="933.8000000000002"/>
  <unicode hex="00A9"/>
  <outline>
    <contour>
      <point x="451.40000000000003" y="-10.0" type="curve" smooth="yes"/>
      <point x="713.4" y="-12.4"/>
      <point x="888.2" y="135.00000000000003"/>
      <point x="888.2" y="387.0" type="curve" smooth="yes"/>
      <point x="888.2" y="588.6"/>
      <point x="736.2" y="707.6"/>
      <point x="504.59999999999997" y="709.9999999999999" type="curve" smooth="yes"/>
      <point x="248.0" y="712.4"/>
      <point x="69.60000000000001" y="569.2"/>
      <point x="69.60000000000001" y="313.0" type="curve" smooth="yes"/>
      <point x="69.60000000000001" y="112.60000000000001"/>
      <point x="219.2" y="-7.6"/>
    </contour>
    <contour>
      <point x="465.2" y="173.0" type="curve" smooth="yes"/>
      <point x="543.2" y="173.0"/>
      <point x="611.0" y="188.4"/>
      <point x="663.6" y="207.4" type="curve"/>
      <point x="652.1999999999999" y="290.8" type="line"/>
      <point x="597.8000000000001" y="276.79999999999995"/>
      <point x="543.0000000000001" y="267.2"/>
      <point x="492.80000000000007" y="267.2" type="curve" smooth="yes"/>
      <point x="415.8" y="267.2"/>
      <point x="375.4" y="293.6"/>
      <point x="375.4" y="344.59999999999997" type="curve" smooth="yes"/>
      <point x="375.4" y="407.2"/>
      <point x="422.20000000000005" y="435.79999999999995"/>
      <point x="513.8000000000001" y="435.79999999999995" type="curve" smooth="yes"/>
      <point x="566.4000000000001" y="435.79999999999995"/>
      <point x="610.6" y="430.59999999999997"/>
      <point x="662.8000000000001" y="420.4" type="curve"/>
      <point x="685.4" y="509.6" type="line"/>
      <point x="637.2" y="522.2"/>
      <point x="580.0" y="530.4000000000001"/>
      <point x="517.8000000000001" y="530.4000000000001" type="curve" smooth="yes"/>
      <point x="357.80000000000007" y="530.4000000000001"/>
      <point x="253.39999999999998" y="469.6"/>
      <point x="253.39999999999998" y="336.0" type="curve" smooth="yes"/>
      <point x="253.39999999999998" y="232.60000000000002"/>
      <point x="335.20000000000005" y="173.0"/>
    </contour>
    <contour>
      <point x="462.00000000000006" y="65.2" type="curve" smooth="yes"/>
      <point x="267.6" y="65.2"/>
      <point x="156.2" y="152.2"/>
      <point x="156.2" y="322.80000000000007" type="curve" smooth="yes"/>
      <point x="156.2" y="523.2"/>
      <point x="283.40000000000003" y="635.4000000000001"/>
      <point x="494.6" y="635.4000000000001" type="curve" smooth="yes"/>
      <point x="682.0" y="635.4000000000001"/>
      <point x="801.6" y="547.8000000000001"/>
      <point x="801.6" y="376.6" type="curve" smooth="yes"/>
      <point x="801.6" y="176.2"/>
      <point x="673.2" y="65.2"/>
    </contour>
  </outline>
</glyph>
<glyph name="ordfeminine" format="2">
  <advance width="579.8"/>
  <unicode hex="00AA"/>
  <outline>
    <contour>
      <point x="35.5" y="201.5" type="line"/>
      <point x="509.5" y="201.5" type="line"/>
      <point x="525.1" y="301.40000000000003" type="line"/>
      <point x="51.1" y="301.40000000000003" type="line"/>
    </contour>
    <component base="a.superior" xOffset="11.000000000000002"/>
  </outline>
</glyph>
<glyph name="logicalnot" format="2">
  <advance width="672.6"/>
  <unicode hex="00AC"/>
  <outline>
    <contour>
      <point x="66.7" y="311.9" type="line"/>
      <point x="476.0" y="311.9" type="line"/>
      <point x="452.4" y="159.5" type="line"/>
      <point x="592.9" y="159.5" type="line"/>
      <point x="641.2" y="460.8" type="line"/>
      <point x="91.4" y="460.8" type="line"/>
    </contour>
  </outline>
</glyph>
<glyph name="registered" format="2">
  <advance width="870.4000000000001"/>
  <unicode hex="00AE"/>
  <outline>
    <contour>
      <point x="449.2" y="209.6" type="curve" smooth="yes"/>
      <point x="704.4" y="209.6"/>
      <point x="856.2" y="356.0"/>
      <point x="856.2" y="581.4" type="curve" smooth="yes"/>
      <point x="856.2" y="770.5999999999999"/>
      <point x="730.0" y="892.4"/>
      <point x="508.6" y="892.4" type="curve" smooth="yes"/>
      <point x="253.39999999999998" y="892.4"/>
      <point x="102.2" y="746.0"/>
      <point x="102.2" y="520.6000000000001" type="curve" smooth="yes"/>
      <point x="102.2" y="332.00000000000006"/>
      <point x="227.2" y="209.6"/>
    </contour>
    <contour>
      <point x="458.4" y="283.79999999999995" type="curve" smooth="yes"/>
      <point x="276.2" y="283.79999999999995"/>
      <point x="180.2" y="379.40000000000003"/>
      <point x="180.2" y="521.6" type="curve" smooth="yes"/>
      <point x="180.2" y="717.2"/>
      <point x="301.2" y="818.8000000000001"/>
      <point x="500.0" y="818.8000000000001" type="curve" smooth="yes"/>
      <point x="682.2" y="818.8000000000001"/>
      <point x="778.2" y="722.6"/>
      <point x="778.2" y="580.4" type="curve" smooth="yes"/>
      <point x="778.2" y="384.79999999999995"/>
      <point x="656.6000000000001" y="283.79999999999995"/>
    </contour>
    <contour>
      <point x="275.2" y="404.19999999999993" type="line"/>
      <point x="376.20000000000005" y="404.19999999999993" type="line"/>
      <point x="392.59999999999997" y="503.0" type="line"/>
      <point x="412.6000000000001" y="503.0"/>
      <point x="434.40000000000003" y="502.40000000000003"/>
      <point x="460.40000000000003" y="503.0" type="curve"/>
      <point x="561.0" y="531.4" type="line"/>
      <point x="626.2" y="530.6"/>
      <point x="682.0" y="549.4"/>
      <point x="682.0" y="630.1999999999999" type="curve" smooth="yes"/>
      <point x="682.0" y="685.5999999999999"/>
      <point x="634.5999999999999" y="709.6"/>
      <point x="499.40000000000003" y="709.6" type="curve" smooth="yes"/>
      <point x="469.0" y="709.6"/>
      <point x="410.4" y="709.1999999999999"/>
      <point x="323.00000000000006" y="704.8" type="curve"/>
    </contour>
    <contour>
      <point x="463.59999999999997" y="565.4" type="curve" smooth="yes"/>
      <point x="447.4000000000001" y="565.4"/>
      <point x="434.79999999999995" y="566.4"/>
      <point x="402.8" y="566.4000000000001" type="curve"/>
      <point x="413.2" y="635.8" type="line"/>
      <point x="455.40000000000003" y="637.0"/>
      <point x="461.5999999999999" y="637.0"/>
      <point x="494.6" y="637.0" type="curve" smooth="yes"/>
      <point x="556.6" y="637.0"/>
      <point x="575.6" y="630.6"/>
      <point x="575.6" y="608.8" type="curve" smooth="yes"/>
      <point x="575.6" y="573.8"/>
      <point x="561.2" y="565.4"/>
    </contour>
    <contour>
      <point x="653.1999999999999" y="400.4" type="curve" smooth="yes"/>
      <point x="655.5999999999999" y="400.4"/>
      <point x="658.6" y="400.4"/>
      <point x="661.2" y="400.4" type="curve"/>
      <point x="674.8" y="489.8" type="line"/>
      <point x="672.2" y="489.8"/>
      <point x="669.8" y="489.8"/>
      <point x="667.4" y="489.8" type="curve" smooth="yes"/>
      <point x="649.1999999999999" y="489.8"/>
      <point x="597.2" y="511.40000000000003"/>
      <point x="560.2" y="538.8000000000001" type="curve"/>
      <point x="434.8" y="509.79999999999995" type="line"/>
      <point x="504.80000000000007" y="460.79999999999995"/>
      <point x="576.0" y="400.4"/>
    </contour>
  </outline>
</glyph>
<glyph name="degree" format="2">
  <advance width="409.8"/>
  <unicode hex="00B0"/>
  <outline>
    <contour>
      <point x="226.4" y="373.0" type="curve" smooth="yes"/>
      <point x="332.0" y="373.0"/>
      <point x="414.40000000000003" y="454.59999999999997"/>
      <point x="414.40000000000003" y="574.1999999999999" type="curve" smooth="yes"/>
      <point x="414.40000000000003" y="646.5999999999999"/>
      <point x="373.0" y="714.0"/>
      <point x="268.2" y="714.0" type="curve" smooth="yes"/>
      <point x="163.2" y="714.0"/>
      <point x="80.8" y="631.1999999999999"/>
      <point x="80.8" y="512.1999999999999" type="curve" smooth="yes"/>
      <point x="80.8" y="440.4"/>
      <point x="121.6" y="373.0"/>
    </contour>
    <contour>
      <point x="239.4" y="487.0" type="curve" smooth="yes"/>
      <point x="212.4" y="487.0"/>
      <point x="197.0" y="505.59999999999997"/>
      <point x="197.0" y="531.2" type="curve" smooth="yes"/>
      <point x="197.0" y="571.4000000000001"/>
      <point x="222.79999999999998" y="600.0"/>
      <point x="255.8" y="600.0" type="curve" smooth="yes"/>
      <point x="283.4" y="600.0"/>
      <point x="298.2" y="581.4000000000001"/>
      <point x="298.2" y="555.1999999999999" type="curve" smooth="yes"/>
      <point x="298.2" y="516.2"/>
      <point x="271.8" y="487.0"/>
    </contour>
  </outline>
</glyph>
<glyph name="plusminus" format="2">
  <advance width="674.0"/>
  <unicode hex="00B1"/>
  <outline>
    <contour>
      <point x="570.6" y="21.500000000000004" type="line"/>
      <point x="595.3" y="170.4" type="line"/>
      <point x="402.9" y="170.4" type="line"/>
      <point x="424.4" y="306.0" type="line"/>
      <point x="616.8" y="306.0" type="line"/>
      <point x="641.5" y="454.90000000000003" type="line"/>
      <point x="449.1" y="454.90000000000003" type="line"/>
      <point x="473.0" y="606.9" type="line"/>
      <point x="307.3" y="606.9" type="line"/>
      <point x="282.0" y="454.90000000000003" type="line"/>
      <point x="91.7" y="454.90000000000003" type="line"/>
      <point x="67.0" y="306.0" type="line"/>
      <point x="258.7" y="306.0" type="line"/>
      <point x="235.79999999999998" y="170.4" type="line"/>
      <point x="45.5" y="170.4" type="line"/>
      <point x="20.8" y="21.500000000000004" type="line"/>
    </contour>
  </outline>
</glyph>
<glyph name="uni00B2" format="2">
  <advance width="621.1"/>
  <unicode hex="00B2"/>
  <outline>
    <contour>
      <point x="76.4" y="370.0" type="line"/>
      <point x="579.9" y="370.0" type="line"/>
      <point x="594.6" y="455.29999999999995" type="line"/>
      <point x="338.2" y="455.29999999999995" type="line"/>
      <point x="452.5" y="503.0"/>
      <point x="555.9" y="557.0"/>
      <point x="555.9" y="651.6" type="curve" smooth="yes"/>
      <point x="555.9" y="739.1999999999999"/>
      <point x="459.7" y="772.1"/>
      <point x="362.0" y="772.1" type="curve" smooth="yes"/>
      <point x="292.5" y="772.1"/>
      <point x="191.89999999999998" y="751.6"/>
      <point x="133.8" y="724.6" type="curve"/>
      <point x="160.5" y="639.0" type="line"/>
      <point x="213.10000000000002" y="663.8"/>
      <point x="266.90000000000003" y="677.0"/>
      <point x="311.3" y="677.0" type="curve" smooth="yes"/>
      <point x="359.1" y="677.0"/>
      <point x="392.59999999999997" y="659.3"/>
      <point x="392.59999999999997" y="625.1" type="curve" smooth="yes"/>
      <point x="392.6" y="549.6"/>
      <point x="293.40000000000003" y="506.0"/>
      <point x="85.5" y="437.20000000000005" type="curve"/>
    </contour>
  </outline>
</glyph>
<glyph name="uni00B3" format="2">
  <advance width="596.0"/>
  <unicode hex="00B3"/>
  <outline>
    <contour>
      <point x="49.099999999999994" y="400.4" type="line"/>
      <point x="115.89999999999999" y="371.90000000000003"/>
      <point x="207.4" y="362.59999999999997"/>
      <point x="300.9" y="362.59999999999997" type="curve" smooth="yes"/>
      <point x="455.8" y="362.59999999999997"/>
      <point x="592.3" y="394.7"/>
      <point x="592.3" y="500.0" type="curve" smooth="yes"/>
      <point x="592.3" y="537.0"/>
      <point x="562.3" y="569.1999999999999"/>
      <point x="502.4" y="582.0" type="curve"/>
      <point x="559.0" y="593.2"/>
      <point x="601.0" y="626.0999999999999"/>
      <point x="601.0" y="674.3000000000001" type="curve" smooth="yes"/>
      <point x="601.0" y="737.0999999999999"/>
      <point x="512.4" y="772.1"/>
      <point x="351.09999999999997" y="772.1" type="curve" smooth="yes"/>
      <point x="272.1" y="772.1"/>
      <point x="175.0" y="760.7"/>
      <point x="127.4" y="747.4" type="curve"/>
      <point x="128.9" y="662.1" type="line"/>
      <point x="192.3" y="674.6999999999999"/>
      <point x="269.6" y="681.2"/>
      <point x="326.0" y="681.2" type="curve" smooth="yes"/>
      <point x="407.79999999999995" y="681.2"/>
      <point x="459.4" y="670.4"/>
      <point x="459.4" y="648.0" type="curve" smooth="yes"/>
      <point x="459.4" y="620.9000000000001"/>
      <point x="417.4" y="608.0"/>
      <point x="328.90000000000003" y="608.0" type="curve" smooth="yes"/>
      <point x="205.20000000000002" y="608.0" type="line"/>
      <point x="192.0" y="531.8" type="line"/>
      <point x="298.20000000000005" y="531.8" type="line" smooth="yes"/>
      <point x="419.1" y="531.8"/>
      <point x="451.8" y="516.5"/>
      <point x="451.8" y="492.1" type="curve" smooth="yes"/>
      <point x="451.8" y="461.0"/>
      <point x="396.0" y="448.6"/>
      <point x="295.7" y="448.6" type="curve" smooth="yes"/>
      <point x="211.29999999999998" y="448.6"/>
      <point x="134.0" y="462.1"/>
      <point x="84.6" y="481.2" type="curve"/>
    </contour>
  </outline>
</glyph>
<glyph name="uni00B5" format="2">
  <advance width="844.5"/>
  <unicode hex="00B5"/>
  <outline>
    <contour>
      <point x="2.1000000000000014" y="-210.0" type="line"/>
      <point x="205.89999999999998" y="-210.0" type="line"/>
      <point x="243.1" y="22.299999999999997" type="line"/>
      <point x="255.2" y="2.3999999999999986"/>
      <point x="279.4" y="-10.0"/>
      <point x="315.9" y="-10.0" type="curve" smooth="yes"/>
      <point x="390.1" y="-10.0"/>
      <point x="465.9" y="20.4"/>
      <point x="541.3" y="74.3" type="curve"/>
      <point x="558.8" y="23.299999999999997"/>
      <point x="606.8000000000001" y="-10.0"/>
      <point x="673.5999999999999" y="-10.0" type="curve" smooth="yes"/>
      <point x="715.1999999999999" y="-10.0"/>
      <point x="763.2" y="2.0999999999999988"/>
      <point x="798.9" y="25.9" type="curve"/>
      <point x="796.6" y="138.8" type="line"/>
      <point x="783.3" y="134.5"/>
      <point x="774.0" y="133.6"/>
      <point x="769.8000000000001" y="133.6" type="curve" smooth="yes"/>
      <point x="751.4" y="133.6"/>
      <point x="738.0999999999999" y="143.5"/>
      <point x="738.0999999999999" y="172.79999999999998" type="curve" smooth="yes"/>
      <point x="738.0999999999999" y="179.8"/>
      <point x="739.1" y="194.39999999999998"/>
      <point x="796.1" y="544.0" type="curve"/>
      <point x="590.6" y="544.0" type="line"/>
      <point x="535.3" y="182.2" type="line"/>
      <point x="479.6" y="154.9"/>
      <point x="419.7" y="135.0"/>
      <point x="360.5" y="135.0" type="curve" smooth="yes"/>
      <point x="302.90000000000003" y="135.0"/>
      <point x="272.6" y="158.7"/>
      <point x="272.59999999999997" y="209.3" type="curve" smooth="yes"/>
      <point x="272.6" y="233.09999999999997"/>
      <point x="277.1" y="256.20000000000005"/>
      <point x="325.8" y="544.0" type="curve"/>
      <point x="120.60000000000001" y="544.0" type="line"/>
    </contour>
  </outline>
</glyph>
<glyph name="paragraph" format="2">
  <advance width="812.8"/>
  <unicode hex="00B6"/>
  <outline>
    <contour>
      <point x="496.8" y="-210.0" type="line"/>
      <point x="647.0999999999999" y="-210.0" type="line"/>
      <point x="797.8" y="740.0" type="line"/>
      <point x="647.5" y="740.0" type="line"/>
    </contour>
    <contour>
      <point x="316.8" y="297.09999999999997" type="line"/>
      <point x="271.0" y="305.0"/>
      <point x="239.89999999999998" y="340.70000000000005"/>
      <point x="239.89999999999998" y="396.79999999999995" type="curve" smooth="yes"/>
      <point x="239.89999999999998" y="490.49999999999994"/>
      <point x="283.9" y="591.1"/>
      <point x="404.3" y="592.0" type="curve"/>
      <point x="277.59999999999997" y="-210.0" type="line"/>
      <point x="427.90000000000003" y="-210.0" type="line"/>
      <point x="578.6" y="740.0" type="line"/>
      <point x="468.19999999999993" y="740.0" type="line" smooth="yes"/>
      <point x="216.3" y="740.0"/>
      <point x="79.2" y="631.0"/>
      <point x="79.2" y="399.20000000000005" type="curve" smooth="yes"/>
      <point x="79.2" y="274.9"/>
      <point x="151.7" y="203.7"/>
      <point x="285.2" y="193.0" type="curve"/>
    </contour>
  </outline>
</glyph>
<glyph name="periodcentered" format="2">
  <advance width="333.6"/>
  <unicode hex="00B7"/>
  <outline>
    <contour>
      <point x="59.8" y="292.59999999999997" type="curve" smooth="yes"/>
      <point x="59.2" y="247.2"/>
      <point x="90.80000000000001" y="222.39999999999998"/>
      <point x="157.2" y="222.39999999999998" type="curve" smooth="yes"/>
      <point x="233.60000000000002" y="222.39999999999998"/>
      <point x="282.2" y="251.4"/>
      <point x="282.8" y="321.6" type="curve" smooth="yes"/>
      <point x="283.4" y="368.4"/>
      <point x="251.79999999999998" y="393.2"/>
      <point x="185.79999999999998" y="393.2" type="curve" smooth="yes"/>
      <point x="110.4" y="393.2"/>
      <point x="60.400000000000006" y="360.0"/>
    </contour>
  </outline>
</glyph>
<glyph name="uni00B9" format="2">
  <advance width="541.9"/>
  <unicode hex="00B9"/>
  <outline>
    <contour>
      <point x="65.6" y="370.0" type="line"/>
      <point x="530.6" y="370.0" type="line"/>
      <point x="545.2" y="455.3" type="line"/>
      <point x="401.4" y="455.3" type="line"/>
      <point x="450.8" y="765.2" type="line"/>
      <point x="365.2" y="765.2" type="line"/>
      <point x="95.0" y="666.0999999999999" type="line"/>
      <point x="111.0" y="571.0" type="line"/>
      <point x="276.40000000000003" y="633.0" type="line"/>
      <point x="246.5" y="455.3" type="line"/>
      <point x="79.89999999999999" y="455.3" type="line"/>
    </contour>
  </outline>
</glyph>
<glyph name="ordmasculine" format="2">
  <advance width="552.5"/>
  <unicode hex="00BA"/>
  <outline>
    <contour>
      <point x="33.300000000000004" y="201.5" type="line"/>
      <point x="494.0" y="201.5" type="line"/>
      <point x="509.59999999999997" y="301.40000000000003" type="line"/>
      <point x="48.9" y="301.40000000000003" type="line"/>
    </contour>
    <component base="o.superior" xOffset="8.0"/>
  </outline>
</glyph>
<glyph name="AE" format="2">
  <advance width="1489.8"/>
  <unicode hex="00C6"/>
  <anchor x="715.6" y="0.0" name="bottom"/>
  <anchor x="870.6" y="700.0" name="top"/>
  <outline>
    <contour>
      <point x="613.0000000000001" y="0.0" type="line"/>
      <point x="1399.4" y="0.0" type="line"/>
      <point x="1425.6" y="157.0" type="line"/>
      <point x="839.0" y="157.0" type="line"/>
      <point x="859.4" y="286.2" type="line"/>
      <point x="1388.3999999999999" y="286.2" type="line"/>
      <point x="1412.3999999999999" y="430.8" type="line"/>
      <point x="882.8000000000001" y="430.8" type="line"/>
      <point x="900.8" y="543.0000000000001" type="line"/>
      <point x="1460.0" y="543.0000000000001" type="line"/>
      <point x="1486.2" y="700.0" type="line"/>
      <point x="608.6" y="700.0" type="line"/>
      <point x="-42.8" y="0.0" type="line"/>
      <point x="196.4" y="0.0" type="line"/>
      <point x="387.0" y="207.4" type="line"/>
      <point x="645.9999999999999" y="207.4" type="line"/>
    </contour>
    <contour>
      <point x="495.8" y="342.20000000000005" type="line"/>
      <point x="704.0" y="574.4" type="line"/>
      <point x="666.4000000000001" y="342.20000000000005" type="line"/>
    </contour>
  </outline>
</glyph>
<glyph name="multiply" format="2">
  <advance width="594.1999999999999"/>
  <unicode hex="00D7"/>
  <outline>
    <contour>
      <point x="116.7" y="70.0" type="line"/>
      <point x="288.79999999999995" y="214.20000000000002" type="line"/>
      <point x="421.90000000000003" y="60.60000000000001" type="line"/>
      <point x="525.9" y="176.1" type="line"/>
      <point x="410.3" y="309.40000000000003" type="line"/>
      <point x="570.4" y="443.8" type="line"/>
      <point x="490.09999999999997" y="551.9" type="line"/>
      <point x="316.7" y="406.3" type="line"/>
      <point x="181.4" y="560.3" type="line"/>
      <point x="79.5" y="451.1" type="line"/>
      <point x="198.0" y="311.79999999999995" type="line"/>
      <point x="35.7" y="174.6" type="line"/>
    </contour>
  </outline>
</glyph>
<glyph name="Oslash" format="2">
  <advance width="1100.9999999999998"/>
  <unicode hex="00D8"/>
  <anchor x="599.0" y="700.0" name="top"/>
  <outline>
    <contour>
      <point x="1146.9999999999998" y="714.0" type="line"/>
      <point x="945.8" y="714.0" type="line"/>
      <point x="801.4" y="608.0" type="line"/>
      <point x="803.0000000000001" y="606.4" type="line"/>
      <point x="209.4" y="173.8" type="line"/>
      <point x="210.4" y="171.8" type="line"/>
      <point x="-35.599999999999994" y="-11.0" type="line"/>
      <point x="164.2" y="-11.0" type="line"/>
      <point x="303.20000000000005" y="90.60000000000001" type="line"/>
      <point x="301.6" y="92.19999999999999" type="line"/>
      <point x="924.0" y="545.4000000000001" type="line"/>
      <point x="923.0" y="547.4" type="line"/>
    </contour>
    <contour>
      <point x="535.8" y="-10.0" type="curve" smooth="yes"/>
      <point x="866.4" y="-10.0"/>
      <point x="1055.0" y="131.79999999999998"/>
      <point x="1055.0" y="391.00000000000006" type="curve" smooth="yes"/>
      <point x="1055.0" y="599.4000000000001"/>
      <point x="904.8" y="710.6"/>
      <point x="575.0" y="710.6" type="curve" smooth="yes"/>
      <point x="244.4" y="710.6"/>
      <point x="55.8" y="568.8"/>
      <point x="55.8" y="309.6" type="curve" smooth="yes"/>
      <point x="55.8" y="101.2"/>
      <point x="205.99999999999997" y="-10.0"/>
    </contour>
    <contour>
      <point x="545.6" y="129.2" type="curve" smooth="yes"/>
      <point x="355.4" y="129.2"/>
      <point x="270.0" y="195.6"/>
      <point x="270.0" y="324.4" type="curve" smooth="yes"/>
      <point x="270.0" y="482.0"/>
      <point x="380.0" y="571.3999999999999"/>
      <point x="565.1999999999999" y="571.3999999999999" type="curve" smooth="yes"/>
      <point x="755.4" y="571.3999999999999"/>
      <point x="840.8" y="505.00000000000006"/>
      <point x="840.8" y="376.20000000000005" type="curve" smooth="yes"/>
      <point x="840.8" y="218.60000000000002"/>
      <point x="730.8000000000001" y="129.2"/>
    </contour>
  </outline>
</glyph>
<glyph name="Thorn" format="2">
  <advance width="1036.6"/>
  <unicode hex="00DE"/>
  <outline>
    <contour>
      <point x="47.8" y="0.0" type="line"/>
      <point x="263.5" y="0.0" type="line"/>
      <point x="282.8" y="116.8" type="line"/>
      <point x="390.59999999999997" y="112.80000000000001"/>
      <point x="435.0" y="111.80000000000001"/>
      <point x="501.80000000000007" y="111.80000000000001" type="curve" smooth="yes"/>
      <point x="881.4" y="111.80000000000001"/>
      <point x="1019.2" y="189.7"/>
      <point x="1019.2" y="399.09999999999997" type="curve" smooth="yes"/>
      <point x="1019.2" y="565.1999999999999"/>
      <point x="910.0" y="634.9"/>
      <point x="577.8000000000001" y="634.9" type="curve" smooth="yes"/>
      <point x="539.7" y="634.9"/>
      <point x="477.40000000000003" y="633.5999999999999"/>
      <point x="366.1" y="630.5" type="curve"/>
      <point x="378.4" y="700.0" type="line"/>
      <point x="162.7" y="700.0" type="line"/>
    </contour>
    <contour>
      <point x="491.70000000000005" y="263.5" type="curve" smooth="yes"/>
      <point x="429.3" y="263.5"/>
      <point x="393.79999999999995" y="264.5"/>
      <point x="308.2" y="268.8" type="curve"/>
      <point x="341.7" y="479.90000000000003" type="line"/>
      <point x="472.2" y="485.09999999999997"/>
      <point x="501.2" y="485.7"/>
      <point x="570.5999999999999" y="485.7" type="curve" smooth="yes"/>
      <point x="739.8000000000001" y="485.7"/>
      <point x="794.4" y="457.9"/>
      <point x="794.4" y="393.0" type="curve" smooth="yes"/>
      <point x="794.4" y="298.0"/>
      <point x="737.0" y="263.5"/>
    </contour>
  </outline>
</glyph>
<glyph name="germandbls" format="2">
  <advance width="972.8"/>
  <unicode hex="00DF"/>
  <outline>
    <contour>
      <point x="84.4" y="8.199999999999992" type="line" smooth="yes"/>
      <point x="77.0" y="-42.00000000000001"/>
      <point x="56.400000000000006" y="-71.4"/>
      <point x="19.599999999999998" y="-71.4" type="curve" smooth="yes"/>
      <point x="7.0" y="-71.4"/>
      <point x="-9.999999999999998" y="-69.4"/>
      <point x="-24.80000000000001" y="-64.00000000000001" type="curve"/>
      <point x="-56.800000000000004" y="-197.20000000000002" type="line"/>
      <point x="-18.200000000000003" y="-213.8"/>
      <point x="27.4" y="-220.0"/>
      <point x="77.99999999999999" y="-220.0" type="curve" smooth="yes"/>
      <point x="189.20000000000002" y="-220.0"/>
      <point x="258.2" y="-144.60000000000002"/>
      <point x="277.4" y="-21.600000000000005" type="curve" smooth="yes"/>
      <point x="354.8" y="470.00000000000006" type="line" smooth="yes"/>
      <point x="372.6" y="581.8"/>
      <point x="451.0" y="619.2"/>
      <point x="594.0" y="619.2" type="curve" smooth="yes"/>
      <point x="697.5999999999999" y="619.2"/>
      <point x="740.8" y="603.0000000000001"/>
      <point x="740.8" y="576.8" type="curve" smooth="yes"/>
      <point x="740.8" y="551.6"/>
      <point x="726.6" y="538.8000000000001"/>
      <point x="602.6" y="522.6" type="curve" smooth="yes"/>
      <point x="472.8" y="505.6"/>
      <point x="414.79999999999995" y="457.0"/>
      <point x="414.79999999999995" y="355.4" type="curve" smooth="yes"/>
      <point x="414.79999999999995" y="265.20000000000005"/>
      <point x="472.4" y="220.8"/>
      <point x="617.5999999999999" y="202.8" type="curve" smooth="yes"/>
      <point x="732.3999999999999" y="188.4"/>
      <point x="769.8000000000001" y="179.0"/>
      <point x="769.8000000000001" y="149.79999999999998" type="curve" smooth="yes"/>
      <point x="769.8000000000001" y="116.39999999999999"/>
      <point x="727.4" y="108.79999999999998"/>
      <point x="651.0" y="108.79999999999998" type="curve" smooth="yes"/>
      <point x="573.8" y="108.79999999999998"/>
      <point x="457.0" y="126.99999999999999"/>
      <point x="382.20000000000005" y="150.6" type="curve"/>
      <point x="347.4" y="31.8" type="line"/>
      <point x="435.40000000000003" y="5.3999999999999995"/>
      <point x="535.6" y="-10.600000000000001"/>
      <point x="626.4" y="-10.600000000000001" type="curve" smooth="yes"/>
      <point x="854.8" y="-10.600000000000001"/>
      <point x="955.8000000000001" y="41.6"/>
      <point x="955.8000000000001" y="168.59999999999997" type="curve" smooth="yes"/>
      <point x="955.8000000000001" y="254.59999999999997"/>
      <point x="893.6" y="307.2"/>
      <point x="757.0" y="321.4" type="curve" smooth="yes"/>
      <point x="623.4000000000001" y="335.2"/>
      <point x="590.0" y="341.6"/>
      <point x="590.0" y="372.40000000000003" type="curve" smooth="yes"/>
      <point x="590.0" y="400.20000000000005"/>
      <point x="623.1999999999999" y="407.80000000000007"/>
      <point x="731.8" y="421.4" type="curve" smooth="yes"/>
      <point x="865.4" y="437.6"/>
      <point x="905.2" y="495.59999999999997"/>
      <point x="905.2" y="584.8000000000001" type="curve" smooth="yes"/>
      <point x="905.2" y="691.8"/>
      <point x="807.2" y="750.0"/>
      <point x="586.6" y="750.0" type="curve" smooth="yes"/>
      <point x="330.6" y="750.0"/>
      <point x="193.79999999999998" y="681.6"/>
      <point x="164.2" y="498.2" type="curve" smooth="yes"/>
      <point x="162.2" y="484.0" type="line"/>
      <point x="46.6" y="467.6" type="line"/>
      <point x="27.2" y="353.00000000000006" type="line"/>
      <point x="138.99999999999997" y="353.00000000000006" type="line"/>
    </contour>
  </outline>
</glyph>
<glyph name="ae" format="2">
  <advance width="1285.0"/>
  <unicode hex="00E6"/>
  <anchor x="597.6" y="0.0" name="bottom"/>
  <anchor x="680.5999999999999" y="544.0" name="top"/>
  <outline>
    <contour>
      <point x="277.0" y="-10.0" type="curve" smooth="yes"/>
      <point x="359.59999999999997" y="-10.0"/>
      <point x="443.79999999999995" y="20.0"/>
      <point x="516.0" y="62.000000000000014" type="curve"/>
      <point x="506.0" y="4.440892098500626e-16" type="line"/>
      <point x="686.4" y="4.440892098500626e-16" type="line"/>
      <point x="697.1999999999998" y="68.6" type="line"/>
      <point x="742.8" y="22.6"/>
      <point x="821.8" y="-10.0"/>
      <point x="934.6" y="-10.0" type="curve" smooth="yes"/>
      <point x="1024.2" y="-10.0"/>
      <point x="1120.2" y="5.800000000000001"/>
      <point x="1200.6" y="30.599999999999998" type="curve"/>
      <point x="1184.8000000000002" y="161.59999999999997" type="line"/>
      <point x="1086.2" y="133.79999999999998"/>
      <point x="982.3999999999999" y="121.0"/>
      <point x="929.0" y="121.0" type="curve" smooth="yes"/>
      <point x="794.0" y="121.0"/>
      <point x="723.4" y="164.8"/>
      <point x="723.4" y="244.39999999999998" type="curve" smooth="yes"/>
      <point x="723.4" y="351.8"/>
      <point x="811.8000000000002" y="428.2"/>
      <point x="938.0000000000001" y="428.2" type="curve" smooth="yes"/>
      <point x="1008.0000000000002" y="428.2"/>
      <point x="1043.1999999999998" y="408.6"/>
      <point x="1043.1999999999998" y="372.6" type="curve" smooth="yes"/>
      <point x="1043.1999999999998" y="327.8"/>
      <point x="968.4000000000001" y="305.20000000000005"/>
      <point x="834.6" y="303.4" type="curve" smooth="yes"/>
      <point x="780.1999999999999" y="302.40000000000003"/>
      <point x="732.5999999999999" y="305.0"/>
      <point x="693.9999999999999" y="311.8" type="curve"/>
      <point x="705.4" y="222.79999999999998" type="line"/>
      <point x="756.4000000000001" y="211.8"/>
      <point x="823.4000000000001" y="204.6"/>
      <point x="906.6000000000001" y="205.6" type="curve" smooth="yes"/>
      <point x="1136.0" y="207.39999999999998"/>
      <point x="1257.2" y="278.4"/>
      <point x="1257.2" y="386.79999999999995" type="curve" smooth="yes"/>
      <point x="1257.2" y="492.80000000000007"/>
      <point x="1162.6000000000001" y="554.0"/>
      <point x="1010.7999999999998" y="554.0" type="curve" smooth="yes"/>
      <point x="903.0" y="554.0"/>
      <point x="816.4" y="523.8"/>
      <point x="764.2" y="485.19999999999993" type="curve"/>
      <point x="772.8" y="544.0" type="line"/>
      <point x="591.8" y="544.0" type="line"/>
      <point x="584.4000000000001" y="496.6" type="line"/>
      <point x="540.8000000000001" y="534.8"/>
      <point x="480.2" y="554.0"/>
      <point x="405.6" y="554.0" type="curve" smooth="yes"/>
      <point x="177.8" y="554.0"/>
      <point x="34.400000000000006" y="411.40000000000003"/>
      <point x="34.400000000000006" y="219.60000000000002" type="curve" smooth="yes"/>
      <point x="34.400000000000006" y="64.60000000000001"/>
      <point x="127.80000000000001" y="-10.0"/>
    </contour>
    <contour>
      <point x="375.4" y="133.20000000000002" type="curve" smooth="yes"/>
      <point x="298.20000000000005" y="133.20000000000002"/>
      <point x="237.39999999999998" y="168.6"/>
      <point x="237.39999999999998" y="246.6" type="curve" smooth="yes"/>
      <point x="237.39999999999998" y="380.4000000000001"/>
      <point x="352.00000000000006" y="429.6"/>
      <point x="454.80000000000007" y="429.6" type="curve" smooth="yes"/>
      <point x="499.40000000000003" y="429.6"/>
      <point x="534.8" y="423.2"/>
      <point x="569.6" y="403.99999999999994" type="curve"/>
      <point x="533.2" y="174.20000000000002" type="line"/>
      <point x="485.20000000000005" y="150.2"/>
      <point x="428.6" y="133.20000000000002"/>
    </contour>
  </outline>
</glyph>
<glyph name="eth" format="2">
  <advance width="867.8"/>
  <unicode hex="00F0"/>
  <outline>
    <contour>
      <point x="663.2" y="353.20000000000005" type="curve"/>
      <point x="683.0" y="467.40000000000003" type="line"/>
      <point x="610.6" y="504.19999999999993"/>
      <point x="502.8" y="523.4000000000001"/>
      <point x="396.99999999999994" y="523.4000000000001" type="curve" smooth="yes"/>
      <point x="182.79999999999998" y="523.4000000000001"/>
      <point x="34.2" y="428.59999999999997"/>
      <point x="34.2" y="242.60000000000002" type="curve" smooth="yes"/>
      <point x="34.2" y="53.599999999999994"/>
      <point x="180.20000000000002" y="-8.2"/>
      <point x="383.2" y="-8.2" type="curve" smooth="yes"/>
      <point x="640.6000000000001" y="-8.2"/>
      <point x="796.8" y="98.2"/>
      <point x="836.0" y="323.2" type="curve" smooth="yes"/>
      <point x="841.4" y="350.79999999999995"/>
      <point x="842.8000000000001" y="378.0"/>
      <point x="842.8000000000001" y="402.79999999999995" type="curve" smooth="yes"/>
      <point x="842.8000000000001" y="673.6"/>
      <point x="617.7999999999998" y="750.6000000000001"/>
      <point x="288.6" y="750.6000000000001" type="curve" smooth="yes"/>
      <point x="217.79999999999995" y="750.6000000000001"/>
      <point x="159.8" y="744.4000000000001"/>
      <point x="100.40000000000003" y="734.6" type="curve"/>
      <point x="85.20000000000002" y="626.0" type="line"/>
      <point x="137.2" y="632.3999999999999"/>
      <point x="168.59999999999997" y="637.8"/>
      <point x="269.40000000000003" y="637.8" type="curve" smooth="yes"/>
      <point x="533.5999999999999" y="637.8"/>
      <point x="640.4" y="581.0"/>
      <point x="640.4" y="435.8" type="curve" smooth="yes"/>
      <point x="640.4" y="409.2"/>
      <point x="639.4" y="379.4"/>
      <point x="633.0000000000001" y="343.8" type="curve" smooth="yes"/>
      <point x="607.4" y="187.4"/>
      <point x="533.1999999999999" y="121.0"/>
      <point x="405.0" y="121.0" type="curve" smooth="yes"/>
      <point x="299.2" y="121.0"/>
      <point x="234.79999999999995" y="158.59999999999997"/>
      <point x="234.79999999999995" y="254.40000000000003" type="curve" smooth="yes"/>
      <point x="234.79999999999995" y="354.59999999999997"/>
      <point x="321.79999999999995" y="404.0"/>
      <point x="435.20000000000005" y="404.0" type="curve" smooth="yes"/>
      <point x="535.4" y="404.0"/>
      <point x="604.4" y="383.40000000000003"/>
    </contour>
    <contour>
      <point x="295.59999999999997" y="537.4" type="line"/>
      <point x="586.6000000000001" y="645.6" type="line"/>
      <point x="578.8" y="649.7999999999998" type="line"/>
      <point x="871.9999999999999" y="759.2000000000002" type="line"/>
      <point x="674.0000000000001" y="759.2000000000002" type="line"/>
      <point x="486.20000000000005" y="689.4" type="line"/>
      <point x="490.79999999999995" y="684.0" type="line"/>
      <point x="96.60000000000002" y="537.4000000000001" type="line"/>
    </contour>
  </outline>
</glyph>
<glyph name="divide" format="2">
  <advance width="674.0"/>
  <unicode hex="00F7"/>
  <outline>
    <contour>
      <point x="220.2" y="83.60000000000001" type="curve" smooth="yes"/>
      <point x="219.59999999999997" y="49.40000000000002"/>
      <point x="243.79999999999998" y="32.60000000000001"/>
      <point x="297.59999999999997" y="32.60000000000001" type="curve" smooth="yes"/>
      <point x="355.79999999999995" y="32.60000000000001"/>
      <point x="396.40000000000003" y="52.200000000000024"/>
      <point x="397.6" y="115.39999999999998" type="curve" smooth="yes"/>
      <point x="398.20000000000005" y="149.60000000000002"/>
      <point x="375.0" y="166.0"/>
      <point x="320.6" y="166.0" type="curve" smooth="yes"/>
      <point x="264.79999999999995" y="166.0"/>
      <point x="221.39999999999998" y="145.4"/>
    </contour>
    <contour>
      <point x="289.79999999999995" y="505.6" type="curve" smooth="yes"/>
      <point x="289.20000000000005" y="472.4"/>
      <point x="312.0" y="455.0"/>
      <point x="366.8" y="455.0" type="curve" smooth="yes"/>
      <point x="425.3999999999999" y="455.0"/>
      <point x="464.59999999999997" y="476.6"/>
      <point x="465.8" y="538.8" type="curve" smooth="yes"/>
      <point x="466.4" y="573.0"/>
      <point x="443.59999999999997" y="588.4000000000001"/>
      <point x="388.8" y="588.4000000000001" type="curve" smooth="yes"/>
      <point x="331.6" y="588.4000000000001"/>
      <point x="291.0" y="567.8"/>
    </contour>
    <contour>
      <point x="55.2" y="235.20000000000005" type="line"/>
      <point x="605.0" y="235.20000000000005" type="line"/>
      <point x="630.4" y="384.40000000000003" type="line"/>
      <point x="80.6" y="384.40000000000003" type="line"/>
    </contour>
  </outline>
</glyph>
<glyph name="oslash" format="2">
  <advance width="839.4000000000001"/>
  <unicode hex="00F8"/>
  <anchor x="448.4" y="544.0" name="top"/>
  <outline>
    <contour>
      <point x="697.8" y="556.0" type="line"/>
      <point x="593.2" y="467.00000000000006" type="line"/>
      <point x="593.2" y="466.99999999999994" type="line"/>
      <point x="195.6" y="130.0" type="line"/>
      <point x="195.6" y="129.99999999999997" type="line"/>
      <point x="32.400000000000006" y="-9.6" type="line"/>
      <point x="159.0" y="-9.6" type="line"/>
      <point x="258.6" y="75.6" type="line"/>
      <point x="258.59999999999997" y="75.59999999999998" type="line"/>
      <point x="674.2" y="427.19999999999993" type="line"/>
      <point x="674.2" y="427.19999999999993" type="line"/>
      <point x="825.6" y="556.0" type="line"/>
    </contour>
    <contour>
      <point x="413.00000000000006" y="-9.6" type="curve" smooth="yes"/>
      <point x="652.2" y="-9.6"/>
      <point x="799.0" y="88.20000000000002"/>
      <point x="797.8" y="295.6" type="curve" smooth="yes"/>
      <point x="796.6" y="469.8"/>
      <point x="658.6" y="555.6"/>
      <point x="425.19999999999993" y="555.6" type="curve" smooth="yes"/>
      <point x="186.0" y="555.6"/>
      <point x="39.2" y="457.8"/>
      <point x="40.400000000000006" y="250.39999999999998" type="curve" smooth="yes"/>
      <point x="41.6" y="76.2"/>
      <point x="179.6" y="-9.6"/>
    </contour>
    <contour>
      <point x="414.0" y="112.6" type="curve" smooth="yes"/>
      <point x="301.8" y="112.6"/>
      <point x="241.6" y="159.2"/>
      <point x="241.6" y="261.4" type="curve" smooth="yes"/>
      <point x="241.6" y="371.59999999999997"/>
      <point x="303.59999999999997" y="433.4"/>
      <point x="424.2" y="433.4" type="curve" smooth="yes"/>
      <point x="535.9999999999999" y="433.4"/>
      <point x="596.6" y="387.0"/>
      <point x="596.6" y="284.79999999999995" type="curve" smooth="yes"/>
      <point x="596.6" y="174.59999999999997"/>
      <point x="534.6" y="112.6"/>
    </contour>
  </outline>
</glyph>
<glyph name="thorn" format="2">
  <advance width="851.6999999999999"/>
  <unicode hex="00FE"/>
  <outline>
    <contour>
      <point x="1.1000000000000085" y="-210.0" type="line"/>
      <point x="204.2" y="-210.0" type="line"/>
      <point x="239.5" y="5.5" type="line"/>
      <point x="277.4" y="-2.299999999999999"/>
      <point x="331.7" y="-10.0"/>
      <point x="390.0" y="-10.0" type="curve" smooth="yes"/>
      <point x="672.5" y="-10.0"/>
      <point x="817.8" y="116.39999999999999"/>
      <point x="817.8" y="340.5" type="curve" smooth="yes"/>
      <point x="817.8" y="471.8"/>
      <point x="741.3" y="554.0"/>
      <point x="589.4000000000001" y="554.0" type="curve" smooth="yes"/>
      <point x="483.0" y="554.0"/>
      <point x="403.6" y="520.3"/>
      <point x="309.9" y="463.4" type="curve"/>
      <point x="353.5" y="740.0" type="line"/>
      <point x="151.8" y="740.0" type="line"/>
    </contour>
    <contour>
      <point x="398.7" y="122.39999999999999" type="curve" smooth="yes"/>
      <point x="346.1" y="122.39999999999999"/>
      <point x="298.8" y="131.7"/>
      <point x="260.7" y="141.29999999999998" type="curve"/>
      <point x="292.59999999999997" y="340.8" type="line"/>
      <point x="356.9" y="376.6"/>
      <point x="425.3" y="399.9"/>
      <point x="488.59999999999997" y="399.9" type="curve" smooth="yes"/>
      <point x="563.4000000000001" y="399.9"/>
      <point x="612.5999999999999" y="368.1"/>
      <point x="612.5999999999999" y="294.5" type="curve" smooth="yes"/>
      <point x="612.5999999999999" y="188.7"/>
      <point x="519.5" y="122.39999999999999"/>
    </contour>
  </outline>
</glyph>
<glyph name="Dcroat" format="2">
  <advance width="1086.6000000000001"/>
  <unicode hex="0110"/>
  <outline>
    <contour>
      <point x="21.8" y="290.0" type="line"/>
      <point x="514.2" y="290.0" type="line"/>
      <point x="538.1999999999999" y="424.59999999999997" type="line"/>
      <point x="44.0" y="424.59999999999997" type="line"/>
    </contour>
    <component base="D" xOffset="7.0"/>
  </outline>
</glyph>
<glyph name="dcroat" format="2">
  <advance width="878.4000000000001"/>
  <unicode hex="0111"/>
  <outline>
    <contour>
      <point x="423.40000000000003" y="599.8000000000001" type="line"/>
      <point x="911.2" y="599.8000000000001" type="line"/>
      <point x="926.0" y="685.4" type="line"/>
      <point x="438.2" y="685.4" type="line"/>
    </contour>
    <component base="d"/>
  </outline>
</glyph>
<glyph name="Hbar" format="2">
  <advance width="1088.3999999999999"/>
  <unicode hex="0126"/>
  <outline>
    <contour>
      <point x="67.0" y="490.9" type="line"/>
      <point x="1092.7" y="490.9" type="line"/>
      <point x="1112.5" y="616.6" type="line"/>
      <point x="86.8" y="616.6" type="line"/>
    </contour>
    <component base="H" xOffset="1.0"/>
  </outline>
</glyph>
<glyph name="hbar" format="2">
  <advance width="842.0"/>
  <unicode hex="0127"/>
  <outline>
    <contour>
      <point x="32.800000000000004" y="599.8000000000001" type="line"/>
      <point x="521.2" y="599.8000000000001" type="line"/>
      <point x="536.0" y="685.4" type="line"/>
      <point x="47.60000000000001" y="685.4" type="line"/>
    </contour>
    <component base="h" xOffset="-4.199999999999999"/>
  </outline>
</glyph>
<glyph name="Idotaccent" format="2">
  <advance width="401.5"/>
  <unicode hex="0130"/>
  <outline>
    <contour>
      <point x="302.9" y="919.3" type="curve" smooth="yes"/>
      <point x="210.1" y="919.3"/>
      <point x="165.20000000000002" y="890.6"/>
      <point x="164.9" y="822.6" type="curve" smooth="yes"/>
      <point x="164.9" y="779.9"/>
      <point x="198.20000000000002" y="755.1"/>
      <point x="274.59999999999997" y="755.1" type="curve" smooth="yes"/>
      <point x="349.3" y="755.1"/>
      <point x="411.9" y="774.0"/>
      <point x="412.5" y="852.8" type="curve" smooth="yes"/>
      <point x="412.5" y="894.5"/>
      <point x="380.1" y="919.3"/>
    </contour>
    <component base="I"/>
  </outline>
</glyph>
<glyph name="dotlessi" format="2">
  <advance width="361.5"/>
  <unicode hex="0131"/>
  <anchor x="136.9108" y="0.0" name="bottom"/>
  <anchor x="239.7" y="0.0" name="ogonek"/>
  <anchor x="223.3892" y="544.0" name="top"/>
  <outline>
    <contour>
      <point x="239.7" y="0.0" type="line"/>
      <point x="325.1" y="544.0" type="line"/>
      <point x="121.29999999999998" y="544.0" type="line"/>
      <point x="34.50000000000001" y="0.7" type="line"/>
    </contour>
  </outline>
</glyph>
<glyph name="kgreenlandic" format="2">
  <advance width="796.4"/>
  <unicode hex="0138"/>
  <anchor x="364.2" y="0.0" name="bottom"/>
  <anchor x="448.0224" y="544.0" name="top"/>
  <outline>
    <contour>
      <point x="34.400000000000006" y="0.0" type="line"/>
      <point x="238.20000000000002" y="0.0" type="line"/>
      <point x="325.40000000000003" y="544.0" type="line"/>
      <point x="120.6" y="544.0" type="line"/>
    </contour>
    <contour>
      <point x="694.8000000000001" y="-10.0" type="curve" smooth="yes"/>
      <point x="707.6" y="-10.0"/>
      <point x="721.4" y="-8.399999999999999"/>
      <point x="733.0000000000001" y="-5.8" type="curve"/>
      <point x="760.5999999999999" y="170.59999999999997" type="line"/>
      <point x="751.8" y="169.0"/>
      <point x="742.8" y="169.0"/>
      <point x="733.0" y="169.0" type="curve" smooth="yes"/>
      <point x="677.0000000000001" y="169.0"/>
      <point x="612.5999999999999" y="194.0"/>
      <point x="487.0" y="275.2" type="curve" smooth="yes"/>
      <point x="279.4" y="409.59999999999997" type="line"/>
      <point x="252.20000000000002" y="236.0" type="line"/>
      <point x="431.40000000000003" y="106.0" type="line" smooth="yes"/>
      <point x="538.0" y="28.800000000000008"/>
      <point x="618.8" y="-10.0"/>
    </contour>
    <contour>
      <point x="464.59999999999997" y="272.8" type="line"/>
      <point x="616.8" y="348.40000000000003"/>
      <point x="745.1999999999999" y="454.6"/>
      <point x="800.4" y="543.4000000000001" type="curve"/>
      <point x="567.0" y="554.0" type="line"/>
      <point x="505.40000000000003" y="466.2"/>
      <point x="428.6" y="403.79999999999995"/>
      <point x="292.4" y="326.79999999999995" type="curve"/>
    </contour>
  </outline>
</glyph>
<glyph name="Ldot" format="2">
  <advance width="874.6999999999999"/>
  <unicode hex="013F"/>
  <outline>
    <contour>
      <point x="552.5" y="417.3" type="curve" smooth="yes"/>
      <point x="552.2" y="371.9"/>
      <point x="583.5" y="347.1"/>
      <point x="650.2" y="347.1" type="curve" smooth="yes"/>
      <point x="726.3" y="347.1"/>
      <point x="774.9" y="376.09999999999997"/>
      <point x="775.8000000000001" y="446.0" type="curve" smooth="yes"/>
      <point x="776.0999999999999" y="492.8"/>
      <point x="744.8000000000001" y="517.6"/>
      <point x="678.8000000000001" y="517.6" type="curve" smooth="yes"/>
      <point x="603.4" y="517.6"/>
      <point x="553.4" y="484.4"/>
    </contour>
    <component base="L"/>
  </outline>
</glyph>
<glyph name="ldot" format="2">
  <advance width="492.4"/>
  <unicode hex="0140"/>
  <outline>
    <contour>
      <point x="383.6307" y="395.2928" type="curve" smooth="yes"/>
      <point x="383.3307" y="363.6912"/>
      <point x="401.7591" y="346.8082"/>
      <point x="441.2193" y="346.8082" type="curve" smooth="yes"/>
      <point x="487.0856" y="346.8082"/>
      <point x="515.0314000000001" y="366.5339"/>
      <point x="515.9314" y="416.0758" type="curve" smooth="yes"/>
      <point x="516.2314" y="448.6259"/>
      <point x="497.80299999999994" y="465.50890000000004"/>
      <point x="458.7439" y="465.50890000000004" type="curve" smooth="yes"/>
      <point x="413.278" y="465.50890000000004"/>
      <point x="384.53069999999997" y="442.9398"/>
    </contour>
    <component base="l"/>
  </outline>
</glyph>
<glyph name="Lslash" format="2">
  <advance width="864.1999999999999"/>
  <unicode hex="0141"/>
  <outline>
    <contour>
      <point x="37.0" y="0.0" type="line"/>
      <point x="789.9" y="0.0" type="line"/>
      <point x="818.8" y="163.2" type="line"/>
      <point x="280.2" y="163.2" type="line"/>
      <point x="299.8" y="287.8" type="line"/>
      <point x="606.2" y="433.70000000000005" type="line"/>
      <point x="633.3000000000001" y="599.9" type="line"/>
      <point x="326.90000000000003" y="454.0" type="line"/>
      <point x="366.5" y="700.0" type="line"/>
      <point x="150.79999999999998" y="700.0" type="line"/>
      <point x="94.5" y="353.09999999999997" type="line"/>
      <point x="18.400000000000006" y="317.2" type="line"/>
      <point x="-7.299999999999997" y="154.5" type="line"/>
      <point x="67.4" y="189.7" type="line"/>
    </contour>
  </outline>
</glyph>
<glyph name="lslash" format="2">
  <advance width="457.4"/>
  <unicode hex="0142"/>
  <outline>
    <contour>
      <point x="-2.599999999999998" y="170.3" type="line"/>
      <point x="416.9" y="390.7" type="line"/>
      <point x="439.09999999999997" y="529.3" type="line"/>
      <point x="18.900000000000002" y="308.9" type="line"/>
    </contour>
    <component base="l"/>
  </outline>
</glyph>
<glyph name="Eng" format="2">
  <advance width="1036.2"/>
  <unicode hex="014A"/>
  <outline>
    <contour>
      <point x="47.5" y="0.0" type="line"/>
      <point x="243.2" y="0.0" type="line"/>
      <point x="314.1" y="439.7" type="line"/>
      <point x="708.0" y="4.5" type="line"/>
      <point x="694.4000000000001" y="-63.4"/>
      <point x="635.4" y="-82.0"/>
      <point x="564.5" y="-82.0" type="curve" smooth="yes"/>
      <point x="524.0" y="-82.0"/>
      <point x="488.2" y="-74.40000000000002"/>
      <point x="453.3" y="-61.60000000000002" type="curve"/>
      <point x="423.4" y="-199.89999999999998" type="line"/>
      <point x="481.40000000000003" y="-216.20000000000002"/>
      <point x="556.0999999999999" y="-220.0"/>
      <point x="588.1" y="-220.0" type="curve" smooth="yes"/>
      <point x="762.5" y="-220.0"/>
      <point x="869.0" y="-173.79999999999998"/>
      <point x="898.0" y="4.5000000000000036" type="curve" smooth="yes"/>
      <point x="1011.7" y="700.0" type="line"/>
      <point x="816.0" y="700.0" type="line"/>
      <point x="742.3000000000001" y="245.0" type="line"/>
      <point x="346.5" y="703.0" type="line"/>
      <point x="162.6" y="703.0" type="line"/>
    </contour>
  </outline>
</glyph>
<glyph name="eng" format="2">
  <advance width="836.8"/>
  <unicode hex="014B"/>
  <outline>
    <contour>
      <point x="719.1999999999999" y="29.39999999999999" type="curve" smooth="yes"/>
      <point x="722.7" y="50.400000000000034"/>
      <point x="778.1999999999999" y="386.2"/>
      <point x="778.1999999999999" y="402.7" type="curve" smooth="yes"/>
      <point x="778.1999999999999" y="490.4"/>
      <point x="707.4000000000001" y="554.0"/>
      <point x="574.4000000000001" y="554.0" type="curve" smooth="yes"/>
      <point x="474.4" y="554.0"/>
      <point x="403.7" y="523.7"/>
      <point x="291.2" y="470.09999999999997" type="curve"/>
      <point x="302.7" y="544.0" type="line"/>
      <point x="120.6" y="544.0" type="line"/>
      <point x="34.800000000000004" y="0.0" type="line"/>
      <point x="235.09999999999997" y="0.0" type="line"/>
      <point x="293.79999999999995" y="359.9" type="line"/>
      <point x="361.9" y="388.5"/>
      <point x="414.0" y="408.29999999999995"/>
      <point x="474.09999999999997" y="408.29999999999995" type="curve" smooth="yes"/>
      <point x="536.7" y="408.29999999999995"/>
      <point x="570.3" y="380.3"/>
      <point x="564.7" y="321.4" type="curve" smooth="yes"/>
      <point x="556.3" y="259.59999999999997"/>
      <point x="526.9000000000001" y="86.20000000000002"/>
      <point x="518.5" y="35.8" type="curve" smooth="yes"/>
      <point x="505.9" y="-41.000000000000014"/>
      <point x="474.1" y="-69.0"/>
      <point x="413.1" y="-69.0" type="curve" smooth="yes"/>
      <point x="405.09999999999997" y="-69.0"/>
      <point x="395.0" y="-68.4"/>
      <point x="383.69999999999993" y="-65.10000000000001" type="curve"/>
      <point x="352.09999999999997" y="-214.39999999999998" type="line"/>
      <point x="377.4" y="-218.79999999999998"/>
      <point x="431.1" y="-221.8"/>
      <point x="467.29999999999995" y="-221.8" type="curve" smooth="yes"/>
      <point x="623.7" y="-221.8"/>
      <point x="693.0" y="-133.5"/>
    </contour>
  </outline>
</glyph>
<glyph name="OE" format="2">
  <advance width="1612.3999999999999"/>
  <unicode hex="0152"/>
  <outline>
    <contour>
      <point x="1521.6" y="0.0" type="line"/>
      <point x="1548.2" y="157.0" type="line"/>
      <point x="953.4" y="157.0" type="line"/>
      <point x="974.4" y="286.2" type="line"/>
      <point x="1511.8" y="286.2" type="line"/>
      <point x="1536.6000000000001" y="430.8" type="line"/>
      <point x="997.5999999999999" y="430.8" type="line"/>
      <point x="1014.6" y="542.6" type="line"/>
      <point x="1583.2" y="542.6" type="line"/>
      <point x="1608.3999999999999" y="700.0" type="line"/>
      <point x="1042.8" y="700.0" type="line"/>
      <point x="908.2" y="702.4"/>
      <point x="797.5999999999999" y="710.0"/>
      <point x="593.6" y="710.0" type="curve" smooth="yes"/>
      <point x="307.6" y="710.0"/>
      <point x="62.20000000000001" y="593.8000000000001"/>
      <point x="62.20000000000001" y="307.0" type="curve" smooth="yes"/>
      <point x="62.20000000000001" y="105.19999999999999"/>
      <point x="196.8" y="-10.0"/>
      <point x="536.4" y="-10.0" type="curve" smooth="yes"/>
      <point x="694.8" y="-10.0"/>
      <point x="799.8000000000001" y="-2.3999999999999995"/>
      <point x="929.0" y="0.0" type="curve"/>
    </contour>
    <contour>
      <point x="744.8000000000001" y="137.2" type="line"/>
      <point x="686.4" y="133.39999999999998"/>
      <point x="623.8000000000001" y="130.79999999999998"/>
      <point x="543.8" y="130.79999999999998" type="curve" smooth="yes"/>
      <point x="375.20000000000005" y="130.79999999999998"/>
      <point x="274.40000000000003" y="202.60000000000002"/>
      <point x="274.40000000000003" y="321.2" type="curve" smooth="yes"/>
      <point x="274.40000000000003" y="492.2"/>
      <point x="413.8" y="568.8"/>
      <point x="584.6" y="568.8" type="curve" smooth="yes"/>
      <point x="656.6" y="568.8"/>
      <point x="750.2" y="565.2"/>
      <point x="813.8" y="562.5999999999999" type="curve"/>
    </contour>
  </outline>
</glyph>
<glyph name="oe" format="2">
  <advance width="1348.8000000000002"/>
  <unicode hex="0153"/>
  <outline>
    <contour>
      <point x="404.2" y="-9.6" type="curve" smooth="yes"/>
      <point x="520.0" y="-9.6"/>
      <point x="615.8" y="10.4"/>
      <point x="679.4" y="74.0" type="curve"/>
      <point x="737.6000000000001" y="14.0"/>
      <point x="833.4" y="-10.0"/>
      <point x="949.4" y="-10.0" type="curve" smooth="yes"/>
      <point x="1056.2000000000003" y="-10.0"/>
      <point x="1168.0" y="5.800000000000001"/>
      <point x="1264.3999999999999" y="30.599999999999998" type="curve"/>
      <point x="1248.6000000000001" y="161.6" type="line"/>
      <point x="1145.1999999999998" y="133.8"/>
      <point x="1037.2" y="121.0"/>
      <point x="980.1999999999998" y="121.0" type="curve" smooth="yes"/>
      <point x="835.0" y="121.0"/>
      <point x="787.2" y="157.0"/>
      <point x="787.2" y="244.4" type="curve" smooth="yes"/>
      <point x="787.2" y="351.8"/>
      <point x="875.0" y="428.2"/>
      <point x="1001.2" y="428.2" type="curve" smooth="yes"/>
      <point x="1071.2" y="428.2"/>
      <point x="1106.3999999999999" y="408.59999999999997"/>
      <point x="1106.3999999999999" y="372.6" type="curve" smooth="yes"/>
      <point x="1106.3999999999999" y="327.80000000000007"/>
      <point x="1031.6" y="315.6"/>
      <point x="898.4000000000001" y="313.6" type="curve" smooth="yes"/>
      <point x="845.1999999999999" y="312.6"/>
      <point x="795.2" y="315.2"/>
      <point x="756.5999999999999" y="321.40000000000003" type="curve"/>
      <point x="768.0" y="228.20000000000002" type="line"/>
      <point x="819.5999999999999" y="217.8"/>
      <point x="887.8" y="210.60000000000002"/>
      <point x="969.8000000000001" y="211.60000000000002" type="curve" smooth="yes"/>
      <point x="1199.8" y="214.40000000000003"/>
      <point x="1321.0" y="278.4"/>
      <point x="1321.0" y="386.8" type="curve" smooth="yes"/>
      <point x="1321.0" y="492.8"/>
      <point x="1204.4" y="554.0"/>
      <point x="1018.5999999999999" y="554.0" type="curve" smooth="yes"/>
      <point x="879.1999999999999" y="554.0"/>
      <point x="773.5999999999999" y="521.0"/>
      <point x="707.1999999999999" y="458.99999999999994" type="curve"/>
      <point x="655.4" y="524.6"/>
      <point x="559.5999999999999" y="555.0"/>
      <point x="420.59999999999997" y="555.0" type="curve" smooth="yes"/>
      <point x="203.2" y="555.0"/>
      <point x="45.6" y="471.6"/>
      <point x="40.400000000000006" y="259.6" type="curve" smooth="yes"/>
      <point x="36.599999999999994" y="77.4"/>
      <point x="179.8" y="-9.6"/>
    </contour>
    <contour>
      <point x="412.2" y="115.0" type="curve" smooth="yes"/>
      <point x="303.0" y="115.0"/>
      <point x="246.2" y="166.0"/>
      <point x="246.2" y="258.40000000000003" type="curve" smooth="yes"/>
      <point x="246.2" y="371.0"/>
      <point x="307.40000000000003" y="431.00000000000006"/>
      <point x="426.59999999999997" y="431.00000000000006" type="curve" smooth="yes"/>
      <point x="536.6" y="431.00000000000006"/>
      <point x="593.1999999999999" y="380.80000000000007"/>
      <point x="593.1999999999999" y="286.59999999999997" type="curve" smooth="yes"/>
      <point x="593.1999999999999" y="169.79999999999998"/>
      <point x="526.5999999999999" y="115.0"/>
    </contour>
  </outline>
</glyph>
<glyph name="uni0162" format="2">
  <advance width="921.0"/>
  <unicode hex="0162"/>
  <anchor x="416.5" y="0.0" name="_bottom"/>
  <anchor x="330.59999999999997" y="-220.0" name="bottom"/>
  <outline>
    <contour>
      <point x="217.79999999999998" y="-199.60000000000002" type="line"/>
      <point x="258.7" y="-213.6"/>
      <point x="293.5" y="-220.0"/>
      <point x="333.29999999999995" y="-220.0" type="curve" smooth="yes"/>
      <point x="435.90000000000003" y="-220.0"/>
      <point x="526.2" y="-169.5"/>
      <point x="526.2" y="-64.10000000000001" type="curve" smooth="yes"/>
      <point x="526.2" y="-33.3"/>
      <point x="511.70000000000005" y="-7.899999999999999"/>
      <point x="490.09999999999997" y="8.5" type="curve"/>
      <point x="329.8" y="6.999999999999999" type="line"/>
      <point x="354.0" y="-5.8999999999999995"/>
      <point x="365.5" y="-20.900000000000006"/>
      <point x="365.5" y="-43.7" type="curve" smooth="yes"/>
      <point x="365.5" y="-86.2"/>
      <point x="334.4" y="-101.20000000000002"/>
      <point x="293.9" y="-101.20000000000002" type="curve" smooth="yes"/>
      <point x="277.1" y="-101.20000000000002"/>
      <point x="256.2" y="-96.3"/>
      <point x="241.5" y="-88.10000000000001" type="curve"/>
    </contour>
    <component base="T"/>
  </outline>
</glyph>
<glyph name="Tbar" format="2">
  <advance width="935.0"/>
  <unicode hex="0166"/>
  <outline>
    <contour>
      <point x="954.5999999999999" y="547.3" type="line"/>
      <point x="982.8000000000001" y="700.0" type="line"/>
      <point x="91.1" y="700.0" type="line"/>
      <point x="62.2" y="547.3" type="line"/>
      <point x="401.40000000000003" y="547.3" type="line"/>
      <point x="373.59999999999997" y="373.9" type="line"/>
      <point x="158.29999999999998" y="373.9" type="line"/>
      <point x="136.4" y="238.3" type="line"/>
      <point x="352.40000000000003" y="238.3" type="line"/>
      <point x="315.1" y="0.0" type="line"/>
      <point x="530.8" y="0.0" type="line"/>
      <point x="568.1" y="238.3" type="line"/>
      <point x="785.8" y="238.3" type="line"/>
      <point x="807.7" y="373.9" type="line"/>
      <point x="589.3" y="373.9" type="line"/>
      <point x="616.4" y="547.3" type="line"/>
    </contour>
  </outline>
</glyph>
<glyph name="tbar" format="2">
  <advance width="588.2"/>
  <unicode hex="0167"/>
  <outline>
    <contour>
      <point x="20.2" y="270.6" type="line"/>
      <point x="519.8" y="270.6" type="line"/>
      <point x="536.8000000000001" y="364.2" type="line"/>
      <point x="36.800000000000004" y="364.2" type="line"/>
    </contour>
    <contour>
      <point x="527.8000000000001" y="170.4" type="line"/>
      <point x="469.6" y="156.2"/>
      <point x="427.2" y="146.2"/>
      <point x="387.8" y="146.2" type="curve" smooth="yes"/>
      <point x="334.20000000000005" y="146.2"/>
      <point x="312.8" y="168.20000000000002"/>
      <point x="312.8" y="206.39999999999998" type="curve" smooth="yes"/>
      <point x="312.8" y="214.39999999999998"/>
      <point x="313.4" y="223.0"/>
      <point x="315.0" y="232.00000000000003" type="curve" smooth="yes"/>
      <point x="347.40000000000003" y="429.6" type="line"/>
      <point x="565.6" y="429.6" type="line"/>
      <point x="585.4000000000001" y="544.0" type="line"/>
      <point x="365.40000000000003" y="544.0" type="line"/>
      <point x="385.0" y="665.0" type="line"/>
      <point x="206.0" y="665.0" type="line"/>
      <point x="164.39999999999998" y="544.0" type="line"/>
      <point x="40.2" y="528.2" type="line"/>
      <point x="22.2" y="429.6" type="line"/>
      <point x="142.2" y="429.6" type="line"/>
      <point x="110.2" y="225.4" type="line" smooth="yes"/>
      <point x="105.8" y="199.0"/>
      <point x="103.80000000000001" y="174.2"/>
      <point x="103.80000000000001" y="154.4" type="curve" smooth="yes"/>
      <point x="103.80000000000001" y="30.799999999999997"/>
      <point x="178.2" y="-10.0"/>
      <point x="294.0" y="-10.0" type="curve" smooth="yes"/>
      <point x="370.4" y="-10.0"/>
      <point x="440.4" y="2.3999999999999995"/>
      <point x="525.0" y="25.000000000000004" type="curve"/>
    </contour>
  </outline>
</glyph>
<glyph name="uogonek" format="2">
  <advance width="837.3000000000001"/>
  <unicode hex="0173"/>
  <outline>
    <contour>
      <point x="689.1" y="-201.8" type="curve" smooth="yes"/>
      <point x="717.6999999999999" y="-201.8"/>
      <point x="748.5" y="-198.10000000000002"/>
      <point x="776.3" y="-191.0" type="curve"/>
      <point x="788.6999999999999" y="-90.0" type="line"/>
      <point x="777.4" y="-92.2"/>
      <point x="767.7" y="-93.5"/>
      <point x="753.4" y="-93.5" type="curve" smooth="yes"/>
      <point x="721.3000000000001" y="-93.5"/>
      <point x="698.8" y="-81.50000000000001"/>
      <point x="698.8" y="-55.60000000000001" type="curve" smooth="yes"/>
      <point x="698.8" y="-26.80000000000001"/>
      <point x="721.6" y="0.19999999999999574"/>
      <point x="794.0999999999999" y="25.9" type="curve"/>
      <point x="791.8000000000001" y="138.8" type="line"/>
      <point x="778.5" y="134.5"/>
      <point x="769.2" y="133.6"/>
      <point x="765.0" y="133.6" type="curve" smooth="yes"/>
      <point x="746.6" y="133.6"/>
      <point x="733.3" y="143.5"/>
      <point x="733.3" y="172.79999999999998" type="curve" smooth="yes"/>
      <point x="733.3" y="179.8"/>
      <point x="734.3" y="194.39999999999998"/>
      <point x="791.3000000000001" y="544.0" type="curve"/>
      <point x="585.8000000000001" y="544.0" type="line"/>
      <point x="530.5" y="182.2" type="line"/>
      <point x="474.8" y="154.9"/>
      <point x="414.9" y="135.0"/>
      <point x="355.7" y="135.0" type="curve" smooth="yes"/>
      <point x="298.1" y="135.0"/>
      <point x="267.8" y="158.7"/>
      <point x="267.79999999999995" y="209.3" type="curve" smooth="yes"/>
      <point x="267.8" y="233.1"/>
      <point x="272.3" y="256.19999999999993"/>
      <point x="321.0" y="544.0" type="curve"/>
      <point x="115.80000000000001" y="544.0" type="line"/>
      <point x="57.3" y="181.2"/>
      <point x="56.3" y="167.8"/>
      <point x="56.3" y="148.79999999999998" type="curve" smooth="yes"/>
      <point x="56.3" y="50.0"/>
      <point x="127.00000000000001" y="-10.0"/>
      <point x="261.4" y="-10.0" type="curve" smooth="yes"/>
      <point x="351.0" y="-10.0"/>
      <point x="445.70000000000005" y="20.4"/>
      <point x="536.5" y="74.30000000000001" type="curve"/>
      <point x="553.3" y="25.4"/>
      <point x="598.4" y="-8.6"/>
      <point x="667.2" y="-8.6" type="curve" smooth="yes"/>
      <point x="694.1" y="-8.6"/>
      <point x="726.3" y="29.2"/>
      <point x="651.4000000000001" y="31.299999999999997" type="curve"/>
      <point x="588.5" y="10.999999999999996"/>
      <point x="545.4" y="-30.400000000000002"/>
      <point x="545.4" y="-87.8" type="curve" smooth="yes"/>
      <point x="545.4" y="-146.1"/>
      <point x="590.7" y="-201.8"/>
    </contour>
  </outline>
</glyph>
